<?xml version="1.0" encoding="UTF-8"?>
<svg version="1.1" xmlns="http://www.w3.org/2000/svg" width="824" height="220">
<path d="M0 0 C3.248155 0.3200933 3.97036265 1.04213326 6.10644531 3.44506836 C7.02937378 4.45984253 7.02937378 4.45984253 7.97094727 5.49511719 C8.60863037 6.22239014 9.24631348 6.94966309 9.90332031 7.69897461 C11.23415132 9.17141448 12.56617805 10.64277452 13.89941406 12.11303711 C14.54120605 12.8275 15.18299805 13.54196289 15.84423828 14.27807617 C18.78188049 17.49877864 21.88719846 20.52822504 25.01660156 23.56225586 C26.65332031 25.26147461 26.65332031 25.26147461 28.65332031 28.26147461 C28.69090454 27.08790405 28.69090454 27.08790405 28.72924805 25.890625 C28.84481819 22.36822512 28.9677198 18.84611901 29.09082031 15.32397461 C29.13013672 14.09227539 29.16945312 12.86057617 29.20996094 11.59155273 C29.27280273 9.83681641 29.27280273 9.83681641 29.33691406 8.04663086 C29.37357178 6.96260986 29.41022949 5.87858887 29.44799805 4.76171875 C29.65332031 2.26147461 29.65332031 2.26147461 30.65332031 1.26147461 C34.94332031 1.26147461 39.23332031 1.26147461 43.65332031 1.26147461 C43.65332031 19.08147461 43.65332031 36.90147461 43.65332031 55.26147461 C37.65332031 55.26147461 37.65332031 55.26147461 34.90722656 53.13647461 C34.0190625 52.18772461 33.13089844 51.23897461 32.21582031 50.26147461 C31.73773926 49.75890137 31.2596582 49.25632813 30.76708984 48.73852539 C27.58927862 45.37182704 24.52890015 41.90145979 21.53051758 38.37475586 C19.41822286 35.99681034 17.19952235 33.75998119 14.94238281 31.51928711 C13.73509521 30.31876709 13.73509521 30.31876709 12.50341797 29.09399414 C11.89288574 28.4892627 11.28235352 27.88453125 10.65332031 27.26147461 C10.65855713 28.04385498 10.66379395 28.82623535 10.66918945 29.63232422 C10.68989137 33.15453294 10.7029587 36.67672891 10.71582031 40.19897461 C10.72419922 41.43067383 10.73257813 42.66237305 10.74121094 43.93139648 C10.74443359 45.1012207 10.74765625 46.27104492 10.75097656 47.47631836 C10.75621338 48.56033936 10.7614502 49.64436035 10.7668457 50.76123047 C10.65332031 53.26147461 10.65332031 53.26147461 9.65332031 54.26147461 C7.46692578 54.33406407 5.27831642 54.34521244 3.09082031 54.32397461 C1.29451172 54.31043945 1.29451172 54.31043945 -0.53808594 54.29663086 C-1.46492187 54.2850293 -2.39175781 54.27342773 -3.34667969 54.26147461 C-3.37194616 46.73177809 -3.3895111 39.20209241 -3.40161133 31.67236328 C-3.40665339 29.10855704 -3.41348683 26.5447537 -3.42211914 23.98095703 C-3.43419033 20.3049244 -3.43990911 16.62892963 -3.44433594 12.95288086 C-3.44949722 11.79873184 -3.45465851 10.64458282 -3.4599762 9.45545959 C-3.46005173 8.39443527 -3.46012726 7.33341095 -3.46020508 6.24023438 C-3.46242569 5.30091568 -3.4646463 4.36159698 -3.4669342 3.39381409 C-3.29683889 0.37770322 -3.00433651 0.33475285 0 0 Z " fill="#035E8D" transform="translate(150.3466796875,64.738525390625)"/>
<path d="M0 0 C4.7421875 -0.22851562 4.7421875 -0.22851562 7.0625 1.828125 C7.701875 2.62734375 8.34125 3.4265625 9 4.25 C11.80986572 7.62709095 14.5600812 10.26570557 18 13 C20.41867152 15.59436194 22.69860483 18.30181256 25 21 C27.31 23.64 29.62 26.28 32 29 C32.33 19.76 32.66 10.52 33 1 C36.96 1 40.92 1 45 1 C46.65408456 2.65408456 46.12742355 4.59553892 46.12939453 6.87109375 C46.13254669 7.90886963 46.13569885 8.94664551 46.13894653 10.01586914 C46.1369223 11.14500732 46.13489807 12.27414551 46.1328125 13.4375 C46.13376923 14.58790771 46.13472595 15.73831543 46.13571167 16.92358398 C46.13639369 19.36149144 46.1345379 21.7994007 46.13037109 24.23730469 C46.12502317 27.98376518 46.13031539 31.73010577 46.13671875 35.4765625 C46.13605797 37.83854193 46.13477682 40.20052129 46.1328125 42.5625 C46.13483673 43.69163818 46.13686096 44.82077637 46.13894653 45.98413086 C46.13421829 47.54079468 46.13421829 47.54079468 46.12939453 49.12890625 C46.12859894 50.04744385 46.12780334 50.96598145 46.12698364 51.91235352 C46 54 46 54 45 55 C42.71875 55.32421875 42.71875 55.32421875 40 55 C37.71875 53.20703125 37.71875 53.20703125 35.5 50.8125 C34.7678125 50.03519531 34.035625 49.25789063 33.28125 48.45703125 C32.5284375 47.64621094 31.775625 46.83539063 31 46 C30.21109375 45.21496094 29.4221875 44.42992187 28.609375 43.62109375 C25.57243741 40.57051722 22.65856455 37.42233143 19.75 34.25 C16.42519445 30.57683477 16.42519445 30.57683477 13 27 C12.67 35.91 12.34 44.82 12 54 C8.04 54 4.08 54 0 54 C-1.2581763 48.28101684 -1.03314172 42.72732334 -0.87890625 36.9140625 C-0.84348976 35.32868179 -0.84348976 35.32868179 -0.80735779 33.71127319 C-0.73103441 30.34903476 -0.64687565 26.98704505 -0.5625 23.625 C-0.50924795 21.33985576 -0.45650778 19.05469952 -0.40429688 16.76953125 C-0.27546184 11.17953498 -0.14020018 5.58972216 0 0 Z " fill="#025E8D" transform="translate(255,65)"/>
<path d="M0 0 C1.19367187 -0.01224609 2.38734375 -0.02449219 3.6171875 -0.03710938 C5.34582031 -0.04000977 5.34582031 -0.04000977 7.109375 -0.04296875 C8.16608398 -0.04707764 9.22279297 -0.05118652 10.31152344 -0.05541992 C16.41190329 0.44889031 19.66979527 3.10412065 23.734375 7.3984375 C27.1390775 11.41739045 27.60206693 15.16518472 27.4296875 20.26953125 C27.00596692 24.79228782 25.52163713 27.13208468 22.125 30 C21.17625 30.721875 20.2275 31.44375 19.25 32.1875 C22.20818006 37.73408762 25.73243297 42.6384835 29.54296875 47.63671875 C31.08658693 49.94331525 31.82549356 51.48206344 32.25 54.1875 C20.00451997 54.30492241 20.00451997 54.30492241 16.1953125 51.87890625 C14.64294595 50.06221782 13.44235844 48.25884062 12.25 46.1875 C11.2629209 44.55461915 10.2626532 42.92964517 9.25 41.3125 C8.816875 40.55195312 8.38375 39.79140625 7.9375 39.0078125 C5.9688422 36.51204173 5.9688422 36.51204173 0.25 36.1875 C-0.08 41.7975 -0.41 47.4075 -0.75 53.1875 C-10.02734375 53.28515625 -10.02734375 53.28515625 -12.75 53.1875 C-14.39087745 51.54662255 -13.87739755 49.66918938 -13.87939453 47.40820312 C-13.88254669 46.390448 -13.88569885 45.37269287 -13.88894653 44.32409668 C-13.8869223 43.21683228 -13.88489807 42.10956787 -13.8828125 40.96875 C-13.88376923 39.84053833 -13.88472595 38.71232666 -13.88571167 37.54992676 C-13.88639368 35.15909774 -13.88453797 32.76826689 -13.88037109 30.37744141 C-13.87502316 26.70340849 -13.88031543 23.02949783 -13.88671875 19.35546875 C-13.88605797 17.03906223 -13.88477682 14.72265578 -13.8828125 12.40625 C-13.88584885 10.74535339 -13.88584885 10.74535339 -13.88894653 9.05090332 C-13.88579437 8.03314819 -13.88264221 7.01539307 -13.87939453 5.96679688 C-13.87859894 5.06602417 -13.87780334 4.16525146 -13.87698364 3.23718262 C-13.53544027 -2.27577557 -4.1178094 0.00219499 0 0 Z M-0.75 11.1875 C-0.75 15.4775 -0.75 19.7675 -0.75 24.1875 C6.88911191 24.31957656 6.88911191 24.31957656 13.25 21.1875 C13.72693723 17.12621905 13.72693723 17.12621905 12.0859375 13.5390625 C9.58451949 11.69759307 7.63920258 11.6809825 4.5625 11.5 C1.9328125 11.3453125 1.9328125 11.3453125 -0.75 11.1875 Z " fill="#045D8B" transform="translate(650.75,65.8125)"/>
<path d="M0 0 C12.21 0 24.42 0 37 0 C37 3.96 37 7.92 37 12 C29.08 12 21.16 12 13 12 C13 14.64 13 17.28 13 20 C18.61 20 24.22 20 30 20 C30 23.63 30 27.26 30 31 C24.39 31 18.78 31 13 31 C13 34.63 13 38.26 13 42 C21.25 42 29.5 42 38 42 C38 45.63 38 49.26 38 53 C25.46 53 12.92 53 0 53 C0 35.51 0 18.02 0 0 Z " fill="#046190" transform="translate(687,66)"/>
<path d="M0 0 C3.52859853 3.16199089 6.80149789 6.50655405 10 10 C8.71917816 13.84246553 7.22020948 14.42856843 3.78515625 16.26953125 C2 17 2 17 -0.375 16.9375 C-2 16 -2 16 -3 13 C-7.91219466 10.73283323 -13.59585167 9.74558393 -19 10 C-21.41343056 11.05340309 -22.94058545 12.300983 -25 14 C-25.66 14 -26.32 14 -27 14 C-29.11354734 20.34064203 -30.13359624 25.72516642 -27.875 32.25 C-25.47414901 35.77124813 -23.91271318 37.21525364 -20 39 C-15.89735708 39.59482763 -12.09482296 39.68342768 -8 39 C-4.82718148 36.83200792 -4.82718148 36.83200792 -3 34 C-2.34 33.34 -1.68 32.68 -1 32 C2.11346905 32.36666888 4.23640511 33.62749684 6.75 35.4375 C7.36359375 35.86933594 7.9771875 36.30117187 8.609375 36.74609375 C9.29773438 37.36677734 9.29773438 37.36677734 10 38 C10 40 10 40 7.8125 42.375 C-0.2589096 49.90831563 -6.69159174 52.63336904 -17.74609375 52.3515625 C-25.25778436 51.53997528 -31.81546646 48.54624518 -37 43 C-41.97992592 35.53011111 -43.85139399 28.00840904 -42.58984375 19.10546875 C-40.35858901 9.33871894 -35.32324803 4.52788555 -27.1484375 -0.8359375 C-19.65004201 -4.89870451 -7.15645961 -4.79440614 0 0 Z " fill="#035C89" transform="translate(350,68)"/>
<path d="M0 0 C11.88 0 23.76 0 36 0 C36 3.96 36 7.92 36 12 C28.41 12.33 20.82 12.66 13 13 C12.67 15.31 12.34 17.62 12 20 C13.28777344 19.98839844 14.57554687 19.97679688 15.90234375 19.96484375 C17.58072772 19.9554673 19.25911326 19.94636695 20.9375 19.9375 C22.21270508 19.92493164 22.21270508 19.92493164 23.51367188 19.91210938 C24.32255859 19.90888672 25.13144531 19.90566406 25.96484375 19.90234375 C26.7137085 19.89710693 27.46257324 19.89187012 28.23413086 19.88647461 C30 20 30 20 31 21 C31.0979057 22.49738124 31.12974864 23.99942892 31.125 25.5 C31.12886719 26.72203125 31.12886719 26.72203125 31.1328125 27.96875 C31 30 31 30 30 31 C27.14122091 31.23701239 24.30116703 31.42219182 21.4375 31.5625 C20.63119141 31.60568359 19.82488281 31.64886719 18.99414062 31.69335938 C16.99631195 31.79975262 14.9981793 31.90040888 13 32 C13.020625 33.093125 13.04125 34.18625 13.0625 35.3125 C13 39 13 39 12 42 C20.25 42 28.5 42 37 42 C37 45.63 37 49.26 37 53 C24.79 53 12.58 53 0 53 C0 35.51 0 18.02 0 0 Z " fill="#04608F" transform="translate(499,66)"/>
<path d="M0 0 C4.33125 -0.061875 8.6625 -0.12375 13.125 -0.1875 C14.47996582 -0.21481201 15.83493164 -0.24212402 17.23095703 -0.27026367 C18.85300049 -0.28150269 18.85300049 -0.28150269 20.5078125 -0.29296875 C21.60754395 -0.3086792 22.70727539 -0.32438965 23.84033203 -0.34057617 C30.40690244 0.36722523 34.51064645 3.84338097 38.57421875 8.75390625 C40.90832792 12.43092755 41.3736881 15.70258688 41 20 C39.31709064 26.85184525 34.66617584 30.97377453 29 35 C24.04991695 36.88817601 18.18107635 36.05631605 13 36 C13 41.61 13 47.22 13 53 C8.71 53 4.42 53 0 53 C0 35.51 0 18.02 0 0 Z M13 11 C13 15.29 13 19.58 13 24 C19.16309957 24.30951582 19.16309957 24.30951582 25.0625 22.875 C27.29038157 21.09074672 27.29038157 21.09074672 27.5 18 C26.94497207 14.66983244 26.64199907 13.9631128 24 12 C21.26769695 11.42224116 21.26769695 11.42224116 18.3125 11.3125 C15.6828125 11.1578125 15.6828125 11.1578125 13 11 Z " fill="#035A87" transform="translate(591,66)"/>
<path d="M0 0 C4.95 0 9.9 0 15 0 C16.49739583 2.76692708 17.99479167 5.53385417 19.4921875 8.30078125 C21.00722126 11.09586458 21.00722126 11.09586458 23 14 C24.12837409 12.41906946 25.25256518 10.83515284 26.375 9.25 C27.00148438 8.36828125 27.62796875 7.4865625 28.2734375 6.578125 C30.18347385 3.84324106 30.18347385 3.84324106 32 0 C36.62 0 41.24 0 46 0 C44.31048807 4.22377983 42.39169879 8.02344205 40.125 11.9375 C39.78597656 12.53240234 39.44695313 13.12730469 39.09765625 13.74023438 C37.40804757 16.67938256 35.66576551 19.4891661 33.75 22.29296875 C31.81304149 24.79638379 31.81304149 24.79638379 31.875 27.375 C33.24068461 30.56159743 35.10668945 32.96362067 37.23828125 35.68359375 C39.21561839 38.2835071 41.02706807 40.95229191 42.8125 43.6875 C43.39644531 44.57824219 43.98039063 45.46898437 44.58203125 46.38671875 C45.99203985 48.98532964 46.59606434 51.08851568 47 54 C42.04135796 54.49374814 37.78403678 54.4840072 33 53 C28.87304551 49.20664209 26.42604342 43.97403083 24 39 C20.81701761 41.86803466 19.35010646 44.34201781 17.6875 48.25 C16.19140625 50.9140625 16.19140625 50.9140625 14 53 C8.87115944 53.89337622 4.15018436 53.58971577 -1 53 C-0.42480568 51.76700366 0.16065317 50.53879474 0.75 49.3125 C1.23726562 48.28576172 1.23726562 48.28576172 1.734375 47.23828125 C3.23719111 44.58052314 5.07818552 42.37083656 7 40 C8.25730777 38.16479922 9.48677676 36.31021152 10.6875 34.4375 C11.28949219 33.50808594 11.89148438 32.57867187 12.51171875 31.62109375 C14.32752831 28.47668575 14.32752831 28.47668575 15 25 C14.05739822 22.93521991 14.05739822 22.93521991 12.5 20.9375 C9.33333399 16.48345108 6.41005995 11.92016358 3.515625 7.28515625 C2.0626008 4.93030737 2.0626008 4.93030737 0 3 C0 2.01 0 1.02 0 0 Z " fill="#035D8B" transform="translate(539,66)"/>
<path d="M0 0 C1.98 0 3.96 0 6 0 C11.07943998 11.39599284 16.12287478 22.80746584 21.1418457 34.23022461 C21.58488037 35.23835205 22.02791504 36.24647949 22.484375 37.28515625 C22.90783203 38.2508252 23.33128906 39.21649414 23.76757812 40.21142578 C24.57439141 42.03698469 25.39046328 43.85848648 26.21679688 45.67529297 C26.58353516 46.48240723 26.95027344 47.28952148 27.328125 48.12109375 C27.65200195 48.82548584 27.97587891 49.52987793 28.30957031 50.25561523 C29 52 29 52 29 54 C24.38 54 19.76 54 15 54 C14.34 52.02 13.68 50.04 13 48 C6.4 48 -0.2 48 -7 48 C-7.66 49.98 -8.32 51.96 -9 54 C-13.62 54 -18.24 54 -23 54 C-21.11979074 47.69576894 -18.59676488 41.86613579 -15.76391602 35.94433594 C-13.61787219 31.4217327 -11.69010195 26.85202107 -9.875 22.1875 C-7.8650964 17.02850315 -5.65801825 12.05023468 -3.078125 7.1484375 C-1.90627064 4.81322048 -0.94041022 2.43651739 0 0 Z M2 26 C1.30300448 27.45381897 0.61766134 28.91322953 -0.0625 30.375 C-0.44535156 31.18710938 -0.82820313 31.99921875 -1.22265625 32.8359375 C-1.60744141 33.90714844 -1.60744141 33.90714844 -2 35 C-1.67 35.66 -1.34 36.32 -1 37 C1.97 37 4.94 37 8 37 C6.7874262 33.27566618 5.49140021 29.62197194 4 26 C3.34 26 2.68 26 2 26 Z " fill="#045E8B" transform="translate(221,65)"/>
<path d="M0 0 C0.78375 0.04125 1.5675 0.0825 2.375 0.125 C6.95228121 9.61646891 11.29796622 19.10332967 15.05078125 28.953125 C16.26262992 32.07232156 16.26262992 32.07232156 17.84375 34.56640625 C19.80822792 37.84888848 21.16656228 41.25889065 22.5625 44.8125 C22.83513672 45.48861328 23.10777344 46.16472656 23.38867188 46.86132812 C25.375 51.86448543 25.375 51.86448543 25.375 54.125 C21.085 54.125 16.795 54.125 12.375 54.125 C11.715 52.145 11.055 50.165 10.375 48.125 C3.445 48.125 -3.485 48.125 -10.625 48.125 C-11.285 50.105 -11.945 52.085 -12.625 54.125 C-19.06 54.62 -19.06 54.62 -25.625 55.125 C-25.625 51.02277626 -24.97862095 49.10803348 -23.39453125 45.3984375 C-22.92080078 44.28339844 -22.44707031 43.16835937 -21.95898438 42.01953125 C-21.20584961 40.27736328 -21.20584961 40.27736328 -20.4375 38.5 C-19.95474609 37.36175781 -19.47199219 36.22351563 -18.97460938 35.05078125 C-16.40171135 29.03468948 -13.67634763 23.15033628 -10.70336914 17.32275391 C-9.22809029 14.31608417 -8.07690998 11.27446547 -6.9375 8.125 C-4.06611765 0.19362465 -4.06611765 0.19362465 0 0 Z M-0.625 24.125 C-1.945 28.085 -3.265 32.045 -4.625 36.125 C-1.655 36.455 1.315 36.785 4.375 37.125 C3.92303755 35.51902675 3.46317673 33.91527492 3 32.3125 C2.74476563 31.41917969 2.48953125 30.52585937 2.2265625 29.60546875 C1.42233339 26.92032104 1.42233339 26.92032104 -0.625 24.125 Z " fill="#045D8A" transform="translate(409.625,64.875)"/>
<path d="M0 0 C3.37834084 2.4131006 5.94785948 4.6754906 8.625 7.875 C8.31804839 11.02877733 7.64885793 11.85047935 5.375 14.1875 C2.625 15.875 2.625 15.875 0 15.8125 C-2.375 14.875 -2.375 14.875 -3.75 13.3125 C-6.35998162 11.0036701 -9.04426021 11.68646756 -12.375 11.875 C-12.705 13.525 -13.035 15.175 -13.375 16.875 C-11.99828125 17.40287109 -11.99828125 17.40287109 -10.59375 17.94140625 C-2.29739376 21.23395199 5.01779012 24.53632938 10.1875 32.1875 C10.90984935 36.62478884 11.01061179 40.55673414 9.625 44.875 C5.56143923 50.03477716 0.40992607 53.36641729 -6.13671875 54.24609375 C-13.66764055 54.41702255 -19.12846162 53.18864726 -25.375 48.875 C-28 46.3125 -28 46.3125 -29.375 43.875 C-29.375 42.555 -29.375 41.235 -29.375 39.875 C-24.26136364 34.875 -24.26136364 34.875 -20.375 34.875 C-20.065625 35.7721875 -20.065625 35.7721875 -19.75 36.6875 C-17.80023898 39.78939253 -15.76116146 40.57263021 -12.375 41.875 C-8.21605616 42.20394665 -8.21605616 42.20394665 -4.375 40.875 C-4.375 39.225 -4.375 37.575 -4.375 35.875 C-5.54417969 35.28332031 -6.71335937 34.69164062 -7.91796875 34.08203125 C-9.46640293 33.28435304 -11.01456579 32.48614799 -12.5625 31.6875 C-13.33142578 31.30013672 -14.10035156 30.91277344 -14.89257812 30.51367188 C-20.00292254 27.85980203 -24.70506324 25.21487352 -27.375 19.875 C-28.08005475 15.11588043 -28.42436512 10.71656189 -25.98828125 6.44140625 C-19.15470441 -1.63733426 -10.0522229 -3.35074097 0 0 Z " fill="#035C88" transform="translate(758.375,66.125)"/>
<path d="M0 0 C3.37834084 2.4131006 5.94785948 4.6754906 8.625 7.875 C8.32129688 11.06388278 7.67745471 11.82396298 5.3125 14.125 C2.625 15.875 2.625 15.875 -1.375 15.875 C-1.9525 15.215 -2.53 14.555 -3.125 13.875 C-5.69693151 11.58883866 -6.32460215 11.60175776 -9.625 11.625 C-10.8625 11.7075 -12.1 11.79 -13.375 11.875 C-13.705 13.525 -14.035 15.175 -14.375 16.875 C-13.50746094 17.15214844 -12.63992188 17.42929688 -11.74609375 17.71484375 C-2.39503392 20.93299528 5.976608 24.68777406 10.625 33.875 C11.51990934 36.8265333 11.55772458 38.93199324 10.625 41.875 C7.86656854 46.77496131 4.20319236 51.62336893 -1.2734375 53.5390625 C-10.35275272 54.99040285 -17.71879851 54.15215583 -25.375 48.875 C-29.29617465 45.13620556 -29.29617465 45.13620556 -29.5 41.875 C-27.71668122 38.7046555 -25.30417624 37.02704785 -22.375 34.875 C-21.715 34.875 -21.055 34.875 -20.375 34.875 C-20.189375 35.65875 -20.00375 36.4425 -19.8125 37.25 C-18.55511243 40.18488988 -18.55511243 40.18488988 -15.1875 41.25 C-11.24413508 41.89645327 -8.27051341 41.67000274 -4.375 40.875 C-4.375 39.225 -4.375 37.575 -4.375 35.875 C-5.54417969 35.29492188 -6.71335937 34.71484375 -7.91796875 34.1171875 C-9.46650972 33.32883937 -11.01466672 32.53973669 -12.5625 31.75 C-13.71588867 31.18152344 -13.71588867 31.18152344 -14.89257812 30.6015625 C-20.53373025 27.6962481 -24.46715355 24.69069289 -27.375 18.875 C-27.95325746 14.13518474 -27.84760429 10.75502177 -25.5625 6.5 C-24.840625 5.63375 -24.11875 4.7675 -23.375 3.875 C-22.900625 3.2975 -22.42625 2.72 -21.9375 2.125 C-15.94014877 -2.67288098 -6.94275251 -2.31425084 0 0 Z " fill="#045B88" transform="translate(801.375,66.125)"/>
<path d="M0 0 C11.55 0 23.1 0 35 0 C35 3.96 35 7.92 35 12 C27.74 12 20.48 12 13 12 C12.67 15.3 12.34 18.6 12 22 C13.35996094 21.98839844 14.71992187 21.97679688 16.12109375 21.96484375 C17.8932278 21.95546738 19.66536333 21.94636702 21.4375 21.9375 C22.78424805 21.92493164 22.78424805 21.92493164 24.15820312 21.91210938 C25.01220703 21.90888672 25.86621094 21.90566406 26.74609375 21.90234375 C27.93223267 21.89448853 27.93223267 21.89448853 29.14233398 21.88647461 C31 22 31 22 32 23 C32.1245486 24.64230364 32.17568524 26.29052276 32.1875 27.9375 C32.20167969 28.83339844 32.21585938 29.72929688 32.23046875 30.65234375 C32 33 32 33 30 35 C27.08274582 35.14557157 24.28685195 35.18598967 21.375 35.125 C18.61125 35.08375 15.8475 35.0425 13 35 C12.67 40.94 12.34 46.88 12 53 C8.04 53 4.08 53 0 53 C0 35.51 0 18.02 0 0 Z " fill="#025A86" transform="translate(84,66)"/>
<path d="M0 0 C4.29 0 8.58 0 13 0 C13 13.86 13 27.72 13 42 C20.26 42 27.52 42 35 42 C35 45.63 35 49.26 35 53 C30.03377651 53.02465098 25.06758834 53.04283649 20.10131836 53.05493164 C18.41055684 53.0599719 16.71979971 53.06680405 15.02905273 53.07543945 C12.60399293 53.08751857 10.17899056 53.09323123 7.75390625 53.09765625 C6.61327477 53.10539818 6.61327477 53.10539818 5.44960022 53.11329651 C3.6326743 53.11349238 1.81586873 53.06197277 0 53 C-1.64087745 51.35912255 -1.12739755 49.48168938 -1.12939453 47.22070312 C-1.13254669 46.202948 -1.13569885 45.18519287 -1.13894653 44.13659668 C-1.1369223 43.02933228 -1.13489807 41.92206787 -1.1328125 40.78125 C-1.13376923 39.65303833 -1.13472595 38.52482666 -1.13571167 37.36242676 C-1.13639368 34.97159774 -1.13453797 32.58076689 -1.13037109 30.18994141 C-1.12502316 26.51590849 -1.13031543 22.84199783 -1.13671875 19.16796875 C-1.13605797 16.85156223 -1.13477682 14.53515578 -1.1328125 12.21875 C-1.13584885 10.55785339 -1.13584885 10.55785339 -1.13894653 8.86340332 C-1.13579437 7.84564819 -1.13264221 6.82789307 -1.12939453 5.77929688 C-1.12859894 4.87852417 -1.12780334 3.97775146 -1.12698364 3.04968262 C-1 1 -1 1 0 0 Z " fill="#036090" transform="translate(440,66)"/>
<path d="M0 0 C1.98 0 3.96 0 6 0 C6 7.92 6 15.84 6 24 C2 25 2 25 -1 25 C-1.804375 25.061875 -2.60875 25.12375 -3.4375 25.1875 C-6.50861739 24.96278409 -7.73394546 24.0142707 -10 22 C-10.37125 22.515625 -10.7425 23.03125 -11.125 23.5625 C-13 25 -13 25 -16.125 24.625 C-17.548125 24.315625 -17.548125 24.315625 -19 24 C-19.33 24.33 -19.66 24.66 -20 25 C-22.8125 25.3125 -22.8125 25.3125 -26 25 C-28.375 23 -28.375 23 -30 21 C-30.33 21.66 -30.66 22.32 -31 23 C-34.54032822 25.45099646 -37.7999048 25.44211528 -42 25 C-44.75329021 23.20437595 -46.52627461 21.94745078 -48 19 C-48.36846649 14.50470886 -48.56340691 12.05920499 -46.4375 8.0625 C-43.17293819 5.30017847 -41.26777316 4.85283541 -37 5 C-33.27253501 7.46153349 -30.57299278 9.75291949 -29 14 C-29 13.01 -29 12.02 -29 11 C-28.6937566 9.66018514 -28.36548445 8.32488113 -28 7 C-20.74953096 4.66510319 -20.74953096 4.66510319 -17.0625 6.3125 C-15 8 -15 8 -14 9 C-13.92773498 10.85287502 -13.9161878 12.70833878 -13.9375 14.5625 C-13.94652344 15.57441406 -13.95554687 16.58632812 -13.96484375 17.62890625 C-13.97644531 18.41136719 -13.98804688 19.19382813 -14 20 C-13.34 19.67 -12.68 19.34 -12 19 C-12.061875 17.948125 -12.12375 16.89625 -12.1875 15.8125 C-11.9909572 11.81612976 -11.39429484 10.13100094 -9 7 C-6.04335481 5.5216774 -3.25770263 5.93967217 0 6 C0 4.02 0 2.04 0 0 Z M-41 10 C-41.33 10.99 -41.66 11.98 -42 13 C-40.35 13 -38.7 13 -37 13 C-37 12.01 -37 11.02 -37 10 C-38.32 10 -39.64 10 -41 10 Z M-24 10 C-24.66 10.66 -25.32 11.32 -26 12 C-24.02 11.67 -22.04 11.34 -20 11 C-21.89179203 10.3185177 -21.89179203 10.3185177 -24 10 Z M-5 10 C-5.93786082 15.05009595 -5.93786082 15.05009595 -5 20 C-3.35 20 -1.7 20 0 20 C0 17.03 0 14.06 0 11 C-1.65 10.67 -3.3 10.34 -5 10 Z M-42 17 C-41.67 17.99 -41.34 18.98 -41 20 C-37.7 19.67 -34.4 19.34 -31 19 C-31 18.34 -31 17.68 -31 17 C-34.63 17 -38.26 17 -42 17 Z M-25 17 C-25 17.99 -25 18.98 -25 20 C-23.35 20 -21.7 20 -20 20 C-19.67 19.34 -19.34 18.68 -19 18 C-19.33 17.34 -19.66 16.68 -20 16 C-22.21081851 15.89459074 -22.21081851 15.89459074 -25 17 Z " fill="#B3151F" transform="translate(686,132)"/>
<path d="M0 0 C4.29 0 8.58 0 13 0 C13 17.49 13 34.98 13 53 C8.71 53 4.42 53 0 53 C0 35.51 0 18.02 0 0 Z " fill="#045C87" transform="translate(366,66)"/>
<path d="M0 0 C3.96 0 7.92 0 12 0 C12 17.49 12 34.98 12 53 C7.71 53 3.42 53 -1 53 C-1.02464071 45.61271409 -1.0428316 38.22545188 -1.05493164 30.83813477 C-1.05997363 28.32283105 -1.06680703 25.80753028 -1.07543945 23.29223633 C-1.08751094 19.68570225 -1.09322949 16.07920677 -1.09765625 12.47265625 C-1.10281754 11.34038101 -1.10797882 10.20810577 -1.11329651 9.04151917 C-1.11337204 8.00051559 -1.11344757 6.95951202 -1.11352539 5.88696289 C-1.115746 4.96540909 -1.11796661 4.04385529 -1.12025452 3.09437561 C-1 1 -1 1 0 0 Z " fill="#04628D" transform="translate(126,66)"/>
<path d="M0 0 C0.66 0.33 1.32 0.66 2 1 C2 2.010625 2 3.02125 2 4.0625 C2.33374171 6.8512231 2.84337022 7.84402695 4.86328125 9.85546875 C6.56803034 11.17413432 8.28664977 12.4749814 10.015625 13.76171875 C13.32089802 16.24067351 16.46100293 18.83576521 19.5625 21.5625 C20.08690674 21.99723633 20.61131348 22.43197266 21.15161133 22.87988281 C23.94206455 25.35721131 24.9902086 26.96300134 25.953125 30.6015625 C26.01980476 35.43584509 24.69700263 37.07008189 22 41 C21.34 41.66 20.68 42.32 20 43 C19.01 43 18.02 43 17 43 C16.95552734 41.46859375 16.95552734 41.46859375 16.91015625 39.90625 C16.19204601 34.94067377 13.11178029 32.62410553 9.4375 29.5 C8.80432861 28.93756592 8.17115723 28.37513184 7.51879883 27.7956543 C5.69340029 26.17984633 3.85041474 24.58703834 2 23 C0.39563725 21.60439205 -1.20857806 20.20861454 -2.8125 18.8125 C-3.41707031 18.30332031 -4.02164062 17.79414062 -4.64453125 17.26953125 C-6.67266246 15.36998473 -6.98982926 14.07289031 -7.375 11.3125 C-6.87684966 6.91217201 -4.94448516 4.23893367 -2 1 C-1.34 0.67 -0.68 0.34 0 0 Z " fill="#F91305" transform="translate(23,86)"/>
<path d="M0 0 C0.12375 1.0725 0.2475 2.145 0.375 3.25 C1.04370807 7.41654953 1.04370807 7.41654953 3 11 C3.58394531 11.27585937 4.16789062 11.55171875 4.76953125 11.8359375 C7.56341444 13.29404116 9.56507842 15.17168482 11.875 17.3125 C14.72051464 19.92684284 17.5577655 22.50752101 20.5625 24.9375 C23.59067306 27.49980028 23.89881695 28.26280924 24.4375 32.1875 C23.86998994 37.1329448 21.7508131 39.80306345 18 43 C17.34 43 16.68 43 16 43 C15.7834375 41.95585938 15.566875 40.91171875 15.34375 39.8359375 C14.12378759 35.59379547 11.85419574 33.50372985 8.5 30.625 C7.97043701 30.15876221 7.44087402 29.69252441 6.89526367 29.2121582 C4.30329889 26.93552137 1.66438464 24.71892764 -0.98046875 22.50390625 C-1.87378906 21.73949219 -2.76710938 20.97507812 -3.6875 20.1875 C-4.49574219 19.52105469 -5.30398437 18.85460937 -6.13671875 18.16796875 C-8.49626069 15.42258976 -8.84891723 13.58821571 -9 10 C-7.85787596 6.39144859 -4.36880662 0 0 0 Z " fill="#FB1608" transform="translate(44,62)"/>
<path d="M0 0 C2 3 2 3 2.1875 5.3125 C3.44028109 9.45631439 6.58112924 11.50493497 10 14 C10.66 14.33 11.32 14.66 12 15 C12 15.66 12 16.32 12 17 C12.66 17 13.32 17 14 17 C14.598125 17.763125 15.19625 18.52625 15.8125 19.3125 C17.79706277 22.10283138 17.79706277 22.10283138 20.5625 23.375 C24.10553662 25.73702442 24.91477642 27.93041159 26 32 C24.65347047 36.67324953 22.79996231 39.93551427 19 43 C18.34 43 17.68 43 17 43 C16.96003906 41.95457031 16.92007813 40.90914062 16.87890625 39.83203125 C15.79982566 35.12723989 13.67160996 33.39739695 9.9375 30.6875 C7.91737479 29.16266088 5.95383039 27.61198374 4 26 C4 25.34 4 24.68 4 24 C3.46375 23.773125 2.9275 23.54625 2.375 23.3125 C-1.25673618 21.3054879 -5.11417648 18.77164705 -7 15 C-7.65665786 9.41840816 -6.5794364 6.67376793 -3.2890625 2.3828125 C-2 1 -2 1 0 0 Z " fill="#FD1407" transform="translate(33,74)"/>
<path d="M0 0 C4.95366586 0.03216666 8.1487871 0.6487871 11.75 4.25 C12.11075949 10.62341772 12.11075949 10.62341772 10.5625 13.3125 C10.294375 13.951875 10.02625 14.59125 9.75 15.25 C10.70012124 17.27417134 11.69991347 19.27583732 12.75 21.25 C12.42 22.24 12.09 23.23 11.75 24.25 C9.5625 24.1875 9.5625 24.1875 6.75 23.25 C5.26728618 21.53561215 4.06959171 19.76127281 2.86328125 17.84375 C1.82639069 16.08938228 1.82639069 16.08938228 -0.25 15.25 C-0.25 17.89 -0.25 20.53 -0.25 23.25 C-4 24.375 -4 24.375 -6.25 23.25 C-6.27887512 19.60418313 -6.29675585 15.95839537 -6.3125 12.3125 C-6.32087891 11.27158203 -6.32925781 10.23066406 -6.33789062 9.15820312 C-6.34272461 7.67416992 -6.34272461 7.67416992 -6.34765625 6.16015625 C-6.35289307 5.24371338 -6.35812988 4.32727051 -6.36352539 3.38305664 C-6.14227747 -0.77402528 -3.59823771 0.05772574 0 0 Z M-0.25 5.25 C-0.25 7.23 -0.25 9.21 -0.25 11.25 C1.73 10.92 3.71 10.59 5.75 10.25 C5.75 8.93 5.75 7.61 5.75 6.25 C2.78 5.755 2.78 5.755 -0.25 5.25 Z " fill="#B20E18" transform="translate(625.25,132.75)"/>
<path d="M0 0 C1.98 0 3.96 0 6 0 C6 7.92 6 15.84 6 24 C2 25 2 25 -1 25 C-1.94875 25.12375 -2.8975 25.2475 -3.875 25.375 C-7 25 -7 25 -9.875 22.4375 C-12.40878414 18.97193717 -12.62158724 16.27341225 -12 12 C-10.59761203 8.67855481 -9.6648007 7.36564038 -6.5 5.625 C-4 5 -4 5 -1 6 C-0.67 4.02 -0.34 2.04 0 0 Z M-5 10 C-6.20561184 10.98267859 -6.20561184 10.98267859 -6.09765625 12.84765625 C-6.08605469 13.57855469 -6.07445312 14.30945313 -6.0625 15.0625 C-6.041875 16.361875 -6.02125 17.66125 -6 19 C-4.34385343 19.38218767 -2.67542976 19.71395102 -1 20 C0.20561184 19.01732141 0.20561184 19.01732141 0.09765625 17.15234375 C0.08605469 16.42144531 0.07445312 15.69054687 0.0625 14.9375 C0.041875 13.638125 0.02125 12.33875 0 11 C-1.65614657 10.61781233 -3.32457024 10.28604898 -5 10 Z " fill="#C60F1B" transform="translate(806,132)"/>
<path d="M0 0 C2.375 1.5 2.375 1.5 4 4 C4.32393014 7.03031417 4.23342986 9.96541179 4 13 C4.66 13.33 5.32 13.66 6 14 C5.67 15.65 5.34 17.3 5 19 C2.33333333 19 -0.33333333 19 -3 19 C-3.969375 19.0825 -4.93875 19.165 -5.9375 19.25 C-9 19 -9 19 -11.4375 17.4375 C-13 15 -13 15 -12.875 11.375 C-12 8 -12 8 -10 6 C-10.66 5.67 -11.32 5.34 -12 5 C-11.8125 3.125 -11.8125 3.125 -11 1 C-7.14613506 -1.31231897 -4.25293941 -1.26683301 0 0 Z M-6 4 C-6.66 4.66 -7.32 5.32 -8 6 C-6.35 5.67 -4.7 5.34 -3 5 C-3.99 4.67 -4.98 4.34 -6 4 Z M-6 10 C-6.33 11.32 -6.66 12.64 -7 14 C-5.35 13.67 -3.7 13.34 -2 13 C-2 12.01 -2 11.02 -2 10 C-3.32 10 -4.64 10 -6 10 Z " fill="#B91A25" transform="translate(788,138)"/>
<path d="M0 0 C4.29 0 8.58 0 13 0 C13 13.86 13 27.72 13 42 C12.01 42.495 12.01 42.495 11 43 C11 29.47 11 15.94 11 2 C8.03 2 5.06 2 2 2 C2 18.5 2 35 2 52 C1.01 52 0.02 52 -1 52 C-1.02526739 44.75513449 -1.0428318 37.51028026 -1.05493164 30.26538086 C-1.05997356 27.79857967 -1.06680691 25.33178148 -1.07543945 22.86499023 C-1.08751125 19.32795471 -1.09322956 15.79095855 -1.09765625 12.25390625 C-1.10281754 11.14350479 -1.10797882 10.03310333 -1.11329651 8.88905334 C-1.11337204 7.86807053 -1.11344757 6.84708771 -1.11352539 5.79516602 C-1.115746 4.89137711 -1.11796661 3.9875882 -1.12025452 3.05641174 C-1 1 -1 1 0 0 Z " fill="#0B4465" transform="translate(440,66)"/>
<path d="M0 0 C3.23155429 1.29262171 4.75928914 2.31134067 6.8125 5.125 C7.625 8.3125 7.625 8.3125 7.8125 11.125 C6.8125 12.125 6.8125 12.125 4.30859375 12.22265625 C2.79458984 12.20525391 2.79458984 12.20525391 1.25 12.1875 C0.23808594 12.17847656 -0.77382813 12.16945312 -1.81640625 12.16015625 C-2.99009766 12.14275391 -2.99009766 12.14275391 -4.1875 12.125 C-3.8575 12.785 -3.5275 13.445 -3.1875 14.125 C-0.2175 14.125 2.7525 14.125 5.8125 14.125 C5.8125 15.445 5.8125 16.765 5.8125 18.125 C5.1525 18.125 4.4925 18.125 3.8125 18.125 C3.8125 18.785 3.8125 19.445 3.8125 20.125 C-3.01521306 20.94903433 -3.01521306 20.94903433 -6.0546875 18.8125 C-8.85397908 15.81230233 -10.07927255 13.59953575 -11 9.5625 C-10.00369604 5.34736786 -8.52924076 3.73320413 -5.12890625 1.1640625 C-3.1875 0.125 -3.1875 0.125 0 0 Z M-3.1875 5.125 C-3.5175 6.115 -3.8475 7.105 -4.1875 8.125 C-2.5375 8.125 -0.8875 8.125 0.8125 8.125 C0.8125 7.135 0.8125 6.145 0.8125 5.125 C-0.5075 5.125 -1.8275 5.125 -3.1875 5.125 Z " fill="#C11F2C" transform="translate(767.1875,136.875)"/>
<path d="M0 0 C3.76397303 1.22905242 5.48138084 3.05014953 8.0625 6 C8.3925 6.33 8.7225 6.66 9.0625 7 C9.57727138 10.08862825 9.51626456 12.18970614 7.96875 14.953125 C5.32477542 18.41279387 3.85344369 19.83348554 -0.5 20.75 C-4.85854804 19.79904406 -6.33124579 18.60276317 -8.9375 15 C-10.05549235 11.08702676 -10.37237854 9.00708715 -8.75 5.25 C-4.52083333 0 -4.52083333 0 0 0 Z M-2.9375 5 C-4.00296953 8.1964086 -4.01177838 10.65747276 -3.9375 14 C-1.9575 14.99 -1.9575 14.99 0.0625 16 C1.68743901 14.87890434 1.68743901 14.87890434 3.0625 13 C3.31515405 9.90498792 3.46185013 7.79870027 2.0625 5 C0.4125 5 -1.2375 5 -2.9375 5 Z " fill="#C31723" transform="translate(723.9375,137)"/>
<path d="M0 0 C7.59 0 15.18 0 23 0 C23 0.33 23 0.66 23 1 C16.4 1.33 9.8 1.66 3 2 C3 18.5 3 35 3 52 C5.64 52 8.28 52 11 52 C11 46.39 11 40.78 11 35 C11.33 35 11.66 35 12 35 C12 40.94 12 46.88 12 53 C8.04 53 4.08 53 0 53 C0 35.51 0 18.02 0 0 Z " fill="#0E618A" transform="translate(591,66)"/>
<path d="M0 0 C4.29 0 8.58 0 13 0 C13 17.82 13 35.64 13 54 C7 54 7 54 4.125 51.5 C3.42375 50.675 2.7225 49.85 2 49 C2.33 48.34 2.66 47.68 3 47 C3.86625 47.9590625 3.86625 47.9590625 4.75 48.9375 C7.01303649 51.34096628 7.01303649 51.34096628 11 52 C11 35.5 11 19 11 2 C7.7 2 4.4 2 1 2 C1 11.24 1 20.48 1 30 C0.34 29.67 -0.32 29.34 -1 29 C-1.02465881 25.03069011 -1.04284023 21.06140966 -1.05493164 17.09204102 C-1.05997057 15.74079614 -1.06680177 14.38955674 -1.07543945 13.03833008 C-1.08752419 11.09979566 -1.09269828 9.161222 -1.09765625 7.22265625 C-1.10289307 6.05484619 -1.10812988 4.88703613 -1.11352539 3.68383789 C-1 1 -1 1 0 0 Z " fill="#08435E" transform="translate(181,66)"/>
<path d="M0 0 C1.98 0 3.96 0 6 0 C6 5.94 6 11.88 6 18 C8.97 18 11.94 18 15 18 C15.38218767 19.65614657 15.71395102 21.32457024 16 23 C15 24 15 24 11.875 24.1328125 C10.59625 24.13023437 9.3175 24.12765625 8 24.125 C6.72125 24.12757813 5.4425 24.13015625 4.125 24.1328125 C1 24 1 24 0 23 C-0.08713831 21.29227642 -0.10700007 19.58101351 -0.09765625 17.87109375 C-0.09443359 16.83662109 -0.09121094 15.80214844 -0.08789062 14.73632812 C-0.07951172 13.64771484 -0.07113281 12.55910156 -0.0625 11.4375 C-0.05798828 10.34501953 -0.05347656 9.25253906 -0.04882812 8.12695312 C-0.03699826 5.41791505 -0.02051543 2.70898401 0 0 Z " fill="#AB131C" transform="translate(742,133)"/>
<path d="M0 0 C11.22 0 22.44 0 34 0 C30.36693942 2.42204038 28.68180977 2.23302891 24.36328125 2.1953125 C22.60818237 2.18781982 22.60818237 2.18781982 20.81762695 2.18017578 C19.33093506 2.16196777 17.84424316 2.14375977 16.3125 2.125 C11.589375 2.08375 6.86625 2.0425 2 2 C2 18.5 2 35 2 52 C4.64 52 7.28 52 10 52 C10 46.06 10 40.12 10 34 C10.33 34 10.66 34 11 34 C11 40.27 11 46.54 11 53 C7.37 53 3.74 53 0 53 C0 35.51 0 18.02 0 0 Z " fill="#116D9C" transform="translate(84,66)"/>
<path d="M0 0 C1.67542976 0.28604898 3.34385343 0.61781233 5 1 C5 2.32 5 3.64 5 5 C6.32 5.33 7.64 5.66 9 6 C9 7.32 9 8.64 9 10 C7.68 10.33 6.36 10.66 5 11 C5 13.31 5 15.62 5 18 C6.32 18.33 7.64 18.66 9 19 C8.67 20.65 8.34 22.3 8 24 C2.5320197 24.36453202 2.5320197 24.36453202 0.3125 22.84375 C-1.51962482 20.27005085 -1.29770208 18.43489214 -1.1875 15.3125 C-1.16042969 14.31863281 -1.13335938 13.32476562 -1.10546875 12.30078125 C-1.07066406 11.54152344 -1.03585937 10.78226563 -1 10 C-2.32 9.34 -3.64 8.68 -5 8 C-4.67 7.34 -4.34 6.68 -4 6 C-3.01 6 -2.02 6 -1 6 C-1.020625 5.195625 -1.04125 4.39125 -1.0625 3.5625 C-1 1 -1 1 0 0 Z " fill="#9A121B" transform="translate(705,133)"/>
<path d="M0 0 C3.49017143 2.1416961 4.7788908 3.19453077 5.875 7.1875 C5.91625 8.115625 5.9575 9.04375 6 10 C5 11 5 11 2.49609375 11.09765625 C0.98208984 11.08025391 0.98208984 11.08025391 -0.5625 11.0625 C-1.57441406 11.05347656 -2.58632813 11.04445312 -3.62890625 11.03515625 C-4.41136719 11.02355469 -5.19382812 11.01195312 -6 11 C-5.34 12.32 -4.68 13.64 -4 15 C-5.32 14.34 -6.64 13.68 -8 13 C-8 8.66666667 -8 4.33333333 -8 0 C-4.59447761 -1.13517413 -3.3826591 -1.04701353 0 0 Z M-5 4 C-5.33 4.99 -5.66 5.98 -6 7 C-4.35 7 -2.7 7 -1 7 C-1 6.01 -1 5.02 -1 4 C-2.32 4 -3.64 4 -5 4 Z " fill="#C11925" transform="translate(650,138)"/>
<path d="M0 0 C0.9583374 0.00523682 1.9166748 0.01047363 2.90405273 0.01586914 C4.45576172 0.02070312 4.45576172 0.02070312 6.03881836 0.02563477 C7.12743164 0.03401367 8.21604492 0.04239258 9.33764648 0.05102539 C10.97636719 0.05779297 10.97636719 0.05779297 12.64819336 0.06469727 C15.35723144 0.07652713 18.06616248 0.09300996 20.77514648 0.11352539 C20.77514648 0.44352539 20.77514648 0.77352539 20.77514648 1.11352539 C10.38014648 1.60852539 10.38014648 1.60852539 -0.22485352 2.11352539 C-0.22485352 18.61352539 -0.22485352 35.11352539 -0.22485352 52.11352539 C-1.21485352 52.11352539 -2.20485352 52.11352539 -3.22485352 52.11352539 C-3.25012091 44.86865988 -3.26768532 37.62380565 -3.27978516 30.37890625 C-3.28482708 27.91210506 -3.29166042 25.44530687 -3.30029297 22.97851562 C-3.31236476 19.4414801 -3.31808307 15.90448394 -3.32250977 12.36743164 C-3.32767105 11.25703018 -3.33283234 10.14662872 -3.33815002 9.00257874 C-3.33822556 7.98159592 -3.33830109 6.9606131 -3.33837891 5.90869141 C-3.34059952 5.0049025 -3.34282013 4.10111359 -3.34510803 3.16993713 C-3.17589979 0.27639249 -2.89741577 0.14784356 0 0 Z " fill="#084073" transform="translate(640.224853515625,65.886474609375)"/>
<path d="M0 0 C4.33641539 0.04511225 7.48366476 0.09629701 10.75 3.25 C10.75 4.57 10.75 5.89 10.75 7.25 C7.12 6.59 3.49 5.93 -0.25 5.25 C-0.25 7.23 -0.25 9.21 -0.25 11.25 C-0.58 11.25 -0.91 11.25 -1.25 11.25 C-1.25 8.61 -1.25 5.97 -1.25 3.25 C-2.24 3.25 -3.23 3.25 -4.25 3.25 C-4.25 9.52 -4.25 15.79 -4.25 22.25 C-4.91 22.25 -5.57 22.25 -6.25 22.25 C-6.27887814 18.77085059 -6.29675687 15.29173169 -6.3125 11.8125 C-6.32087891 10.81927734 -6.32925781 9.82605469 -6.33789062 8.80273438 C-6.34111328 7.85849609 -6.34433594 6.91425781 -6.34765625 5.94140625 C-6.35289307 5.06685791 -6.35812988 4.19230957 -6.36352539 3.29125977 C-6.13693234 -0.78302949 -3.49782522 0.05611484 0 0 Z " fill="#AE151A" transform="translate(625.25,132.75)"/>
<path d="M0 0 C1.98 0 3.96 0 6 0 C6 7.26 6 14.52 6 22 C5.67 22 5.34 22 5 22 C4.67 20.35 4.34 18.7 4 17 C3.01 17.33 2.02 17.66 1 18 C0.62875 16.329375 0.62875 16.329375 0.25 14.625 C-0.60523984 10.97964288 -0.60523984 10.97964288 -3 9.625 C-3.66 9.41875 -4.32 9.2125 -5 9 C-5.66 8.67 -6.32 8.34 -7 8 C-7 7.34 -7 6.68 -7 6 C-4.69 6 -2.38 6 0 6 C0 4.02 0 2.04 0 0 Z " fill="#BF2129" transform="translate(686,132)"/>
<path d="M0 0 C3.87187551 1.25574341 6.06837517 2.34007927 8 6 C8.6386819 9.19340951 8.51619332 11.09025503 6.8984375 13.94140625 C5.38653985 15.94244725 4.00986942 17.49586779 2 19 C-1.875 19.4375 -1.875 19.4375 -5 19 C-5 18.34 -5 17.68 -5 17 C-3.35 17 -1.7 17 0 17 C-0.33 16.01 -0.66 15.02 -1 14 C-0.34 14 0.32 14 1 14 C1 10.7 1 7.4 1 4 C-0.32 3.67 -1.64 3.34 -3 3 C-2.01 3 -1.02 3 0 3 C0 2.01 0 1.02 0 0 Z " fill="#AF141D" transform="translate(725,138)"/>
<path d="M0 0 C0.66 0 1.32 0 2 0 C2 7.92 2 15.84 2 24 C-2.4429486 25.11073715 -6.44565961 25 -11 25 C-11 24.34 -11 23.68 -11 23 C-9.35 23 -7.7 23 -6 23 C-6 22.34 -6 21.68 -6 21 C-7.98 21.33 -9.96 21.66 -12 22 C-11.67 18.04 -11.34 14.08 -11 10 C-10.34 10.33 -9.68 10.66 -9 11 C-9 13.64 -9 16.28 -9 19 C-7.02 19 -5.04 19 -3 19 C-3 19.99 -3 20.98 -3 22 C-2.01 22 -1.02 22 0 22 C0 14.74 0 7.48 0 0 Z " fill="#760F17" transform="translate(810,132)"/>
<path d="M0 0 C2.64 0 5.28 0 8 0 C8 0.66 8 1.32 8 2 C8.99 2 9.98 2 11 2 C11 2.66 11 3.32 11 4 C7.7 4 4.4 4 1 4 C1.33 4.66 1.66 5.32 2 6 C4.97 6 7.94 6 11 6 C11 7.32 11 8.64 11 10 C10.34 10 9.68 10 9 10 C9 10.66 9 11.32 9 12 C1.89006342 12.7230444 1.89006342 12.7230444 -0.64453125 10.6640625 C-2 9 -2 9 -4 6 C-2.68 6.33 -1.36 6.66 0 7 C0 4.69 0 2.38 0 0 Z " fill="#D2222C" transform="translate(762,145)"/>
<path d="M0 0 C1.81242052 -0.02687279 3.62495233 -0.04633715 5.4375 -0.0625 C6.44683594 -0.07410156 7.45617187 -0.08570312 8.49609375 -0.09765625 C11 0 11 0 12 1 C12.08871273 4.02977804 12.1151935 7.03667022 12.09765625 10.06640625 C12.0962413 10.97502914 12.09482635 11.88365204 12.09336853 12.81980896 C12.08775193 15.73407221 12.07519665 18.64825981 12.0625 21.5625 C12.05748714 23.53320202 12.05292386 25.50390524 12.04882812 27.47460938 C12.03777711 32.31643559 12.02050138 37.15820495 12 42 C11.34 42 10.68 42 10 42 C10 28.8 10 15.6 10 2 C7.36 2 4.72 2 2 2 C1.34 1.34 0.68 0.68 0 0 Z " fill="#0A84C5" transform="translate(289,66)"/>
<path d="M0 0 C1.32 0 2.64 0 4 0 C4 0.66 4 1.32 4 2 C3.34 2 2.68 2 2 2 C2 17.84 2 33.68 2 50 C-0.13363651 46.79954524 -0.24672228 46.01370564 -0.22705078 42.3449707 C-0.22689972 41.40422195 -0.22674866 40.46347321 -0.22659302 39.49421692 C-0.21627045 38.48163315 -0.20594788 37.46904938 -0.1953125 36.42578125 C-0.1924826 35.38681198 -0.18965271 34.34784271 -0.18673706 33.27738953 C-0.17553282 29.95564303 -0.15042764 26.63416515 -0.125 23.3125 C-0.11497052 21.06185285 -0.10584462 18.81120148 -0.09765625 16.56054688 C-0.0755927 11.04027278 -0.04211271 5.52015558 0 0 Z " fill="#0E6C9B" transform="translate(255,65)"/>
<path d="M0 0 C0.66 0.33 1.32 0.66 2 1 C2 2.010625 2 3.02125 2 4.0625 C2.33374171 6.8512231 2.84337022 7.84402695 4.86328125 9.85546875 C6.56658742 11.17301818 8.28390068 12.47257591 10.01171875 13.7578125 C13.34143178 16.25618542 16.50165308 18.87589405 19.625 21.625 C20.15778564 22.06811523 20.69057129 22.51123047 21.23950195 22.96777344 C24.0045362 25.42457287 24.95912836 26.59413511 25.3359375 30.3359375 C25.16964844 31.65464844 25.16964844 31.65464844 25 33 C24.34 32.01 23.68 31.02 23 30 C18.94025843 24.37881937 13.75194613 19.83463076 8 16 C8 15.34 8 14.68 8 14 C7.278125 13.79375 6.55625 13.5875 5.8125 13.375 C2.0744694 11.54751837 0.50753083 9.29561194 -2 6 C-2.99 6.66 -3.98 7.32 -5 8 C-4.45773019 4.20411134 -2.79872437 2.52788007 0 0 Z " fill="#F01B12" transform="translate(23,86)"/>
<path d="M0 0 C2.34464192 1.98784858 4.67659961 3.98747712 7 6 C7.8765625 6.75796875 8.753125 7.5159375 9.65625 8.296875 C10.5534375 9.08578125 11.450625 9.8746875 12.375 10.6875 C13.22835937 11.43386719 14.08171875 12.18023437 14.9609375 12.94921875 C17 15 17 15 18 18 C21.44216672 15.3401439 21.99504674 12.09711714 23 8 C24.1875 9.5625 24.1875 9.5625 25 12 C23.52105915 16.60114932 21.78653117 19.94634583 18 23 C17.34 23 16.68 23 16 23 C15.96003906 21.95457031 15.92007813 20.90914062 15.87890625 19.83203125 C14.79982566 15.12723989 12.67160996 13.39739695 8.9375 10.6875 C6.91737479 9.16266088 4.95383039 7.61198374 3 6 C3 5.34 3 4.68 3 4 C1.68 3.34 0.36 2.68 -1 2 C-0.67 1.34 -0.34 0.68 0 0 Z " fill="#E4291E" transform="translate(34,94)"/>
<path d="M0 0 C0.33 0.66 0.66 1.32 1 2 C9.25 2 17.5 2 26 2 C26 5.63 26 9.26 26 13 C14.12 13 2.24 13 -10 13 C-10 12.67 -10 12.34 -10 12 C1.22 12 12.44 12 24 12 C23.505 8.04 23.505 8.04 23 4 C15.41 3.67 7.82 3.34 0 3 C0 2.01 0 1.02 0 0 Z " fill="#1A719F" transform="translate(699,106)"/>
<path d="M0 0 C4.33685053 0.46577154 6.81829243 3.30422397 9.8125 6.1875 C10.87972482 7.1867146 11.94743074 8.18541559 13.015625 9.18359375 C14.01073228 10.12206128 15.00555055 11.06083543 16 12 C18.28589387 14.14602274 20.50609479 16.08977473 23 18 C23.99 17.67 24.98 17.34 26 17 C24.92598892 19.91517292 24.22189824 21.77810176 22 24 C21.01 24 20.02 24 19 24 C18.97550781 22.98292969 18.95101562 21.96585938 18.92578125 20.91796875 C18.19987423 15.86713059 14.92135237 13.47595482 11.1875 10.3125 C9.93061799 9.2048486 8.67409829 8.09678591 7.41796875 6.98828125 C6.82677246 6.47604004 6.23557617 5.96379883 5.62646484 5.43603516 C3.66563683 3.70478473 1.81695825 1.88103235 0 0 Z " fill="#EA2115" transform="translate(21,105)"/>
<path d="M0 0 C0.33 0 0.66 0 1 0 C1 4.29 1 8.58 1 13 C2.32 12.34 3.64 11.68 5 11 C7.578125 10.8046875 7.578125 10.8046875 10.25 10.875 C11.14203125 10.89304688 12.0340625 10.91109375 12.953125 10.9296875 C13.96632813 10.96449219 13.96632813 10.96449219 15 11 C14.67 12.65 14.34 14.3 14 16 C9.38 16 4.76 16 0 16 C-0.84387528 11.78062361 -1.01075849 9.32143942 -0.5625 5.1875 C-0.40974609 3.72376953 -0.40974609 3.72376953 -0.25390625 2.23046875 C-0.12822266 1.12638672 -0.12822266 1.12638672 0 0 Z " fill="#93171D" transform="translate(743,141)"/>
<path d="M0 0 C0.99 0 1.98 0 3 0 C3.70132913 6.70019789 4.11044961 13.26257354 4 20 C2.125 20.625 2.125 20.625 0 21 C-0.66 20.34 -1.32 19.68 -2 19 C-1.34 19 -0.68 19 0 19 C0 12.73 0 6.46 0 0 Z " fill="#C10814" transform="translate(621,136)"/>
<path d="M0 0 C2.60334924 2.71182212 2.99456691 3.89133813 3.1875 7.75 C3.125625 8.8225 3.06375 9.895 3 11 C4.32 11.33 5.64 11.66 7 12 C6.67 13.65 6.34 15.3 6 17 C4.02 17 2.04 17 0 17 C-0.33 16.34 -0.66 15.68 -1 15 C0.98 15 2.96 15 5 15 C5 14.34 5 13.68 5 13 C3.02 13.33 1.04 13.66 -1 14 C-1.02685938 11.85423363 -1.04633088 9.70837355 -1.0625 7.5625 C-1.07410156 6.36753906 -1.08570313 5.17257813 -1.09765625 3.94140625 C-1 1 -1 1 0 0 Z " fill="#A10B13" transform="translate(707,140)"/>
<path d="M0 0 C3.56514876 1.53613553 6.03870356 3.6838452 8.875 6.3125 C11.7049043 8.92086083 14.5206004 11.45558021 17.5625 13.8125 C19.9514906 15.95646593 20.76632866 16.84543686 21 20 C20.34 20 19.68 20 19 20 C17.65870369 18.38356598 16.31927133 16.76555582 14.98828125 15.140625 C11.80263111 11.71088772 8.09380996 8.96149591 4.390625 6.11328125 C2.13854718 4.1224739 1.07342658 2.76469753 0 0 Z " fill="#E02115" transform="translate(47,73)"/>
<path d="M0 0 C4.29 0 8.58 0 13 0 C12.01 0.33 11.02 0.66 10 1 C10 1.66 10 2.32 10 3 C8.35 3 6.7 3 5 3 C5 4.98 5 6.96 5 9 C4.67 9 4.34 9 4 9 C4 6.36 4 3.72 4 1 C3.01 1 2.02 1 1 1 C1 7.27 1 13.54 1 20 C0.34 19.67 -0.32 19.34 -1 19 C-0.67 12.73 -0.34 6.46 0 0 Z " fill="#C91B25" transform="translate(620,135)"/>
<path d="M0 0 C7.26 0 14.52 0 22 0 C22.66 1.65 23.32 3.3 24 5 C23.01 4.67 22.02 4.34 21 4 C21 3.34 21 2.68 21 2 C14.4 2 7.8 2 1 2 C0.67 1.34 0.34 0.68 0 0 Z " fill="#0F6C9A" transform="translate(213,111)"/>
<path d="M0 0 C0.33 1.32 0.66 2.64 1 4 C-0.32 4 -1.64 4 -3 4 C-5.35949043 7.6867038 -5.66740738 10.69893022 -5 15 C-2.91899784 17.37161593 -0.58323738 19.20095968 2 21 C1.34 21.66 0.68 22.32 0 23 C-6.49966561 17.26400268 -6.49966561 17.26400268 -8.1875 13 C-7.93163566 8.90617056 -6.48192638 6.22243557 -4 3 C-1.75 1.0625 -1.75 1.0625 0 0 Z " fill="#DA2119" transform="translate(43,62)"/>
<path d="M0 0 C1.32 0 2.64 0 4 0 C5.09506492 3.28519475 5.09960608 5.73663415 5.0625 9.1875 C5.05347656 10.27417969 5.04445313 11.36085937 5.03515625 12.48046875 C5.02355469 13.31191406 5.01195312 14.14335937 5 15 C6.98 14.67 8.96 14.34 11 14 C11 14.66 11 15.32 11 16 C8.66705225 16.04241723 6.33297433 16.04092937 4 16 C3 15 3 15 2.90234375 12.49609375 C2.91394531 11.48675781 2.92554688 10.47742188 2.9375 9.4375 C2.94652344 8.42558594 2.95554687 7.41367188 2.96484375 6.37109375 C2.97644531 5.58863281 2.98804688 4.80617187 3 4 C1.68 3.34 0.36 2.68 -1 2 C-0.67 1.34 -0.34 0.68 0 0 Z " fill="#C31A22" transform="translate(701,139)"/>
<path d="M0 0 C0.33 0.66 0.66 1.32 1 2 C4.465 1.505 4.465 1.505 8 1 C7.67 2.32 7.34 3.64 7 5 C8.32 5.33 9.64 5.66 11 6 C7.7 6 4.4 6 1 6 C1.66 7.32 2.32 8.64 3 10 C1.68 9.34 0.36 8.68 -1 8 C-1.125 2.25 -1.125 2.25 0 0 Z " fill="#CD1F2C" transform="translate(643,143)"/>
<path d="M0 0 C1.91015625 0.23046875 1.91015625 0.23046875 3.91015625 2.23046875 C3.58015625 3.22046875 3.25015625 4.21046875 2.91015625 5.23046875 C0.60015625 4.57046875 -1.70984375 3.91046875 -4.08984375 3.23046875 C-4.41984375 8.84046875 -4.74984375 14.45046875 -5.08984375 20.23046875 C-5.41984375 20.23046875 -5.74984375 20.23046875 -6.08984375 20.23046875 C-6.28579051 17.08510107 -6.47018385 13.93916261 -6.65234375 10.79296875 C-6.70841797 9.89513672 -6.76449219 8.99730469 -6.82226562 8.07226562 C-6.87060547 7.21826172 -6.91894531 6.36425781 -6.96875 5.484375 C-7.01588135 4.69361572 -7.0630127 3.90285645 -7.11157227 3.08813477 C-7.06162722 -1.18188585 -3.43142229 0.06850389 0 0 Z " fill="#0D4B6A" transform="translate(655.08984375,98.76953125)"/>
<path d="M0 0 C1.32 0.33 2.64 0.66 4 1 C4.06058594 1.75925781 4.12117187 2.51851562 4.18359375 3.30078125 C4.26738281 4.29464844 4.35117187 5.28851563 4.4375 6.3125 C4.51871094 7.29863281 4.59992187 8.28476563 4.68359375 9.30078125 C4.91812559 12.09375599 4.91812559 12.09375599 6 15 C5.01 15 4.02 15 3 15 C1.1875 12.875 1.1875 12.875 0 10 C0.8125 6.6875 0.8125 6.6875 2 4 C0.68 3.67 -0.64 3.34 -2 3 C-1.34 3 -0.68 3 0 3 C0 2.01 0 1.02 0 0 Z " fill="#B70E16" transform="translate(666,140)"/>
<path d="M0 0 C0.66 0.33 1.32 0.66 2 1 C2.103125 2.0725 2.20625 3.145 2.3125 4.25 C3.12987756 8.70842306 4.60270425 10.12536513 8 13 C5.29068581 12.84518205 3.53415961 12.51827919 1.5546875 10.59765625 C0.32320358 9.10228292 -0.8429837 7.5537076 -2 6 C-2.99 6.66 -3.98 7.32 -5 8 C-4.45773019 4.20411134 -2.79872437 2.52788007 0 0 Z " fill="#F2251C" transform="translate(23,86)"/>
<path d="M0 0 C2 3 2 3 2.1875 5.3125 C3.44028109 9.45631439 6.58112924 11.50493497 10 14 C10.66 14.33 11.32 14.66 12 15 C12 15.66 12 16.32 12 17 C12.66 17 13.32 17 14 17 C14.33 17.99 14.66 18.98 15 20 C10.36986973 18.7372372 7.84461125 16.12140277 4.65234375 12.7265625 C2.94209211 10.86331611 2.94209211 10.86331611 0.5 9 C-1 7 -1 7 -0.75 3.25 C-0.5025 2.1775 -0.255 1.105 0 0 Z " fill="#E61C13" transform="translate(33,74)"/>
<path d="M0 0 C0.66 0 1.32 0 2 0 C2.02689216 1.47906892 2.04634621 2.95827483 2.0625 4.4375 C2.07410156 5.26121094 2.08570313 6.08492188 2.09765625 6.93359375 C2 9 2 9 1 10 C-0.34267413 10.08631874 -1.68974322 10.10706473 -3.03515625 10.09765625 C-3.84404297 10.09443359 -4.65292969 10.09121094 -5.48632812 10.08789062 C-6.33646484 10.07951172 -7.18660156 10.07113281 -8.0625 10.0625 C-8.91650391 10.05798828 -9.77050781 10.05347656 -10.65039062 10.04882812 C-12.76695663 10.03700373 -14.88348685 10.01906769 -17 10 C-17 9.67 -17 9.34 -17 9 C-11.72 9 -6.44 9 -1 9 C-1 6.36 -1 3.72 -1 1 C-0.67 0.67 -0.34 0.34 0 0 Z " fill="#073E5A" transform="translate(528,87)"/>
<path d="M0 0 C6.33333333 6.33333333 12.66666667 12.66666667 19 19 C14.06457131 19 11.41293521 15.3131053 8 12 C0.80270265 4.58251764 0.80270265 4.58251764 0 0 Z " fill="#0E6C94" transform="translate(156,69)"/>
<path d="M0 0 C0.33 0 0.66 0 1 0 C1 2.97 1 5.94 1 9 C1.66 9.33 2.32 9.66 3 10 C2.67 11.65 2.34 13.3 2 15 C-0.375 15.1875 -0.375 15.1875 -3 15 C-3.66 14.01 -4.32 13.02 -5 12 C-3.68 12 -2.36 12 -1 12 C-1.020625 10.7625 -1.04125 9.525 -1.0625 8.25 C-1.06766681 5.3359175 -0.93015558 2.79046673 0 0 Z " fill="#7E1016" transform="translate(791,142)"/>
<path d="M0 0 C0.66 0.33 1.32 0.66 2 1 C1.67 1.33 1.34 1.66 1 2 C0.53668563 7.87646031 0.53668563 7.87646031 3 13 C0.50638429 11.79618552 -1.68143083 10.54571278 -4 9 C-4.1875 5.375 -4.1875 5.375 -4 2 C-2.125 0.9375 -2.125 0.9375 0 0 Z " fill="#B90F19" transform="translate(761,141)"/>
<path d="M0 0 C0.99 0 1.98 0 3 0 C5.02350324 3.03525486 5.32124018 4.19426202 5.625 7.6875 C5.69976563 8.49574219 5.77453125 9.30398437 5.8515625 10.13671875 C5.92503906 11.05904297 5.92503906 11.05904297 6 12 C4.68 12.33 3.36 12.66 2 13 C2 11 2 9 2 7 C1.34 7 0.68 7 0 7 C0 4.69 0 2.38 0 0 Z " fill="#9D1218" transform="translate(686,144)"/>
<path d="M0 0 C0.5775 0.37125 1.155 0.7425 1.75 1.125 C0.5625 2.625 0.5625 2.625 -1.25 4.125 C-3.9375 4.3125 -3.9375 4.3125 -6.25 4.125 C-6.58 7.095 -6.91 10.065 -7.25 13.125 C-7.91 13.125 -8.57 13.125 -9.25 13.125 C-9.54254918 8.15166392 -9.41504232 5.0813029 -6.25 1.125 C-3.71884869 -0.75295097 -2.97788109 -1.15806487 0 0 Z " fill="#B9161E" transform="translate(803.25,137.875)"/>
<path d="M0 0 C-0.33 0.99 -0.66 1.98 -1 3 C-1.66 3 -2.32 3 -3 3 C-3 3.66 -3 4.32 -3 5 C-5.64 5 -8.28 5 -11 5 C-11.33 4.34 -11.66 3.68 -12 3 C-10.35 2.67 -8.7 2.34 -7 2 C-7.66 1.34 -8.32 0.68 -9 0 C-5.62182575 -0.84454356 -3.32534757 -1.10844919 0 0 Z " fill="#891920" transform="translate(774,152)"/>
<path d="M0 0 C4.29718953 1.38914475 6.70687757 3.38031985 9.8125 6.625 C10.99779297 7.85089844 10.99779297 7.85089844 12.20703125 9.1015625 C12.79871094 9.72804688 13.39039063 10.35453125 14 11 C13.67 11.99 13.34 12.98 13 14 C12.01 14 11.02 14 10 14 C9.6596875 12.63875 9.6596875 12.63875 9.3125 11.25 C7.3862782 6.48030793 4.16702555 4.77801703 0 2 C0 1.34 0 0.68 0 0 Z " fill="#0C5B80" transform="translate(346,67)"/>
<path d="M0 0 C0.99 0 1.98 0 3 0 C3.05386629 2.12472576 3.09273071 4.24983652 3.125 6.375 C3.14820313 7.55835938 3.17140625 8.74171875 3.1953125 9.9609375 C3 13 3 13 1 15 C-0.32286246 10.03926578 -0.08893197 5.08888488 0 0 Z " fill="#C40B17" transform="translate(688,134)"/>
<path d="M0 0 C0.33 1.32 0.66 2.64 1 4 C2.65 4 4.3 4 6 4 C5.67 4.66 5.34 5.32 5 6 C4.030625 5.814375 3.06125 5.62875 2.0625 5.4375 C1.051875 5.293125 0.04125 5.14875 -1 5 C-1.33 5.33 -1.66 5.66 -2 6 C-3.99958364 6.04080783 -6.00045254 6.04254356 -8 6 C-8 5.34 -8 4.68 -8 4 C-6.35 4 -4.7 4 -3 4 C-3.33 3.01 -3.66 2.02 -4 1 C-2 0 -2 0 0 0 Z " fill="#85171E" transform="translate(668,151)"/>
<path d="M0 0 C-5.72455159 3.81636773 -11.29749495 3.29282789 -18 3 C-18.33 2.34 -18.66 1.68 -19 1 C-16.20910735 0.63843896 -13.41759278 0.28545167 -10.625 -0.0625 C-9.43390625 -0.2181543 -9.43390625 -0.2181543 -8.21875 -0.37695312 C-2.2265625 -1.11328125 -2.2265625 -1.11328125 0 0 Z " fill="#146089" transform="translate(761,117)"/>
<path d="M0 0 C3.96 0 7.92 0 12 0 C12 0.66 12 1.32 12 2 C11.38511719 2.03738281 10.77023437 2.07476562 10.13671875 2.11328125 C8.92435547 2.21189453 8.92435547 2.21189453 7.6875 2.3125 C6.88699219 2.37050781 6.08648438 2.42851563 5.26171875 2.48828125 C2.61257517 3.0876557 1.79526159 4.03626811 0 6 C-0.66 6 -1.32 6 -2 6 C-1.34 4.02 -0.68 2.04 0 0 Z " fill="#0B6697" transform="translate(571,66)"/>
<path d="M0 0 C1.65 0.33 3.3 0.66 5 1 C5.33 2.98 5.66 4.96 6 7 C3.50907189 8.24546405 2.58919267 7.7767578 0 7 C-1.125 2.25 -1.125 2.25 0 0 Z " fill="#B60C1A" transform="translate(650,141)"/>
<path d="M0 0 C4.66666667 4 9.33333333 8 14 12 C13.34 12.66 12.68 13.32 12 14 C10.49410612 12.71520959 8.99542625 11.42195918 7.5 10.125 C6.6646875 9.40570313 5.829375 8.68640625 4.96875 7.9453125 C4.3190625 7.30335937 3.669375 6.66140625 3 6 C3 5.34 3 4.68 3 4 C1.68 3.34 0.36 2.68 -1 2 C-0.67 1.34 -0.34 0.68 0 0 Z " fill="#D01D14" transform="translate(34,94)"/>
<path d="M0 0 C3.63 0 7.26 0 11 0 C10.67 0.99 10.34 1.98 10 3 C6.04 3 2.08 3 -2 3 C-1.34 2.67 -0.68 2.34 0 2 C0 1.34 0 0.68 0 0 Z " fill="#114F6F" transform="translate(651,89)"/>
<path d="M0 0 C0.33 0.99 0.66 1.98 1 3 C0.67 3.66 0.34 4.32 0 5 C-0.39803635 9.97083124 -0.39803635 9.97083124 1.5 14.4375 C1.995 14.953125 2.49 15.46875 3 16 C0 16 0 16 -1.6875 14.4375 C-3.49654786 11.07783968 -3.39679492 8.76955173 -3 5 C-1.5 2.0625 -1.5 2.0625 0 0 Z " fill="#E4231B" transform="translate(29,77)"/>
<path d="M0 0 C2.31 0 4.62 0 7 0 C7 1.65 7 3.3 7 5 C4.69 4.67 2.38 4.34 0 4 C0 2.68 0 1.36 0 0 Z " fill="#C62530" transform="translate(661,144)"/>
<path d="M0 0 C2.4375 1.1875 2.4375 1.1875 5 3 C5.8125 5.6875 5.8125 5.6875 6 8 C5.01 8 4.02 8 3 8 C3 7.34 3 6.68 3 6 C2.34 5.67 1.68 5.34 1 5 C-0.0194119 4.01979625 -1.02246356 3.02196992 -2 2 C-1.34 2 -0.68 2 0 2 C0 1.34 0 0.68 0 0 Z " fill="#B70E18" transform="translate(767,139)"/>
<path d="M0 0 C0 1.32 0 2.64 0 4 C-1.98 4.99 -3.96 5.98 -6 7 C-6 5.02 -6 3.04 -6 1 C-4 0 -4 0 0 0 Z " fill="#CF1F2D" transform="translate(725,137)"/>
<path d="M0 0 C0 0.99 0 1.98 0 3 C0.66 3.33 1.32 3.66 2 4 C1 5 1 5 -2.0625 5.0625 C-3.031875 5.041875 -4.00125 5.02125 -5 5 C-5.33 3.68 -5.66 2.36 -6 1 C-3.92446352 0.4465236 -2.15634036 0 0 0 Z " fill="#8A0C14" transform="translate(784,152)"/>
<path d="M0 0 C0.99 0.33 1.98 0.66 3 1 C3 1.66 3 2.32 3 3 C4.32 3.33 5.64 3.66 7 4 C7 4.66 7 5.32 7 6 C4.625 6.125 4.625 6.125 2 6 C1.34 5.34 0.68 4.68 0 4 C0 2.68 0 1.36 0 0 Z " fill="#C5101C" transform="translate(658,149)"/>
<path d="M0 0 C2.97 0.33 5.94 0.66 9 1 C9 1.66 9 2.32 9 3 C5.7 3 2.4 3 -1 3 C-0.67 2.01 -0.34 1.02 0 0 Z " fill="#D33642" transform="translate(764,146)"/>
<path d="M0 0 C0.66 0 1.32 0 2 0 C2 3.96 2 7.92 2 12 C1.34 12 0.68 12 0 12 C-0.19573608 10.56359829 -0.38127816 9.12580496 -0.5625 7.6875 C-0.66691406 6.88699219 -0.77132812 6.08648437 -0.87890625 5.26171875 C-1 3 -1 3 0 0 Z " fill="#C20411" transform="translate(788,142)"/>
<path d="M0 0 C2.97 0.495 2.97 0.495 6 1 C6 2.32 6 3.64 6 5 C4.02 5 2.04 5 0 5 C0 3.35 0 1.7 0 0 Z " fill="#C11F2B" transform="translate(708,138)"/>
<path d="M0 0 C1.98 0 3.96 0 6 0 C5.67 2.31 5.34 4.62 5 7 C1.18461538 4.53846154 1.18461538 4.53846154 0.25 1.8125 C0.1675 1.214375 0.085 0.61625 0 0 Z " fill="#C3131F" transform="translate(631,139)"/>
<path d="M0 0 C1.65 0 3.3 0 5 0 C4.67 1.65 4.34 3.3 4 5 C2.02 5 0.04 5 -2 5 C-2.33 4.34 -2.66 3.68 -3 3 C-1.02 3 0.96 3 3 3 C3 2.34 3 1.68 3 1 C2.01 0.67 1.02 0.34 0 0 Z " fill="#82191E" transform="translate(709,152)"/>
<path d="M0 0 C0 0.99 0 1.98 0 3 C-1.32 3.33 -2.64 3.66 -4 4 C-4 3.34 -4 2.68 -4 2 C-5.65 1.67 -7.3 1.34 -9 1 C-9 0.67 -9 0.34 -9 0 C-5.62182575 -0.84454356 -3.32534757 -1.10844919 0 0 Z " fill="#AF1E29" transform="translate(655,152)"/>
<path d="M0 0 C0.33 0 0.66 0 1 0 C2 7.625 2 7.625 2 11 C0.68 10.34 -0.64 9.68 -2 9 C-1.67 8.67 -1.34 8.34 -1 8 C-1 6.845 -1 5.69 -1 4.5 C-1 1 -1 1 0 0 Z " fill="#851217" transform="translate(675,143)"/>
<path d="M0 0 C0.66 0 1.32 0 2 0 C2.33 0.99 2.66 1.98 3 3 C5.97 3.33 8.94 3.66 12 4 C12 4.33 12 4.66 12 5 C7.71 5 3.42 5 -1 5 C-0.67 3.35 -0.34 1.7 0 0 Z " fill="#12729B" transform="translate(403,99)"/>
<path d="M0 0 C0.33 0 0.66 0 1 0 C1 2.64 1 5.28 1 8 C-0.32 8.33 -1.64 8.66 -3 9 C-2.30058404 5.85262818 -1.23921302 2.97411124 0 0 Z " fill="#CD1D26" transform="translate(787,146)"/>
<path d="M0 0 C1.32 0 2.64 0 4 0 C3.67 1.32 3.34 2.64 3 4 C2.01 4 1.02 4 0 4 C0 6.31 0 8.62 0 11 C-0.33 11 -0.66 11 -1 11 C-1.125 3.375 -1.125 3.375 0 0 Z " fill="#D31D28" transform="translate(625,144)"/>
<path d="M0 0 C1.32 0.33 2.64 0.66 4 1 C4 3 4 3 1.625 5.5625 C-1 8 -1 8 -3 9 C-2.37106494 6.06496971 -1.37599935 3.66026541 0 1 C0 0.67 0 0.34 0 0 Z " fill="#0B5579" transform="translate(356,105)"/>
<path d="M0 0 C1.17539996 0.92652701 2.34010577 1.86663387 3.5 2.8125 C4.1496875 3.33457031 4.799375 3.85664062 5.46875 4.39453125 C7 6 7 6 7 9 C5.82460004 8.07347299 4.65989423 7.13336613 3.5 6.1875 C2.52546875 5.40439453 2.52546875 5.40439453 1.53125 4.60546875 C0 3 0 3 0 0 Z " fill="#085B79" transform="translate(277,84)"/>
<path d="M0 0 C0.33 0 0.66 0 1 0 C1 5.28 1 10.56 1 16 C-0.32 16 -1.64 16 -3 16 C-2.34 15.34 -1.68 14.68 -1 14 C-0.69940057 11.63490639 -0.50484988 9.25558119 -0.375 6.875 C-0.30023438 5.59367187 -0.22546875 4.31234375 -0.1484375 2.9921875 C-0.09945313 2.00476563 -0.05046875 1.01734375 0 0 Z " fill="#0A6795" transform="translate(289,80)"/>
<path d="M0 0 C2 3 2 3 2.4375 5.4375 C3.06519273 8.29698912 4.12058431 9.7937294 6 12 C2.34683329 10.75023244 1.21934164 10.32901247 -1 7 C-0.625 3.3125 -0.625 3.3125 0 0 Z " fill="#D41B13" transform="translate(33,74)"/>
<path d="M0 0 C0.66 0.33 1.32 0.66 2 1 C1.67 2.32 1.34 3.64 1 5 C-2.96 4.67 -6.92 4.34 -11 4 C-11 3.67 -11 3.34 -11 3 C-7.7 3 -4.4 3 -1 3 C-0.67 2.01 -0.34 1.02 0 0 Z " fill="#0F7AA2" transform="translate(584,115)"/>
<path d="M0 0 C1.7074998 1.28062485 3.37373596 2.61767557 5 4 C5 4.66 5 5.32 5 6 C6.32 6.66 7.64 7.32 9 8 C8.34 8.66 7.68 9.32 7 10 C5.82739389 8.71372289 4.6620717 7.42080217 3.5 6.125 C2.8503125 5.40570313 2.200625 4.68640625 1.53125 3.9453125 C0 2 0 2 0 0 Z " fill="#0B5381" transform="translate(275,97)"/>
<path d="M0 0 C1.32 0.99 2.64 1.98 4 3 C3.6875 4.9375 3.6875 4.9375 3 7 C2.01 7.33 1.02 7.66 0 8 C0 5.33333333 0 2.66666667 0 0 Z " fill="#0B587E" transform="translate(763,71)"/>
<path d="M0 0 C0.99 0 1.98 0 3 0 C3 1.98 3 3.96 3 6 C2.01 6.33 1.02 6.66 0 7 C0 4.69 0 2.38 0 0 Z " fill="#87151C" transform="translate(730,144)"/>
<path d="M0 0 C1.60080151 4.00200378 0.29279692 7.04556236 -1 11 C-1.33 11 -1.66 11 -2 11 C-2.25 3.375 -2.25 3.375 0 0 Z " fill="#B5141D" transform="translate(640,140)"/>
<path d="M0 0 C0 0.66 0 1.32 0 2 C-4.38461538 5 -4.38461538 5 -7 5 C-7.33 5.66 -7.66 6.32 -8 7 C-7.62005832 4.24542282 -7.1926367 3.17979426 -5.125 1.25 C-3 0 -3 0 0 0 Z " fill="#084764" transform="translate(330,77)"/>
<path d="M0 0 C0.391875 0.474375 0.78375 0.94875 1.1875 1.4375 C3.40808374 3.35179633 5.13375709 3.61266988 8 4 C8 4.66 8 5.32 8 6 C3.50347222 6.36458333 3.50347222 6.36458333 1.1875 4.6875 C0 3 0 3 0 0 Z " fill="#D10F1B" transform="translate(717,149)"/>
<path d="M0 0 C0.33 0 0.66 0 1 0 C1.33 2.97 1.66 5.94 2 9 C0.68 9.33 -0.64 9.66 -2 10 C-2.66 9.34 -3.32 8.68 -4 8 C-2.68 7.67 -1.36 7.34 0 7 C0 4.69 0 2.38 0 0 Z " fill="#941118" transform="translate(623,147)"/>
<path d="M0 0 C0.99 0.33 1.98 0.66 3 1 C2.979375 1.94875 2.95875 2.8975 2.9375 3.875 C2.77448174 6.90666283 2.77448174 6.90666283 4 9 C3.01 8.67 2.02 8.34 1 8 C-0.35439668 5.29120665 -0.06501451 2.99066732 0 0 Z " fill="#AB1922" transform="translate(718,144)"/>
<path d="M0 0 C1.65 0 3.3 0 5 0 C5 0.66 5 1.32 5 2 C6.32 2.33 7.64 2.66 9 3 C6.03 3 3.06 3 0 3 C0 2.01 0 1.02 0 0 Z " fill="#D1333F" transform="translate(645,146)"/>
<path d="M0 0 C0.66 0 1.32 0 2 0 C2.9765625 6.0546875 2.9765625 6.0546875 3 8 C2.34 8.66 1.68 9.32 1 10 C0.67 6.7 0.34 3.4 0 0 Z " fill="#0D4666" transform="translate(766,98)"/>
<path d="M0 0 C3.25543229 0.34879632 4.01873107 1.02133261 6.25 3.5625 C6.8275 4.366875 7.405 5.17125 8 6 C5 6 5 6 3.61328125 4.6875 C2.40885417 3.125 1.20442708 1.5625 0 0 Z " fill="#D31C13" transform="translate(48,88)"/>
<path d="M0 0 C0.99 0 1.98 0 3 0 C2.34 2.31 1.68 4.62 1 7 C0.01 7 -0.98 7 -2 7 C-1.34 4.69 -0.68 2.38 0 0 Z " fill="#0B5274" transform="translate(213,82)"/>
<path d="M0 0 C0.99 0 1.98 0 3 0 C3.33 2.31 3.66 4.62 4 7 C3.01 7.495 3.01 7.495 2 8 C1.34 7.67 0.68 7.34 0 7 C0 4.69 0 2.38 0 0 Z " fill="#8E060E" transform="translate(686,144)"/>
<path d="M0 0 C1.10191901 4.40767604 0.58706842 5.8922935 -1 10 C-1.99 10 -2.98 10 -4 10 C-2.68 6.7 -1.36 3.4 0 0 Z " fill="#0B5A7C" transform="translate(391,99)"/>
<path d="M0 0 C0.66 0.33 1.32 0.66 2 1 C0.35 3.64 -1.3 6.28 -3 9 C-3.66 8.67 -4.32 8.34 -5 8 C-3.35 5.36 -1.7 2.72 0 0 Z " fill="#095679" transform="translate(551,98)"/>
<path d="M0 0 C2.64 0 5.28 0 8 0 C8.33 0.99 8.66 1.98 9 3 C4.545 2.01 4.545 2.01 0 1 C0 0.67 0 0.34 0 0 Z " fill="#0A3B52" transform="translate(220,101)"/>
<path d="M0 0 C0.66 0.66 1.32 1.32 2 2 C1.625 4.125 1.625 4.125 1 6 C-0.65 5.67 -2.3 5.34 -4 5 C-3.67 4.34 -3.34 3.68 -3 3 C-2.34 3.33 -1.68 3.66 -1 4 C-0.67 2.68 -0.34 1.36 0 0 Z " fill="#A31C27" transform="translate(654,143)"/>
<path d="M0 0 C0.33 0 0.66 0 1 0 C1.06058594 0.61488281 1.12117187 1.22976562 1.18359375 1.86328125 C1.26738281 2.67152344 1.35117187 3.47976562 1.4375 4.3125 C1.51871094 5.11300781 1.59992187 5.91351563 1.68359375 6.73828125 C1.95265693 9.16087179 1.95265693 9.16087179 3 12 C2.01 12 1.02 12 0 12 C0 8.04 0 4.08 0 0 Z " fill="#C30511" transform="translate(669,143)"/>
<path d="M0 0 C1.125 1.625 1.125 1.625 2 4 C1.125 7.25 1.125 7.25 0 10 C-0.33 10 -0.66 10 -1 10 C-1.125 2.25 -1.125 2.25 0 0 Z " fill="#C01F15" transform="translate(57,102)"/>
<path d="M0 0 C-0.66 1.65 -1.32 3.3 -2 5 C-2.99 5 -3.98 5 -5 5 C-5.33 4.01 -5.66 3.02 -6 2 C-2.25 0 -2.25 0 0 0 Z " fill="#166C95" transform="translate(566,78)"/>
<path d="" fill="#000000" transform="translate(0,0)"/>
<path d="" fill="#000000" transform="translate(0,0)"/>
<path d="" fill="#000000" transform="translate(0,0)"/>
<path d="" fill="#000000" transform="translate(0,0)"/>
<path d="" fill="#000000" transform="translate(0,0)"/>
<path d="" fill="#000000" transform="translate(0,0)"/>
<path d="" fill="#000000" transform="translate(0,0)"/>
<path d="" fill="#000000" transform="translate(0,0)"/>
<path d="" fill="#000000" transform="translate(0,0)"/>
<path d="" fill="#000000" transform="translate(0,0)"/>
<path d="" fill="#000000" transform="translate(0,0)"/>
<path d="" fill="#000000" transform="translate(0,0)"/>
<path d="" fill="#000000" transform="translate(0,0)"/>
<path d="" fill="#000000" transform="translate(0,0)"/>
<path d="" fill="#000000" transform="translate(0,0)"/>
<path d="" fill="#000000" transform="translate(0,0)"/>
<path d="" fill="#000000" transform="translate(0,0)"/>
<path d="" fill="#000000" transform="translate(0,0)"/>
<path d="" fill="#000000" transform="translate(0,0)"/>
<path d="" fill="#000000" transform="translate(0,0)"/>
<path d="" fill="#000000" transform="translate(0,0)"/>
<path d="" fill="#000000" transform="translate(0,0)"/>
<path d="" fill="#000000" transform="translate(0,0)"/>
<path d="" fill="#000000" transform="translate(0,0)"/>
<path d="" fill="#000000" transform="translate(0,0)"/>
<path d="" fill="#000000" transform="translate(0,0)"/>
<path d="" fill="#000000" transform="translate(0,0)"/>
<path d="" fill="#000000" transform="translate(0,0)"/>
<path d="" fill="#000000" transform="translate(0,0)"/>
<path d="" fill="#000000" transform="translate(0,0)"/>
<path d="" fill="#000000" transform="translate(0,0)"/>
<path d="" fill="#000000" transform="translate(0,0)"/>
<path d="" fill="#000000" transform="translate(0,0)"/>
<path d="" fill="#000000" transform="translate(0,0)"/>
<path d="" fill="#000000" transform="translate(0,0)"/>
<path d="" fill="#000000" transform="translate(0,0)"/>
<path d="" fill="#000000" transform="translate(0,0)"/>
<path d="" fill="#000000" transform="translate(0,0)"/>
<path d="" fill="#000000" transform="translate(0,0)"/>
<path d="" fill="#000000" transform="translate(0,0)"/>
<path d="" fill="#000000" transform="translate(0,0)"/>
<path d="" fill="#000000" transform="translate(0,0)"/>
<path d="" fill="#000000" transform="translate(0,0)"/>
<path d="" fill="#000000" transform="translate(0,0)"/>
<path d="" fill="#000000" transform="translate(0,0)"/>
<path d="" fill="#000000" transform="translate(0,0)"/>
<path d="" fill="#000000" transform="translate(0,0)"/>
<path d="" fill="#000000" transform="translate(0,0)"/>
<path d="" fill="#000000" transform="translate(0,0)"/>
<path d="" fill="#000000" transform="translate(0,0)"/>
<path d="" fill="#000000" transform="translate(0,0)"/>
<path d="" fill="#000000" transform="translate(0,0)"/>
<path d="" fill="#000000" transform="translate(0,0)"/>
<path d="" fill="#000000" transform="translate(0,0)"/>
<path d="" fill="#000000" transform="translate(0,0)"/>
<path d="" fill="#000000" transform="translate(0,0)"/>
<path d="" fill="#000000" transform="translate(0,0)"/>
<path d="" fill="#000000" transform="translate(0,0)"/>
<path d="" fill="#000000" transform="translate(0,0)"/>
<path d="" fill="#000000" transform="translate(0,0)"/>
<path d="" fill="#000000" transform="translate(0,0)"/>
<path d="" fill="#000000" transform="translate(0,0)"/>
<path d="" fill="#000000" transform="translate(0,0)"/>
<path d="" fill="#000000" transform="translate(0,0)"/>
<path d="" fill="#000000" transform="translate(0,0)"/>
<path d="" fill="#000000" transform="translate(0,0)"/>
<path d="" fill="#000000" transform="translate(0,0)"/>
<path d="" fill="#000000" transform="translate(0,0)"/>
<path d="" fill="#000000" transform="translate(0,0)"/>
<path d="" fill="#000000" transform="translate(0,0)"/>
<path d="" fill="#000000" transform="translate(0,0)"/>
<path d="" fill="#000000" transform="translate(0,0)"/>
<path d="" fill="#000000" transform="translate(0,0)"/>
<path d="" fill="#000000" transform="translate(0,0)"/>
<path d="" fill="#000000" transform="translate(0,0)"/>
<path d="" fill="#000000" transform="translate(0,0)"/>
<path d="" fill="#000000" transform="translate(0,0)"/>
<path d="" fill="#000000" transform="translate(0,0)"/>
<path d="" fill="#000000" transform="translate(0,0)"/>
<path d="" fill="#000000" transform="translate(0,0)"/>
<path d="" fill="#000000" transform="translate(0,0)"/>
<path d="" fill="#000000" transform="translate(0,0)"/>
<path d="" fill="#000000" transform="translate(0,0)"/>
<path d="" fill="#000000" transform="translate(0,0)"/>
<path d="" fill="#000000" transform="translate(0,0)"/>
<path d="" fill="#000000" transform="translate(0,0)"/>
<path d="" fill="#000000" transform="translate(0,0)"/>
<path d="" fill="#000000" transform="translate(0,0)"/>
<path d="" fill="#000000" transform="translate(0,0)"/>
<path d="" fill="#000000" transform="translate(0,0)"/>
<path d="" fill="#000000" transform="translate(0,0)"/>
<path d="" fill="#000000" transform="translate(0,0)"/>
</svg>
