<?xml version="1.0" encoding="UTF-8"?>
<svg version="1.1" xmlns="http://www.w3.org/2000/svg" width="823" height="220">
<path d="M0 0 C3.95099928 -0.0246985 7.90196874 -0.04285923 11.85302734 -0.05493164 C13.85906551 -0.06244036 15.86508202 -0.0751447 17.87109375 -0.08789062 C19.75634766 -0.09272461 19.75634766 -0.09272461 21.6796875 -0.09765625 C22.84226074 -0.10289307 24.00483398 -0.10812988 25.20263672 -0.11352539 C28 0 28 0 30 1 C30 1.99 30 2.98 30 4 C28.3603125 4.7734375 28.3603125 4.7734375 26.6875 5.5625 C22.44816035 7.9396196 21.48096977 10.46997482 20 15 C20.79664063 14.47599609 20.79664063 14.47599609 21.609375 13.94140625 C22.31578125 13.48636719 23.0221875 13.03132813 23.75 12.5625 C24.79414063 11.88380859 24.79414063 11.88380859 25.859375 11.19140625 C27.94492158 10.03065496 29.64645795 9.3632641 32 9 C33 10 33 10 33.11352539 12.04125977 C33.10567017 13.35308228 33.10567017 13.35308228 33.09765625 14.69140625 C33.09282227 16.10776367 33.09282227 16.10776367 33.08789062 17.55273438 C33.07532227 19.04256836 33.07532227 19.04256836 33.0625 20.5625 C33.05798828 21.55958984 33.05347656 22.55667969 33.04882812 23.58398438 C33.03700007 26.05604849 33.02051849 28.52799518 33 31 C29.29492188 32.15185547 29.29492188 32.15185547 26.640625 30.78515625 C25.45726562 29.93244141 25.45726562 29.93244141 24.25 29.0625 C23.45078125 28.49660156 22.6515625 27.93070313 21.828125 27.34765625 C21.22484375 26.90292969 20.6215625 26.45820312 20 26 C21.31987931 30.39959772 22.2175004 33.19743631 25.4375 36.5 C30.60964557 38.6777455 35.46499393 38.32242754 41 38 C40.95875 36.906875 40.9175 35.81375 40.875 34.6875 C41 31 41 31 43 28 C43 27.01 43 26.02 43 25 C40.36 25 37.72 25 35 25 C34.02133386 21.88606229 33.87024755 20.35681925 35 17.25 C37 15 37 15 40.625 14.125 C41.73875 14.08375 42.8525 14.0425 44 14 C44.495 14.495 44.495 14.495 45 15 C45.25394531 14.44570313 45.50789063 13.89140625 45.76953125 13.3203125 C46.28580078 12.23363281 46.28580078 12.23363281 46.8125 11.125 C47.14894531 10.40570313 47.48539062 9.68640625 47.83203125 8.9453125 C49 7 49 7 52 5 C52.99 5 53.98 5 55 5 C56.80317221 8.96697886 57.49202991 12.6822542 58 17 C59.175625 17.433125 59.175625 17.433125 60.375 17.875 C63 19 63 19 65 21 C65.31537716 25.33643601 65.44897847 27.32653229 63 31 C62.01 31 61.02 31 60 31 C59.505 29.02 59.505 29.02 59 27 C57.01508358 27.26676204 57.01508358 27.26676204 55 28 C53.84518016 30.93741325 53.84518016 30.93741325 54 33.9375 C54 36.55921327 53.76309177 38.51995174 53 41 C55.54256655 43.54256655 57.49475995 44.25728671 61 44.375 C64.50524005 44.25728671 66.45743345 43.54256655 69 41 C67.35 41 65.7 41 64 41 C63.01 39.02 63.01 39.02 62 37 C62.5775 36.236875 63.155 35.47375 63.75 34.6875 C66.35354269 30.87386 67.54797793 26.68280514 68.875 22.29296875 C70 20 70 20 72.125 19.17578125 C72.74375 19.11777344 73.3625 19.05976562 74 19 C74.99 20.98 74.99 20.98 76 23 C76.11320856 17.91696314 76.11320856 17.91696314 75 13 C76.640625 11.8828125 76.640625 11.8828125 79 11 C81.796875 11.6796875 81.796875 11.6796875 84.75 12.875 C85.73484375 13.26429687 86.7196875 13.65359375 87.734375 14.0546875 C88.85585938 14.52261719 88.85585938 14.52261719 90 15 C88.50686959 25.67429399 83.51415583 35.2013979 78.640625 44.68359375 C76.79328274 48.41786417 75.25479897 52.19955394 73.82421875 56.109375 C73 58 73 58 71 60 C65.86535896 59.6232042 61.13252925 58.22682242 56.25 56.6875 C23.11038667 46.80064354 -6.44310049 49.14770016 -39 60 C-24.59658102 60.1167972 -10.19323546 60.2046378 4.21055984 60.25906086 C10.89852119 60.28517845 17.58615475 60.31999477 24.27392578 60.37719727 C30.72541179 60.43143813 37.17659188 60.46140425 43.62828827 60.47438622 C46.09235197 60.4836402 48.55639853 60.50171067 51.02033234 60.52865028 C54.46607429 60.56483356 57.91054462 60.5699496 61.35644531 60.56762695 C62.37999619 60.58560333 63.40354706 60.60357971 64.45811462 60.62210083 C70.12450371 60.71239761 70.12450371 60.71239761 74.54022217 57.46452332 C75.02194885 56.65123062 75.50367554 55.83793793 76 55 C76.66 55 77.32 55 78 55 C78 54.34 78 53.68 78 53 C85.95953757 51.56069364 85.95953757 51.56069364 89.8125 53.1875 C94.37777001 56.9701523 96.62369062 59.20455887 97.4375 65.25 C96.8560227 70.23409112 94.62718402 72.67351517 91 76 C90.01 76.495 90.01 76.495 89 77 C88.34444881 79.52733235 88.34444881 79.52733235 88 82 C88.5775 82.0825 89.155 82.165 89.75 82.25 C92.6701433 83.2233811 94.01787793 84.67613275 96 87 C97.52199443 91.56598329 97.74716734 95.39892714 95.6875 99.8125 C94 102 94 102 91 104 C90.01 104 89.02 104 88 104 C88.0842627 106.86493176 88.5260006 108.53415293 90.58984375 110.5625 C91.84356422 111.58803821 93.11555729 112.59171352 94.40625 113.5703125 C96.84528142 115.75826716 97.0034367 118.02190898 97.5 121.1875 C96.80218228 126.50836014 93.99107321 129.5236127 90 133 C89.34 133 88.68 133 88 133 C88 134.65 88 136.3 88 138 C88.5775 138.0825 89.155 138.165 89.75 138.25 C92.87362028 139.29120676 94.05347211 140.31513395 96 143 C97.25607651 147.46416381 97.34459772 150.96620683 95.875 155.375 C93.84049044 158.22331339 91.96127066 159.23924447 89 161 C88.54431636 164.87818057 88.54431636 164.87818057 90.49609375 166.59765625 C91.13675781 167.08105469 91.77742187 167.56445312 92.4375 168.0625 C96.05535542 170.81791716 96.7827346 172.6149331 97.5 177.1875 C96.7867404 182.62610445 94.28261879 185.65648098 90 189 C86.01416086 190.62952733 82.82046215 190.28400613 78.75 188.875 C74.50739318 185.98231353 72.46816242 183.58004818 71 178.625 C71 173.75454762 72.184569 171.95682195 75 168 C75.721875 167.46375 76.44375 166.9275 77.1875 166.375 C79.26856543 165.08415866 79.26856543 165.08415866 79.75 162.3125 C79.8325 161.549375 79.915 160.78625 80 160 C78.8553125 159.62875 78.8553125 159.62875 77.6875 159.25 C74.61961508 157.82307678 73.59992704 156.95986502 72 154 C70.94776225 149.94136867 70.73995326 147.71170686 72.1875 143.75 C73.94074551 141.08990337 75.26288069 139.58929508 78 138 C78.66 138 79.32 138 80 138 C79.87943404 135.63460948 79.87943404 135.63460948 79 133 C77.34614767 131.65080468 75.678298 130.31866272 74 129 C71.68650256 125.52975384 70.98899579 123.62724004 71.0625 119.4375 C72.44251042 114.37746178 74.68388987 111.87740676 79 109 C79.72965366 106.43717258 79.72965366 106.43717258 80 104 C78.8553125 103.62875 78.8553125 103.62875 77.6875 103.25 C74.61961508 101.82307678 73.59992704 100.95986502 72 98 C70.94776225 93.94136867 70.73995326 91.71170686 72.1875 87.75 C73.94074551 85.08990337 75.26288069 83.58929508 78 82 C78.66 82 79.32 82 80 82 C79.84692284 79.32114968 79.58010118 77.55424709 77.59765625 75.66015625 C77.04980469 75.23605469 76.50195312 74.81195313 75.9375 74.375 C74.968125 73.59125 73.99875 72.8075 73 72 C73 71.01 73 70.02 73 69 C71.35 69 69.7 69 68 69 C68 108.93 68 148.86 68 190 C65 189 65 189 63.1328125 185.68359375 C62.45451198 184.2725343 61.78571971 182.85687656 61.125 181.4375 C58.9381298 176.87664501 56.78583264 172.42196561 54 168.1875 C52 165 52 165 52 162 C53.98 162 55.96 162 58 162 C58 157.38 58 152.76 58 148 C54.37 148 50.74 148 47 148 C46.67 152.62 46.34 157.24 46 162 C46.99 162 47.98 162 49 162 C49.53913668 166.31309342 48.10415189 168.81516801 46.078125 172.5390625 C44.29844177 176.60138292 43.61983508 180.89877119 42.80859375 185.2421875 C42 188 42 188 39 190 C37 189 37 189 36.34570312 187.20581055 C36.15943359 186.44051025 35.97316406 185.67520996 35.78125 184.88671875 C35.57113281 184.05076172 35.36101562 183.21480469 35.14453125 182.35351562 C34.93183594 181.47373047 34.71914062 180.59394531 34.5 179.6875 C34.07707927 177.96121447 33.65012867 176.23591019 33.21875 174.51171875 C33.03248047 173.74303467 32.84621094 172.97435059 32.65429688 172.18237305 C32.06766624 169.96848196 32.06766624 169.96848196 30.92382812 167.96801758 C30 166 30 166 30 162 C30.99 162 31.98 162 33 162 C33 157.05 33 152.1 33 147 C32.34 147.33 31.68 147.66 31 148 C27.99525503 148.13559318 25.00931153 148.04299016 22 148 C21.67 152.62 21.34 157.24 21 162 C21.99 162.33 22.98 162.66 24 163 C23.82871582 163.53890869 23.65743164 164.07781738 23.48095703 164.63305664 C22.69459877 167.10920908 21.90978962 169.58584997 21.125 172.0625 C20.85558594 172.91005859 20.58617187 173.75761719 20.30859375 174.63085938 C18.79804046 179.40199721 17.34720833 184.18013332 16 189 C14.68 189 13.36 189 12 189 C11.63648438 187.515 11.63648438 187.515 11.265625 186 C9.18839382 177.41391336 9.18839382 177.41391336 5.75 169.3125 C4 166 4 166 4 162 C5.32 162 6.64 162 8 162 C7.67 161.34 7.34 160.68 7 160 C6.92966231 158.12620395 6.9156978 156.24998898 6.9375 154.375 C6.94652344 153.37210938 6.95554687 152.36921875 6.96484375 151.3359375 C6.97644531 150.56507813 6.98804688 149.79421875 7 149 C3.7 148.67 0.4 148.34 -3 148 C-3.33 152.62 -3.66 157.24 -4 162 C-3.34 162 -2.68 162 -2 162 C-2.64828002 167.84242606 -4.11050624 173.21346006 -5.875 178.8125 C-6.13152344 179.67037109 -6.38804688 180.52824219 -6.65234375 181.41210938 C-6.90886719 182.23130859 -7.16539063 183.05050781 -7.4296875 183.89453125 C-7.65897949 184.63550049 -7.88827148 185.37646973 -8.12451172 186.13989258 C-9 188 -9 188 -12 190 C-12.391875 188.783125 -12.78375 187.56625 -13.1875 186.3125 C-14.89056223 181.1625702 -16.88731552 176.14329875 -18.9140625 171.11328125 C-19.97768718 168.06396877 -20.5689625 165.19446678 -21 162 C-20.01 162 -19.02 162 -18 162 C-18.33 161.34 -18.66 160.68 -19 160 C-19.07033769 158.12620395 -19.0843022 156.24998898 -19.0625 154.375 C-19.05347656 153.37210938 -19.04445312 152.36921875 -19.03515625 151.3359375 C-19.02355469 150.56507813 -19.01195312 149.79421875 -19 149 C-22.3 148.67 -25.6 148.34 -29 148 C-29 152.62 -29 157.24 -29 162 C-27.35 162 -25.7 162 -24 162 C-24.56278213 166.13200565 -25.90156336 168.70445098 -28.25 172.125 C-31.38955143 176.8697841 -33.77877816 181.63418901 -35.95703125 186.8828125 C-37 189 -37 189 -39 190 C-39.66 189.67 -40.32 189.34 -41 189 C-41 149.73 -41 110.46 -41 70 C-42.32 69.67 -43.64 69.34 -45 69 C-45.2475 69.7425 -45.495 70.485 -45.75 71.25 C-47 74 -47 74 -49.1875 76.0625 C-51.20646088 77.79398217 -51.20646088 77.79398217 -51.0625 79.9375 C-49.56349022 82.84734252 -47.35880795 84.75913244 -45 87 C-43.39227617 90.21544767 -43.52768533 93.51263549 -44 97 C-46.82115869 102.54156171 -46.82115869 102.54156171 -50.25 103.875 C-50.8275 103.91625 -51.405 103.9575 -52 104 C-51.81584568 106.94091587 -51.81584568 106.94091587 -51 110 C-49.11683841 111.10836423 -49.11683841 111.10836423 -47 112 C-44.14798394 115.46316236 -43.4712545 118.51949419 -43.640625 123.0078125 C-44.36558946 127.02663721 -46.81746356 129.86126121 -49.6875 132.625 C-51.30693062 134.32154637 -51.6068087 135.71949044 -52 138 C-51.236875 138.226875 -50.47375 138.45375 -49.6875 138.6875 C-46.28748818 140.34797089 -45.44085267 141.51161986 -44 145 C-43.45405534 149.91350192 -43.49978407 152.017433 -45.75 156.4375 C-47.94435756 158.93662944 -48.75110346 159.76793596 -52 160 C-51.81584568 162.94091587 -51.81584568 162.94091587 -51 166 C-49.11683841 167.10836423 -49.11683841 167.10836423 -47 168 C-44.14828459 171.46279728 -43.47555205 174.51668599 -43.63671875 179.00390625 C-44.39887085 183.19164521 -47.07837365 186.07837365 -50 189 C-55.98571416 190.31888617 -59.53353644 190.2155668 -65 187 C-67.89045487 183.92306417 -68.24124189 181.14712187 -68.4375 177.0625 C-68.29002824 172.3574487 -67.26392562 169.53591942 -64 166 C-61.75 165.125 -61.75 165.125 -60 165 C-60 163.35 -60 161.7 -60 160 C-60.5775 159.938125 -61.155 159.87625 -61.75 159.8125 C-65.17077636 158.57721965 -66.19413985 157.16025526 -68 154 C-68.75932888 149.82020797 -68.96414153 145.86572426 -66.9765625 142.01953125 C-65.6875 140.375 -65.6875 140.375 -63 138 C-62.01 138 -61.02 138 -60 138 C-60 136.35 -60 134.7 -60 133 C-61.1446875 132.6596875 -61.1446875 132.6596875 -62.3125 132.3125 C-65.77448129 130.62176495 -66.57905405 129.58975819 -68 126 C-68.70092961 120.87979469 -68.54701405 117.11356432 -66.25 112.4375 C-64.05609944 110.0607744 -63.17134992 109.22652499 -60 109 C-60 107.35 -60 105.7 -60 104 C-60.86625 103.9071875 -60.86625 103.9071875 -61.75 103.8125 C-65.17077636 102.57721965 -66.19413985 101.16025526 -68 98 C-68.75932888 93.82020797 -68.96414153 89.86572426 -66.9765625 86.01953125 C-65.6875 84.375 -65.6875 84.375 -63 82 C-62.01 82 -61.02 82 -60 82 C-60 80.35 -60 78.7 -60 77 C-60.763125 76.773125 -61.52625 76.54625 -62.3125 76.3125 C-65.77448129 74.62176495 -66.57905405 73.58975819 -68 70 C-68.73123284 65.68572626 -68.87803654 61.84587226 -66.96875 57.83203125 C-64.29186789 54.22567618 -61.89604572 52.5832974 -57.4375 51.875 C-53.46500123 51.73479416 -51.0923692 52.36239098 -48 55 C-46.1875 57.1875 -46.1875 57.1875 -45 59 C-46.98089635 52.1906688 -49.81374188 45.98269713 -52.86938477 39.60742188 C-55.70031688 33.6887335 -58.32381203 27.70561231 -60.87109375 21.66015625 C-61.53825352 20.08806003 -62.2362476 18.52750481 -63 17 C-61.54987453 14.09974906 -59.68687091 13.91293145 -56.6875 12.8125 C-55.72199219 12.44769531 -54.75648437 12.08289062 -53.76171875 11.70703125 C-51 11 -51 11 -47 12 C-47.33 15.96 -47.66 19.92 -48 24 C-47.34 22.35 -46.68 20.7 -46 19 C-45.01 19 -44.02 19 -43 19 C-43 19.66 -43 20.32 -43 21 C-42.34 21 -41.68 21 -41 21 C-35.62870159 34.6332574 -35.62870159 34.6332574 -34 41 C-36.31 41 -38.62 41 -41 41 C-38.44079687 43.55920313 -36.52482321 44.24016221 -33 44.3125 C-29.90514527 44.18570893 -27.53388317 43.92575121 -25 42 C-24.67 41.01 -24.34 40.02 -24 39 C-24.66 38.01 -25.32 37.02 -26 36 C-26.1953125 33.73828125 -26.1953125 33.73828125 -26.125 31.3125 C-26.10695312 30.50425781 -26.08890625 29.69601563 -26.0703125 28.86328125 C-26.04710937 28.24839844 -26.02390625 27.63351563 -26 27 C-27.65 27 -29.3 27 -31 27 C-31.33 28.32 -31.66 29.64 -32 31 C-32.99 31 -33.98 31 -35 31 C-36.71928713 28.37050204 -37.01045637 27.12809053 -36.75 23.9375 C-36 21 -36 21 -34 18 C-33.319375 17.7525 -32.63875 17.505 -31.9375 17.25 C-31.298125 16.8375 -30.65875 16.425 -30 16 C-29.61250787 13.67504723 -29.28241883 11.3400417 -29 9 C-27.4375 6.5625 -27.4375 6.5625 -26 5 C-22.62917442 6.44463953 -20.41962708 8.24663125 -18 11 C-17.505 12.485 -17.505 12.485 -17 14 C-16.0925 13.938125 -15.185 13.87625 -14.25 13.8125 C-10.71017358 14.01672076 -9.55068845 14.64551835 -7 17 C-6.34 14.69 -5.68 12.38 -5 10 C-3.1875 9.3125 -3.1875 9.3125 -1 9 C0.375 10.25 0.375 10.25 2 12 C3.97620986 13.04622875 5.9737129 14.05439935 8 15 C6.15819067 10.94801946 4.4218175 7.88715851 1 5 C0.01 4.67 -0.98 4.34 -2 4 C-1.34 2.68 -0.68 1.36 0 0 Z M-15 24 C-14.855625 25.010625 -14.71125 26.02125 -14.5625 27.0625 C-14.19121049 29.66152659 -13.85704627 32.26616163 -13.5625 34.875 C-13.376875 35.90625 -13.19125 36.9375 -13 38 C-8.99395081 40.0030246 -4.34479774 39.62239527 0 39 C3.68299983 37.17802129 6.19410111 34.81871777 7.8671875 31.04296875 C8.52925345 28.94596614 8.52925345 28.94596614 9 26 C5.61367259 26.38700885 4.11015161 26.90865476 1.4375 29.125 C-1 31 -1 31 -3.3125 30.75 C-3.869375 30.5025 -4.42625 30.255 -5 30 C-5.33 28.02 -5.66 26.04 -6 24 C-8.97 24 -11.94 24 -15 24 Z M-60 62 C-60.04080783 63.99958364 -60.04254356 66.00045254 -60 68 C-57.36 68 -54.72 68 -52 68 C-51.95745644 66.00045254 -51.95919217 63.99958364 -52 62 C-53.11836224 60.65595225 -53.11836224 60.65595225 -56 60.875 C-58.88163776 60.65595225 -58.88163776 60.65595225 -60 62 Z M80 62 C79.95919217 63.99958364 79.95745644 66.00045254 80 68 C82.64 68 85.28 68 88 68 C88.67958603 65.60280568 88.67958603 65.60280568 89 63 C87.10892859 60.66721267 87.10892859 60.66721267 83.9375 60.8125 C81.11166864 60.66812207 81.11166864 60.66812207 80 62 Z M21 71 C21 75.95 21 80.9 21 86 C24.96 86 28.92 86 33 86 C33 81.38 33 76.76 33 72 C29.04 71.67 25.08 71.34 21 71 Z M46 71 C46 75.95 46 80.9 46 86 C49.96 86 53.92 86 58 86 C58 81.38 58 76.76 58 72 C54.04 71.67 50.08 71.34 46 71 Z M-29 72 C-29 76.62 -29 81.24 -29 86 C-25.37 86 -21.74 86 -18 86 C-18 81.38 -18 76.76 -18 72 C-21.63 72 -25.26 72 -29 72 Z M-4 72 C-4 76.62 -4 81.24 -4 86 C-0.04 86 3.92 86 8 86 C8 81.38 8 76.76 8 72 C4.04 72 0.08 72 -4 72 Z M-60 90 C-60 91.98 -60 93.96 -60 96 C-57.36 96 -54.72 96 -52 96 C-52 94.02 -52 92.04 -52 90 C-54.64 90 -57.28 90 -60 90 Z M80 90 C80 91.98 80 93.96 80 96 C80.763125 95.814375 81.52625 95.62875 82.3125 95.4375 C85 95 85 95 88 96 C88.33 94.35 88.66 92.7 89 91 C86.04335481 89.5216774 83.25770263 89.93967217 80 90 Z M-4 97 C-4 101.62 -4 106.24 -4 111 C-0.04 111 3.92 111 8 111 C8 106.71 8 102.42 8 98 C4.04 97.67 0.08 97.34 -4 97 Z M21 97 C21 101.95 21 106.9 21 112 C26.94 111.505 26.94 111.505 33 111 C33 106.38 33 101.76 33 97 C29.04 97 25.08 97 21 97 Z M46 97 C46 101.95 46 106.9 46 112 C51.94 111.505 51.94 111.505 58 111 C58 106.71 58 102.42 58 98 C54.04 97.67 50.08 97.34 46 97 Z M-29 98 C-29 102.29 -29 106.58 -29 111 C-25.7 111 -22.4 111 -19 111 C-17.63578969 108.27157939 -18.12192789 106.39046682 -18.4375 103.375 C-18.53933594 102.37210937 -18.64117187 101.36921875 -18.74609375 100.3359375 C-18.82988281 99.56507812 -18.91367188 98.79421875 -19 98 C-22.3 98 -25.6 98 -29 98 Z M-60 118 C-60 119.98 -60 121.96 -60 124 C-57.66705225 124.04241723 -55.33297433 124.04092937 -53 124 C-51.70366379 122.93354885 -51.70366379 122.93354885 -51.9375 120.4375 C-51.958125 119.633125 -51.97875 118.82875 -52 118 C-52.66 118 -53.32 118 -54 118 C-54 118.66 -54 119.32 -54 120 C-55.32 120 -56.64 120 -58 120 C-58 119.34 -58 118.68 -58 118 C-58.66 118 -59.32 118 -60 118 Z M80 118 C80 119.98 80 121.96 80 124 C82.64 124 85.28 124 88 124 C88.33 122.35 88.66 120.7 89 119 C88.01 119 87.02 119 86 119 C83.99690671 118.68578929 81.99628664 118.3548954 80 118 Z M-29 122 C-29.495 129.425 -29.495 129.425 -30 137 C-26.04 137 -22.08 137 -18 137 C-18.33 132.05 -18.66 127.1 -19 122 C-22.3 122 -25.6 122 -29 122 Z M-4 122 C-4.495 129.425 -4.495 129.425 -5 137 C-0.71 137 3.58 137 8 137 C8 132.05 8 127.1 8 122 C4.04 122 0.08 122 -4 122 Z M21 122 C21 126.95 21 131.9 21 137 C24.96 137 28.92 137 33 137 C33 132.05 33 127.1 33 122 C29.04 122 25.08 122 21 122 Z M46 122 C46 126.95 46 131.9 46 137 C49.96 137 53.92 137 58 137 C58 132.05 58 127.1 58 122 C54.04 122 50.08 122 46 122 Z M-60 146 C-60 147.98 -60 149.96 -60 152 C-57.36 152 -54.72 152 -52 152 C-52 150.35 -52 148.7 -52 147 C-54.64 146.67 -57.28 146.34 -60 146 Z M80 146 C80 147.98 80 149.96 80 152 C82.64 152 85.28 152 88 152 C88.33 150.35 88.66 148.7 89 147 C86.04335481 145.5216774 83.25770263 145.93967217 80 146 Z M-60 174 C-60 175.98 -60 177.96 -60 180 C-57.525 180.99 -57.525 180.99 -55 182 C-53.39585785 180.81476003 -53.39585785 180.81476003 -52 179 C-51.74930087 176.37429296 -51.74930087 176.37429296 -52 174 C-52.66 174 -53.32 174 -54 174 C-54 174.66 -54 175.32 -54 176 C-55.32 176 -56.64 176 -58 176 C-58 175.34 -58 174.68 -58 174 C-58.66 174 -59.32 174 -60 174 Z M80 174 C79.95745644 175.99954746 79.95919217 178.00041636 80 180 C81.18424326 181.41577477 81.18424326 181.41577477 84.5625 181.0625 C86.2640625 181.0315625 86.2640625 181.0315625 88 181 C88.33 179.02 88.66 177.04 89 175 C88.01 175 87.02 175 86 175 C83.99690671 174.68578929 81.99628664 174.3548954 80 174 Z " fill="#AD0A35" transform="translate(125,15)"/>
<path d="M0 0 C0.495 1.485 0.495 1.485 1 3 C1.66 3 2.32 3 3 3 C6.73635915 10.4727183 8.02051619 17.36229058 5.625 25.5 C4.85839796 27.7639836 4.06845921 29.86308157 3 32 C2.34 32 1.68 32 1 32 C0.690625 32.8353125 0.690625 32.8353125 0.375 33.6875 C-2.26925104 38.13464947 -6.87021691 40.98208159 -11 44 C-10.55269531 44.37511719 -10.10539063 44.75023437 -9.64453125 45.13671875 C-9.03996094 45.64847656 -8.43539062 46.16023438 -7.8125 46.6875 C-7.22082031 47.18636719 -6.62914062 47.68523437 -6.01953125 48.19921875 C-3.57950559 50.37494763 -1.29633257 52.67300424 1 55 C2.97705407 57.00210149 4.95677942 59.00152649 6.9375 61 C7.68676758 61.76183594 7.68676758 61.76183594 8.45117188 62.5390625 C10.99443926 65.09873806 13.56076383 67.49350087 16.37890625 69.75 C17.24386719 70.4925 18.10882812 71.235 19 72 C19 72.66 19 73.32 19 74 C19.9590625 74.37125 19.9590625 74.37125 20.9375 74.75 C22.68543982 75.46344483 24.42405829 76.20423396 26.125 77.0234375 C30.60186765 79.15599945 33.91876843 80.52115196 39 80 C40.92438364 75.94224921 41.2482721 72.69687079 41.24291992 68.2253418 C41.24576744 67.23402756 41.24576744 67.23402756 41.24867249 66.22268677 C41.25236268 64.04807488 41.24169722 61.87380075 41.23046875 59.69921875 C41.22927531 58.17853332 41.22882413 56.65784714 41.2290802 55.13716125 C41.2275181 51.95215223 41.2192523 48.76725603 41.20581055 45.58227539 C41.18886469 41.5172988 41.18499525 37.45244655 41.18575573 33.38743877 C41.18548253 30.24657524 41.17997664 27.10573841 41.17275429 23.9648838 C41.16959067 22.4671022 41.16760566 20.96931759 41.16686058 19.47153282 C41.15866304 8.69792182 41.15866304 8.69792182 40 -2 C35.38 -2.66 30.76 -3.32 26 -4 C26 -5.65 26 -7.3 26 -9 C28.95919489 -10.68662321 31.14812757 -11.26671852 34.54296875 -11.35058594 C35.43910889 -11.37691101 36.33524902 -11.40323608 37.25854492 -11.43035889 C38.2251001 -11.4481842 39.19165527 -11.46600952 40.1875 -11.484375 C41.70597534 -11.52053925 41.70597534 -11.52053925 43.25512695 -11.55743408 C45.40696116 -11.60576162 47.55891117 -11.64914652 49.7109375 -11.68798828 C52.93287883 -11.7487345 56.15364112 -11.83217825 59.375 -11.91796875 C95.44216573 -12.73668089 95.44216573 -12.73668089 109 -6 C110.48886719 -5.27490234 110.48886719 -5.27490234 112.0078125 -4.53515625 C122.50483387 1.05536265 130.1157605 8.64916539 134 20 C134.34546875 20.95390625 134.6909375 21.9078125 135.046875 22.890625 C138.8038177 35.1468807 136.67713709 47.61524886 131.5 59.125 C124.44238791 72.17722581 113.35806811 81.83913143 99.1875 86.375 C93.08811269 88.11768209 87.27473858 89.11908902 80.92553711 89.16113281 C79.15725807 89.17554413 79.15725807 89.17554413 77.35325623 89.19024658 C76.09070511 89.19449646 74.82815399 89.19874634 73.52734375 89.203125 C72.21270645 89.20882507 70.89806915 89.21452515 69.54359436 89.22039795 C66.76221332 89.23087398 63.98086085 89.23673778 61.19946289 89.24023438 C57.67182814 89.24569042 54.14458494 89.26967013 50.61707211 89.29820633 C47.8723295 89.31703306 45.1276771 89.32204896 42.38287544 89.32357025 C40.46166094 89.32798858 38.54049513 89.34653914 36.61936951 89.36553955 C24.35450288 89.3348896 13.73413727 87.77379018 4 80 C2.63875 78.95585937 2.63875 78.95585937 1.25 77.890625 C-3.87013445 73.85573644 -8.35428759 69.72435829 -12.515625 64.7109375 C-14.44768793 62.48398075 -16.66125721 60.78483003 -19 59 C-20.2065625 57.7625 -20.2065625 57.7625 -21.4375 56.5 C-26.88912506 51.1813414 -30.95492772 49.39759637 -38.375 49.25 C-39.47908203 49.20552734 -39.47908203 49.20552734 -40.60546875 49.16015625 C-42.4030743 49.09011967 -44.2015379 49.04271881 -46 49 C-45.8818344 53.09362106 -45.75759216 57.18700767 -45.62768555 61.28027344 C-45.58434154 62.6731259 -45.54266604 64.06603131 -45.50268555 65.45898438 C-45.44497068 67.45976651 -45.38078131 69.46035859 -45.31640625 71.4609375 C-45.26141968 73.26763916 -45.26141968 73.26763916 -45.20532227 75.11083984 C-45.18947013 77.93996367 -45.18947013 77.93996367 -44 80 C-40.99260653 80.65587407 -40.99260653 80.65587407 -37.5 81.0625 C-31.0951189 81.9048811 -31.0951189 81.9048811 -30 83 C-29.95919217 84.99958364 -29.95745644 87.00045254 -30 89 C-36.6752034 89.02526945 -43.35039457 89.04283268 -50.02563477 89.05493164 C-52.29842591 89.05997325 -54.5712138 89.06680637 -56.84399414 89.07543945 C-60.10303551 89.08751261 -63.36203417 89.09322987 -66.62109375 89.09765625 C-67.64400009 89.10281754 -68.66690643 89.10797882 -69.72080994 89.11329651 C-70.66170975 89.11337204 -71.60260956 89.11344757 -72.57202148 89.11352539 C-73.40475082 89.115746 -74.23748016 89.11796661 -75.09544373 89.12025452 C-77 89 -77 89 -78 88 C-78.125 85.5 -78.125 85.5 -78 83 C-76.35696827 81.35696827 -74.31992705 81.68137147 -72.0625 81.5 C-68.39442535 81.24785057 -68.39442535 81.24785057 -65 80 C-63.81272838 76.43818513 -63.87288318 73.59896092 -63.87060547 69.83813477 C-63.86885315 69.11260406 -63.86710083 68.38707336 -63.86529541 67.63955688 C-63.86089268 65.24014904 -63.86380965 62.84081486 -63.8671875 60.44140625 C-63.86651393 58.77375779 -63.86554347 57.10610943 -63.86428833 55.4384613 C-63.86281344 51.94228176 -63.86495897 48.44612775 -63.86962891 44.94995117 C-63.87532165 40.4697621 -63.87204875 35.989633 -63.86605644 31.50944614 C-63.86244145 28.06507415 -63.86359382 24.62071634 -63.86618423 21.17634392 C-63.86685113 19.52453542 -63.86603335 17.87272564 -63.86370468 16.22091866 C-63.86116329 13.91099769 -63.86503995 11.60117353 -63.87060547 9.29125977 C-63.87140106 7.97682388 -63.87219666 6.662388 -63.87301636 5.30812073 C-63.89253712 1.84860677 -63.89253712 1.84860677 -65 -2 C-70.94 -2.99 -70.94 -2.99 -77 -4 C-77.33 -5.65 -77.66 -7.3 -78 -9 C-74.37961344 -11.41359104 -72.50791751 -11.31763319 -68.19140625 -11.44921875 C-67.51686905 -11.4715004 -66.84233185 -11.49378204 -66.14735413 -11.51673889 C-63.9525573 -11.58498403 -61.75778504 -11.63756518 -59.5625 -11.6875 C-58.4446109 -11.71644348 -58.4446109 -11.71644348 -57.30413818 -11.74597168 C-14.04018172 -12.84857958 -14.04018172 -12.84857958 0 0 Z M-46 -5 C-46 10.84 -46 26.68 -46 43 C-33.11774742 43 -25.85646446 42.92149203 -16.25 34.625 C-10.53727549 27.96015474 -11.43744615 19.29313255 -12 11 C-13.11600233 4.97358742 -17.13645243 1.36458279 -22 -2 C-29.56839007 -5.87649248 -37.62261346 -5 -46 -5 Z M58 -5 C57.93059498 6.04804177 57.87723716 17.09603197 57.84456348 28.14424706 C57.82888448 33.27397721 57.80760557 38.4035586 57.77368164 43.53320312 C57.74116771 48.48040867 57.72316384 53.42747082 57.71536827 58.37477493 C57.7098104 60.26550175 57.69895773 62.15622042 57.68280983 64.04688644 C57.66114121 66.68817061 57.6580286 69.3288566 57.65942383 71.97021484 C57.648638 72.75783707 57.63785217 73.54545929 57.6267395 74.35694885 C57.60504948 76.75291707 57.60504948 76.75291707 58 80 C61.14522749 82.09681833 61.90963728 82.25542511 65.5 82.265625 C66.82318237 82.27190918 66.82318237 82.27190918 68.1730957 82.27832031 C69.10597412 82.26897461 70.03885254 82.25962891 71 82.25 C72.42542114 82.23984863 72.42542114 82.23984863 73.87963867 82.22949219 C86.82293039 82.03883995 96.52042077 80.43444247 106.1875 71.4375 C115.55214173 61.64130796 118.52354272 49.49876232 118.25 36.21484375 C117.31716917 24.21922227 114.58876625 14.0372248 105.6875 5.6875 C94.54639587 -3.51760898 82.11060951 -5.23586464 68.01171875 -5.078125 C67.04536499 -5.07248535 66.07901123 -5.0668457 65.08337402 -5.06103516 C62.72214546 -5.04643714 60.36112627 -5.02596598 58 -5 Z " fill="#B00A36" transform="translate(555,110)"/>
<path d="M0 0 C0.97775391 -0.020625 1.95550781 -0.04125 2.96289062 -0.0625 C17.52144213 -0.13947846 31.06737184 5.35428909 41.8125 15.25 C53.12849157 27.3178847 56.25392355 37.62780687 56.03515625 53.90234375 C55.49329386 69.49366716 47.92953373 80.7274045 36.8125 91.125 C25.13828189 101.20486359 9.07376272 105.30184142 -6.1875 104.25 C-24.88410267 101.49539613 -39.69974604 94.54994848 -51.1875 79.25 C-58.5244949 68.08581946 -59.16824888 55.1754708 -57.1875 42.25 C-55.39440187 33.9441465 -52.81533769 27.59935534 -47.1875 21.25 C-46.34251953 20.15945312 -46.34251953 20.15945312 -45.48046875 19.046875 C-33.72213888 4.49130034 -17.88249898 0.09247575 0 0 Z M-31.4375 20.6875 C-39.77614237 32.8976549 -40.86170473 47.36155901 -38.65234375 61.73046875 C-37.97630261 64.64520349 -37.17327576 67.42611834 -36.1875 70.25 C-35.82205078 71.301875 -35.82205078 71.301875 -35.44921875 72.375 C-31.93492397 80.63609105 -24.98089176 88.31741112 -16.9375 92.25 C-15.04093381 92.97186719 -13.12187236 93.63660034 -11.1875 94.25 C-10.1046875 94.61222656 -9.021875 94.97445312 -7.90625 95.34765625 C2.86819608 98.3446024 12.42979856 96.39547376 22.25 91.1875 C30.23237473 85.50572235 34.92270266 76.66640401 36.8125 67.25 C37.039375 66.13625 37.26625 65.0225 37.5 63.875 C38.8436841 48.28826442 37.30348452 32.73417337 27.1484375 20.1953125 C18.68571504 11.19159408 8.59852287 7.24972501 -3.6875 6.8125 C-15.79324686 7.1571476 -23.43479237 12.01790007 -31.4375 20.6875 Z " fill="#AF0A36" transform="translate(418.1875,97.75)"/>
<path d="M0 0 C0.80695312 -0.00322266 1.61390625 -0.00644531 2.4453125 -0.00976562 C7.44079953 0.03483694 11.56699579 0.85220581 16.375 2.3125 C19.19356031 2.54998926 19.19356031 2.54998926 21.8125 2.4375 C22.67746094 2.41945313 23.54242187 2.40140625 24.43359375 2.3828125 C25.39458984 2.34800781 25.39458984 2.34800781 26.375 2.3125 C28.34843652 7.3343344 28.7836274 11.86834032 29 17.1875 C29.05800781 18.363125 29.05800781 18.363125 29.1171875 19.5625 C29.21066622 21.47881367 29.29388495 23.39562319 29.375 25.3125 C25.625 26.4375 25.625 26.4375 23.375 25.3125 C20.375 19.88942308 20.375 19.88942308 20.375 17.3125 C19.385 16.9825 18.395 16.6525 17.375 16.3125 C17.375 15.6525 17.375 14.9925 17.375 14.3125 C16.715 14.3125 16.055 14.3125 15.375 14.3125 C14.7975 13.69375 14.22 13.075 13.625 12.4375 C8.84799632 7.92588541 3.27886858 7.93053329 -2.99609375 8.05859375 C-6.46418347 8.39355041 -8.79664248 9.28188434 -11.625 11.3125 C-14.38570478 15.75071636 -14.36120963 20.24518481 -13.625 25.3125 C-11.79827725 29.84383653 -8.57811702 32.50389725 -4.5625 35.125 C-3.76787354 35.64416992 -2.97324707 36.16333984 -2.15454102 36.69824219 C2.88075251 39.91157688 7.9625193 43.05134276 13.06054688 46.1640625 C14.28547852 46.92589844 14.28547852 46.92589844 15.53515625 47.703125 C16.27386963 48.15719727 17.01258301 48.61126953 17.77368164 49.07910156 C18.56633423 49.68963379 18.56633423 49.68963379 19.375 50.3125 C19.375 50.9725 19.375 51.6325 19.375 52.3125 C19.96152344 52.57675781 20.54804687 52.84101563 21.15234375 53.11328125 C27.28906092 56.4243044 31.29456667 61.72446113 33.375 68.3125 C35.08943832 76.35717212 34.20262278 84.6677769 29.6875 91.72265625 C23.77430492 98.88536577 14.4332159 102.98850607 5.375 104.3125 C-0.92716764 104.63927906 -6.43950364 103.6826393 -12.5625 102.25 C-14.25793903 101.85815957 -15.95450564 101.47115491 -17.65234375 101.08984375 C-18.39218506 100.91702881 -19.13202637 100.74421387 -19.89428711 100.56616211 C-20.46542236 100.48245361 -21.03655762 100.39874512 -21.625 100.3125 C-22.12 100.8075 -22.12 100.8075 -22.625 101.3125 C-24.29117115 101.35313832 -25.95888095 101.355221 -27.625 101.3125 C-29.1158505 97.9137407 -29.94584123 94.9566189 -30.29296875 91.265625 C-30.38126953 90.33878906 -30.46957031 89.41195312 -30.56054688 88.45703125 C-30.64369141 87.50183594 -30.72683594 86.54664063 -30.8125 85.5625 C-30.90724609 84.59183594 -31.00199219 83.62117188 -31.09960938 82.62109375 C-31.58592711 77.31243446 -31.58592711 77.31243446 -31.625 75.3125 C-30.625 74.3125 -30.625 74.3125 -28.0625 74.25 C-27.258125 74.270625 -26.45375 74.29125 -25.625 74.3125 C-24.78709211 76.10203185 -23.95480604 77.89419695 -23.125 79.6875 C-22.6609375 80.68523437 -22.196875 81.68296875 -21.71875 82.7109375 C-20.625 85.3125 -20.625 85.3125 -20.625 87.3125 C-19.820625 87.68375 -19.820625 87.68375 -19 88.0625 C-16.625 89.3125 -16.625 89.3125 -13.5625 91.375 C-7.24535942 95.54162464 0.58057726 95.19924276 7.8671875 93.8515625 C11.43243798 92.70799159 13.36365552 91.32558978 15.8125 88.5 C18.19125257 83.64734476 18.94170722 80.38732116 17.1875 75.25 C15.00671233 69.54729854 11.34940248 65.98107985 6.1875 62.875 C5.21296875 62.27558594 4.2384375 61.67617187 3.234375 61.05859375 C2.29078125 60.48238281 1.3471875 59.90617187 0.375 59.3125 C-26.93734448 41.89391296 -26.93734448 41.89391296 -30.625 29.3125 C-31.31870948 23.27429635 -31.16083119 17.46471117 -27.625 12.3125 C-19.79955581 2.67246005 -12.21653119 -0.24630103 0 0 Z " fill="#AE0A35" transform="translate(733.625,97.6875)"/>
<path d="M0 0 C0 1.98 0 3.96 0 6 C-1.14339844 6.13277344 -2.28679687 6.26554687 -3.46484375 6.40234375 C-4.9557562 6.5805031 -6.44664018 6.75890082 -7.9375 6.9375 C-8.69224609 7.02451172 -9.44699219 7.11152344 -10.22460938 7.20117188 C-13.92187458 7.34324099 -13.92187458 7.34324099 -17 9 C-17.12497615 11.49399065 -17.1860288 13.96168329 -17.20532227 16.45727539 C-17.22017166 17.6279229 -17.22017166 17.6279229 -17.23532104 18.82221985 C-17.26702775 21.41400063 -17.2917295 24.00579977 -17.31640625 26.59765625 C-17.33696787 28.38985178 -17.35796413 30.18204237 -17.37937927 31.97422791 C-17.43468176 36.7006532 -17.48405483 41.42712285 -17.53222656 46.15362549 C-17.58238205 50.97290005 -17.63809911 55.79210988 -17.69335938 60.61132812 C-17.80104089 70.07416351 -17.90246351 79.53705499 -18 89 C-13.67669221 89.0496011 -9.35353715 89.0858144 -5.0300293 89.10986328 C-3.56059888 89.11989352 -2.09118829 89.13352101 -0.62182617 89.15087891 C1.49565537 89.17525898 3.61287199 89.18651286 5.73046875 89.1953125 C7.00301514 89.20578613 8.27556152 89.21625977 9.58666992 89.22705078 C12.88671012 89.00753591 15.04288502 88.4125608 18 87 C18.721875 86.71125 19.44375 86.4225 20.1875 86.125 C22.47445659 84.7055097 22.83848263 83.40875559 24 81 C25.76205712 78.09154427 27.57237811 75.39343003 30 73 C33.375 72.5 33.375 72.5 36 73 C32.75877483 82.42901869 27.99606562 90.11810556 23 99 C-0.76 99 -24.52 99 -49 99 C-49 93 -49 93 -48 92 C-45.19176801 91.71602148 -42.38353365 91.55153335 -39.56640625 91.37890625 C-36.8393833 91.23688035 -36.8393833 91.23688035 -35 89 C-34.79653652 86.5169596 -34.71676245 84.1449585 -34.7253418 81.66040039 C-34.72023087 80.90414871 -34.71511993 80.14789703 -34.70985413 79.36872864 C-34.69592119 76.86162465 -34.69691767 74.35479442 -34.69921875 71.84765625 C-34.69533376 70.10892128 -34.6909995 68.37018725 -34.68623352 66.63145447 C-34.67876329 62.98384528 -34.67906831 59.33633286 -34.68432617 55.6887207 C-34.690121 51.00985378 -34.67319352 46.33138268 -34.6499815 41.65258121 C-34.63526302 38.06068091 -34.63436989 34.46887633 -34.63749123 30.87695122 C-34.63697703 29.15174005 -34.63172096 27.42652365 -34.62167931 25.70134163 C-34.60936887 23.29029615 -34.61607364 20.88002681 -34.62768555 18.46899414 C-34.62004181 17.75356445 -34.61239807 17.03813477 -34.60452271 16.30102539 C-34.63525337 13.42026241 -34.66601792 11.47368021 -36.35456848 9.07884216 C-38.71139897 7.53356478 -40.91628159 7.2363334 -43.6875 6.8125 C-44.68136719 6.65394531 -45.67523438 6.49539062 -46.69921875 6.33203125 C-47.83810547 6.16767578 -47.83810547 6.16767578 -49 6 C-49 4.02 -49 2.04 -49 0 C-42.34326276 -0.16800441 -35.68636714 -0.32793562 -29.02929688 -0.48217773 C-26.76330137 -0.53564249 -24.49734915 -0.59097521 -22.23144531 -0.64819336 C-18.97991269 -0.7299795 -15.72828503 -0.80511006 -12.4765625 -0.87890625 C-10.94994492 -0.91945885 -10.94994492 -0.91945885 -9.39248657 -0.96083069 C-7.98125015 -0.99097511 -7.98125015 -0.99097511 -6.54150391 -1.02172852 C-5.29574081 -1.05170677 -5.29574081 -1.05170677 -4.02481079 -1.08229065 C-2 -1 -2 -1 0 0 Z " fill="#B10A37" transform="translate(325,100)"/>
<path d="M0 0 C8.58 0 17.16 0 26 0 C26 1.65 26 3.3 26 5 C23.69 5.66 21.38 6.32 19 7 C18.67 14.26 18.34 21.52 18 29 C29.55 28.67 41.1 28.34 53 28 C53 20.74 53 13.48 53 6 C50.03 5.67 47.06 5.34 44 5 C43.505 3.515 43.505 3.515 43 2 C43.33 1.34 43.66 0.68 44 0 C53.24 0 62.48 0 72 0 C72.495 2.475 72.495 2.475 73 5 C70.69 5.33 68.38 5.66 66 6 C66.33 23.49 66.66 40.98 67 59 C69.31 59.66 71.62 60.32 74 61 C74 62.32 74 63.64 74 65 C63.44 65 52.88 65 42 65 C42 63.68 42 62.36 42 61 C45.3 60.34 48.6 59.68 52 59 C52.33 51.41 52.66 43.82 53 36 C41.45 36 29.9 36 18 36 C18.33 43.92 18.66 51.84 19 60 C20.98 60 22.96 60 25 60 C25.33 61.65 25.66 63.3 26 65 C16.43 65 6.86 65 -3 65 C-3 63.68 -3 62.36 -3 61 C-0.36 60.34 2.28 59.68 5 59 C5 41.84 5 24.68 5 7 C3.02 6.34 1.04 5.68 -1 5 C-0.67 3.35 -0.34 1.7 0 0 Z " fill="#A40A32" transform="translate(278,22)"/>
<path d="M0 0 C0.92490234 -0.020625 1.84980469 -0.04125 2.80273438 -0.0625 C13.28169514 -0.12208187 21.46249643 4.17709414 28.96875 11.46484375 C35.22821827 18.27995323 37.58501402 23.98782974 37.6875 33.25 C36.60501616 45.20242569 32.51682627 53.07672274 23.6875 61.25 C15.77880081 66.54757311 6.20845201 69.78397932 -3.3125 69.25 C-6.0206263 68.63178127 -8.55735961 67.97267622 -11.1875 67.125 C-12.24022095 66.7861377 -12.24022095 66.7861377 -13.31420898 66.44042969 C-22.9844489 63.17117526 -29.97673867 58.11830137 -35.3125 49.25 C-38.70037727 41.2391999 -39.0807986 29.48069918 -35.875 21.3125 C-30.8984933 12.30240367 -22.53606394 3.71663396 -12.46728516 0.6965332 C-8.36048114 -0.15451422 -4.17931359 0.02301067 0 0 Z M-19.0625 12.875 C-24.76807259 20.4259393 -25.24546924 30.15623088 -24.3125 39.25 C-22.64156962 47.99348475 -19.65084538 53.23196954 -12.3125 58.25 C-11.28125 59.054375 -10.25 59.85875 -9.1875 60.6875 C-3.75990041 63.5572653 2.78144804 63.04019842 8.6875 62.25 C15.71879403 59.61461483 19.80622826 54.46645245 22.9375 47.8125 C26.65511256 37.84455876 25.45645347 28.40560324 21.171875 18.87109375 C17.6220385 12.60282982 13.56869573 8.51281908 6.6875 6.25 C-3.72470665 5.03976356 -11.22449467 5.39326764 -19.0625 12.875 Z " fill="#AD0B35" transform="translate(390.3125,20.75)"/>
<path d="M0 0 C6.02355451 5.40530111 10.23259776 12.17060898 10.90234375 20.2734375 C11.07717664 27.91087433 10.26719278 33.63475573 6.6640625 40.390625 C6.2515625 41.1846875 5.8390625 41.97875 5.4140625 42.796875 C0.12969481 51.80431993 -7.97340797 55.17782691 -17.5234375 58.328125 C-18.18843262 58.55209961 -18.85342773 58.77607422 -19.53857422 59.00683594 C-28.83682575 61.8390487 -39.66034679 58.35540759 -48.3359375 54.390625 C-55.82484653 49.30116617 -62.11915938 42.73032562 -64.015625 33.64453125 C-65.50731281 23.14814266 -63.3510186 14.53675186 -58.7109375 5.078125 C-55.147946 1.04631883 -50.85544132 -1.73332712 -46.3359375 -4.609375 C-45.53027344 -5.14691406 -44.72460938 -5.68445313 -43.89453125 -6.23828125 C-29.48513466 -13.9599579 -12.19044822 -9.06727554 0 0 Z M-45.3828125 3.6875 C-51.67523898 12.75090327 -53.57715585 20.85933142 -51.7109375 31.828125 C-49.72808337 39.8146208 -44.94182519 45.47719641 -38.36328125 50.19921875 C-31.89036064 54.0031509 -25.70403814 54.12743506 -18.3359375 53.390625 C-13.40072778 51.78884641 -9.58212825 48.35819147 -6.3359375 44.390625 C-1.04500416 33.34580166 -1.24291534 22.81237308 -5.13671875 11.28125 C-7.69031689 5.12599715 -11.58077137 1.7686573 -17.3359375 -1.609375 C-21.1199466 -2.87071137 -24.7037871 -2.87160333 -28.6484375 -2.921875 C-29.76895508 -2.96538086 -29.76895508 -2.96538086 -30.91210938 -3.00976562 C-37.34890747 -3.08323215 -41.02221904 -1.20568503 -45.3828125 3.6875 Z " fill="#AE0B36" transform="translate(706.3359375,29.609375)"/>
<path d="M0 0 C16.5 0 33 0 50 0 C51.18681726 3.56045177 51.09689832 6.43808337 51.0625 10.1875 C51.05347656 11.45980469 51.04445313 12.73210938 51.03515625 14.04296875 C51.02355469 15.01878906 51.01195312 15.99460937 51 17 C48.6875 17 48.6875 17 46 16 C45.01 13.36 44.02 10.72 43 8 C36.07 8 29.14 8 22 8 C22 14.27 22 20.54 22 27 C26.29 27 30.58 27 35 27 C35.66 25.02 36.32 23.04 37 21 C38.32 21 39.64 21 41 21 C41 28.26 41 35.52 41 43 C39.35 42.67 37.7 42.34 36 42 C35.505 39.03 35.505 39.03 35 36 C30.71 36 26.42 36 22 36 C22 43.26 22 50.52 22 58 C25.77198057 57.91325342 29.54151419 57.80639485 33.3125 57.6875 C34.38435547 57.66494141 35.45621094 57.64238281 36.56054688 57.61914062 C37.58857422 57.58369141 38.61660156 57.54824219 39.67578125 57.51171875 C40.62364502 57.48553467 41.57150879 57.45935059 42.5480957 57.43237305 C45.38697716 56.93175978 46.25868077 56.24596907 48 54 C48.97715609 52.19809386 48.97715609 52.19809386 49.6875 50.3125 C50.120625 49.219375 50.55375 48.12625 51 47 C52.65 47.33 54.3 47.66 56 48 C55.69268013 50.64653131 55.37940678 53.292115 55.0625 55.9375 C54.97548828 56.69224609 54.88847656 57.44699219 54.79882812 58.22460938 C54.11328125 63.88671875 54.11328125 63.88671875 53 65 C51.2507128 65.09365006 49.49763746 65.11744438 47.74584961 65.11352539 C46.62476303 65.11344986 45.50367645 65.11337433 44.34861755 65.11329651 C42.51896202 65.10555458 42.51896202 65.10555458 40.65234375 65.09765625 C39.41078018 65.0962413 38.16921661 65.09482635 36.89002991 65.09336853 C33.58394509 65.08870591 30.27792854 65.07971497 26.97186279 65.06866455 C23.6003885 65.05844827 20.22890717 65.05387045 16.85742188 65.04882812 C10.23826225 65.03777395 3.61913507 65.02101736 -3 65 C-3 63.68 -3 62.36 -3 61 C-1 60 -1 60 8 60 C8.33 42.18 8.66 24.36 9 6 C5.7 5.67 2.4 5.34 -1 5 C-0.67 3.35 -0.34 1.7 0 0 Z " fill="#A00B31" transform="translate(559,22)"/>
<path d="M0 0 C9.24 0 18.48 0 28 0 C28.33 1.65 28.66 3.3 29 5 C24.545 5.495 24.545 5.495 20 6 C20.06912457 11.42646953 20.15721073 16.85218667 20.26245117 22.27807617 C20.29559026 24.12174088 20.32365613 25.96550436 20.34643555 27.80932617 C20.38018512 30.46836208 20.43250966 33.12650187 20.48828125 35.78515625 C20.49467117 36.60210464 20.5010611 37.41905304 20.50764465 38.26075745 C20.64170456 43.54536407 21.48444768 47.3202918 24 52 C31.30764321 57.90830727 38.89450151 57.70887104 48 57 C52.95100622 55.79663043 56.06505292 54.34398643 59 50.125 C60.69833294 44.81770957 61.12737203 39.8012018 61.1328125 34.24609375 C61.13410156 32.97958984 61.13539063 31.71308594 61.13671875 30.40820312 C61.13091797 28.44270508 61.13091797 28.44270508 61.125 26.4375 C61.12886719 25.12330078 61.13273437 23.80910156 61.13671875 22.45507812 C61.13478516 20.55725586 61.13478516 20.55725586 61.1328125 18.62109375 C61.13112061 16.89524048 61.13112061 16.89524048 61.12939453 15.13452148 C61.01152183 12.27911084 60.77367538 9.74939405 60 7 C58.17138119 5.75702373 58.17138119 5.75702373 55.9375 5.1875 C55.20402344 4.95417969 54.47054687 4.72085937 53.71484375 4.48046875 C53.14894531 4.32191406 52.58304687 4.16335937 52 4 C52.33 2.68 52.66 1.36 53 0 C61.25 0 69.5 0 78 0 C78.495 2.475 78.495 2.475 79 5 C77.329375 5.309375 77.329375 5.309375 75.625 5.625 C71.88274004 6.58386013 71.88274004 6.58386013 70.7734375 9.36328125 C69.68816339 14.46626202 69.87954414 19.3652312 70 24.5625 C70.26956523 50.19430198 70.26956523 50.19430198 64 58 C57.15499436 64.23462297 48.21846988 67.23006182 39.1875 68.5625 C30.86535918 68.05547882 20.24435342 64.59656754 14.29296875 58.67578125 C8.92569078 51.71939983 7.86085189 44.89392155 7.68359375 36.296875 C7.6524221 35.04019012 7.6524221 35.04019012 7.62062073 33.75811768 C7.5553745 31.08882644 7.49635642 28.41943902 7.4375 25.75 C7.39429106 23.93749016 7.35067601 22.12498995 7.30664062 20.3125 C7.19971871 15.87509791 7.09838134 11.43759932 7 7 C4.69 6.34 2.38 5.68 0 5 C0 3.35 0 1.7 0 0 Z " fill="#AC0B34" transform="translate(429,22)"/>
<path d="M0 0 C1.34633263 0.02530289 1.34633263 0.02530289 2.71986389 0.05111694 C3.69072433 0.07501495 4.66158478 0.09891296 5.66186523 0.12353516 C6.65548569 0.14477448 7.64910614 0.16601379 8.6728363 0.18789673 C10.77527556 0.23419855 12.87765828 0.28312998 14.97998047 0.33447266 C18.21040989 0.41235538 21.44093822 0.47946259 24.67163086 0.54541016 C26.71005709 0.59163815 28.74846925 0.63849185 30.78686523 0.68603516 C31.75974991 0.7058847 32.73263458 0.72573425 33.73500061 0.7461853 C35.076605 0.78094467 35.076605 0.78094467 36.4453125 0.81640625 C37.63206322 0.84424698 37.63206322 0.84424698 38.8427887 0.87265015 C40.65795898 1.03759766 40.65795898 1.03759766 41.65795898 2.03759766 C41.7306764 4.3907332 41.74166766 6.74593434 41.72045898 9.10009766 C41.71143555 10.39044922 41.70241211 11.68080078 41.69311523 13.01025391 C41.68151367 14.00927734 41.66991211 15.00830078 41.65795898 16.03759766 C40.00795898 16.03759766 38.35795898 16.03759766 36.65795898 16.03759766 C35.99795898 13.72759766 35.33795898 11.41759766 34.65795898 9.03759766 C23.76795898 8.54259766 23.76795898 8.54259766 12.65795898 8.03759766 C12.65795898 14.63759766 12.65795898 21.23759766 12.65795898 28.03759766 C17.27795898 27.70759766 21.89795898 27.37759766 26.65795898 27.03759766 C27.31795898 25.38759766 27.97795898 23.73759766 28.65795898 22.03759766 C29.97795898 22.03759766 31.29795898 22.03759766 32.65795898 22.03759766 C32.65795898 28.63759766 32.65795898 35.23759766 32.65795898 42.03759766 C31.00795898 41.70759766 29.35795898 41.37759766 27.65795898 41.03759766 C27.53420898 40.39822266 27.41045898 39.75884766 27.28295898 39.10009766 C27.07670898 38.41947266 26.87045898 37.73884766 26.65795898 37.03759766 C23.95612843 35.68668238 21.53987692 35.69901708 18.53295898 35.47509766 C17.43725586 35.39130859 16.34155273 35.30751953 15.21264648 35.22119141 C13.94807617 35.1303125 13.94807617 35.1303125 12.65795898 35.03759766 C12.79640745 38.82957215 12.94496642 42.62108356 13.09545898 46.41259766 C13.13477539 47.49283203 13.1740918 48.57306641 13.21459961 49.68603516 C13.25649414 50.71728516 13.29838867 51.74853516 13.34155273 52.81103516 C13.37821045 53.76413574 13.41486816 54.71723633 13.45263672 55.69921875 C13.51559364 58.05892115 13.51559364 58.05892115 14.65795898 60.03759766 C17.68730389 60.69532194 17.68730389 60.69532194 20.65795898 61.03759766 C20.98795898 62.02759766 21.31795898 63.01759766 21.65795898 64.03759766 C21.32795898 64.69759766 20.99795898 65.35759766 20.65795898 66.03759766 C11.74795898 66.03759766 2.83795898 66.03759766 -6.34204102 66.03759766 C-6.01204102 64.38759766 -5.68204102 62.73759766 -5.34204102 61.03759766 C-3.69204102 61.03759766 -2.04204102 61.03759766 -0.34204102 61.03759766 C-0.34204102 43.54759766 -0.34204102 26.05759766 -0.34204102 8.03759766 C-2.32204102 7.37759766 -4.30204102 6.71759766 -6.34204102 6.03759766 C-6.34204102 4.38759766 -6.34204102 2.73759766 -6.34204102 1.03759766 C-3.97417112 -0.14633729 -2.6362026 -0.05648563 0 0 Z " fill="#AA0B34" transform="translate(726.342041015625,20.96240234375)"/>
<path d="M0 0 C0.76175537 0.00193359 1.52351074 0.00386719 2.30834961 0.00585938 C7.56205297 0.04619921 12.67035949 0.36796138 17.875 1.125 C18.21395656 2.85307318 18.54591525 4.58251974 18.875 6.3125 C19.060625 7.27542969 19.24625 8.23835938 19.4375 9.23046875 C19.84377612 11.9184206 19.95433572 14.41271019 19.875 17.125 C17.6875 17.625 17.6875 17.625 14.875 17.125 C13.40490893 15.19715602 12.29795288 13.22191248 11.18359375 11.0703125 C9.59830808 8.71367888 8.54941805 8.04819769 5.875 7.125 C3.15812503 6.80992313 3.15812503 6.80992313 0.3125 6.875 C-0.63753906 6.86984375 -1.58757813 6.8646875 -2.56640625 6.859375 C-5.36599273 6.94923925 -5.36599273 6.94923925 -8.125 9.125 C-8.73802787 12.41305856 -8.96052064 14.0003817 -8.125 17.125 C-5.10150388 21.41322652 -0.36488681 23.99710613 4.015625 26.7265625 C4.76078369 27.19408936 5.50594238 27.66161621 6.27368164 28.14331055 C7.76884467 29.07039136 9.27561581 29.97907569 10.79467773 30.86645508 C16.56140063 34.39183412 20.53602017 38.60983547 22.49438477 45.21362305 C23.58721352 50.52214913 22.29376149 55.35361503 19.875 60.125 C16.09488506 64.2386545 10.94484932 66.0034324 5.875 68.125 C4.885 68.62 4.885 68.62 3.875 69.125 C-0.83937446 69.58493897 -4.28842883 68.51956811 -8.5859375 66.78125 C-11.97882912 65.79134881 -11.97882912 65.79134881 -19.125 66.125 C-19.785 60.515 -20.445 54.905 -21.125 49.125 C-19.805 48.465 -18.485 47.805 -17.125 47.125 C-16.7125 47.82625 -16.3 48.5275 -15.875 49.25 C-15.2975 50.19875 -14.72 51.1475 -14.125 52.125 C-13.50625 53.15625 -12.8875 54.1875 -12.25 55.25 C-9.959575 58.3488103 -8.68992071 59.69903172 -5.125 61.125 C0.58714037 61.88661872 4.94664691 61.32842951 9.875 58.125 C11.49248513 54.89002975 11.43765527 51.62295324 10.875 48.125 C7.58499032 43.473607 2.64240228 41.05295 -2.13671875 38.078125 C-17.04707792 28.33279221 -17.04707792 28.33279221 -20.125 20.125 C-20.74543007 15.8558502 -20.64045333 12.38499704 -19 8.375 C-13.44217789 1.70561347 -8.59185004 -0.05171919 0 0 Z " fill="#AE0B36" transform="translate(531.125,20.875)"/>
<path d="M0 0 C1.32 0 2.64 0 4 0 C4 7.26 4 14.52 4 22 C2.35 21.67 0.7 21.34 -1 21 C-1.33 18.69 -1.66 16.38 -2 14 C-6.95 14 -11.9 14 -17 14 C-17 21.59 -17 29.18 -17 37 C-17.33 37 -17.66 37 -18 37 C-18 29.08 -18 21.16 -18 13 C-14.85069107 11.95023036 -12.61185544 11.89868405 -9.3125 11.9375 C-8.31863281 11.94652344 -7.32476563 11.95554687 -6.30078125 11.96484375 C-5.16189453 11.98224609 -5.16189453 11.98224609 -4 12 C-4 11.34 -4 10.68 -4 10 C-7.96 10 -11.92 10 -16 10 C-16.33 9.34 -16.66 8.68 -17 8 C-12.38 7.67 -7.76 7.34 -3 7 C-2.01 4.69 -1.02 2.38 0 0 Z " fill="#B9113D" transform="translate(596,43)"/>
<path d="M0 0 C17.85649203 -0.18451025 17.85649203 -0.18451025 26 1 C26.33895656 2.72807318 26.67091525 4.45751974 27 6.1875 C27.185625 7.15042969 27.37125 8.11335938 27.5625 9.10546875 C27.96877612 11.7934206 28.07933572 14.28771019 28 17 C25.8125 17.5 25.8125 17.5 23 17 C21.52990893 15.07215602 20.42295288 13.09691248 19.30859375 10.9453125 C17.7299748 8.59858941 16.64783754 7.95074957 14 7 C11.41467299 6.54935368 11.41467299 6.54935368 8.75 6.375 C7.85796875 6.30023437 6.9659375 6.22546875 6.046875 6.1484375 C5.03367187 6.07496094 5.03367187 6.07496094 4 6 C4 5.67 4 5.34 4 5 C7.465 4.505 7.465 4.505 11 4 C10.28972656 3.87882812 9.57945312 3.75765625 8.84765625 3.6328125 C7.92855469 3.46523438 7.00945313 3.29765625 6.0625 3.125 C4.68771484 2.88136719 4.68771484 2.88136719 3.28515625 2.6328125 C2.53105469 2.42398437 1.77695312 2.21515625 1 2 C0.67 1.34 0.34 0.68 0 0 Z " fill="#A50B33" transform="translate(523,21)"/>
<path d="M0 0 C2.64 0 5.28 0 8 0 C8 0.33 8 0.66 8 1 C5.69 1 3.38 1 1 1 C1 1.66 1 2.32 1 3 C24.1 3 47.2 3 71 3 C71.33 2.01 71.66 1.02 72 0 C71.67 1.65 71.34 3.3 71 5 C47.24 5 23.48 5 -1 5 C-0.67 3.35 -0.34 1.7 0 0 Z " fill="#A00C2E" transform="translate(277,194)"/>
<path d="M0 0 C0.33 0 0.66 0 1 0 C1 39.93 1 79.86 1 121 C0.01 120.67 -0.98 120.34 -2 120 C-2.495 117.525 -2.495 117.525 -3 115 C-2.01 115 -1.02 115 0 115 C0 77.05 0 39.1 0 0 Z " fill="#C11139" transform="translate(192,84)"/>
<path d="M0 0 C0.33 0.99 0.66 1.98 1 3 C15.52 3 30.04 3 45 3 C45 2.34 45 1.68 45 1 C42.69 1 40.38 1 38 1 C38 0.67 38 0.34 38 0 C40.97 0 43.94 0 47 0 C47 1.65 47 3.3 47 5 C31.49 5 15.98 5 0 5 C0 3.35 0 1.7 0 0 Z " fill="#A50E30" transform="translate(478,194)"/>
<path d="M0 0 C0.87454834 0.00523682 1.74909668 0.01047363 2.65014648 0.01586914 C3.59438477 0.0190918 4.53862305 0.02231445 5.51147461 0.02563477 C6.50469727 0.03401367 7.49791992 0.04239258 8.52124023 0.05102539 C9.51833008 0.05553711 10.51541992 0.06004883 11.54272461 0.06469727 C14.01478872 0.07652532 16.48673541 0.0930069 18.95874023 0.11352539 C19.28874023 0.77352539 19.61874023 1.43352539 19.95874023 2.11352539 C13.02874023 2.11352539 6.09874023 2.11352539 -1.04125977 2.11352539 C-1.04125977 9.04352539 -1.04125977 15.97352539 -1.04125977 23.11352539 C-1.70125977 23.11352539 -2.36125977 23.11352539 -3.04125977 23.11352539 C-3.07013488 19.46770852 -3.08801562 15.82192076 -3.10375977 12.17602539 C-3.11213867 11.13510742 -3.12051758 10.09418945 -3.12915039 9.02172852 C-3.13398437 7.53769531 -3.13398437 7.53769531 -3.13891602 6.02368164 C-3.14415283 5.10723877 -3.14938965 4.1907959 -3.15478516 3.24658203 C-3.00429848 0.41905065 -2.82708258 0.15722921 0 0 Z " fill="#C0193E" transform="translate(740.041259765625,25.886474609375)"/>
<path d="M0 0 C0.33 0 0.66 0 1 0 C1.33 7.26 1.66 14.52 2 22 C13.88 22 25.76 22 38 22 C38 22.33 38 22.66 38 23 C25.13 23 12.26 23 -1 23 C-1.020625 19.390625 -1.04125 15.78125 -1.0625 12.0625 C-1.071604 10.92304932 -1.08070801 9.78359863 -1.09008789 8.60961914 C-1.09258545 7.71879639 -1.09508301 6.82797363 -1.09765625 5.91015625 C-1.10289307 4.99371338 -1.10812988 4.07727051 -1.11352539 3.13305664 C-1 1 -1 1 0 0 Z " fill="#C51240" transform="translate(294,30)"/>
<path d="M0 0 C0 0.33 0 0.66 0 1 C6.6 1.33 13.2 1.66 20 2 C20.33 1.01 20.66 0.02 21 -1 C21.33 0.65 21.66 2.3 22 4 C12.43 4 2.86 4 -7 4 C-7 2.68 -7 1.36 -7 0 C-4.3333581 -1.33332095 -2.83319697 -0.67102033 0 0 Z " fill="#9D0C2E" transform="translate(282,83)"/>
<path d="M0 0 C0.66 0 1.32 0 2 0 C1.67 12.21 1.34 24.42 1 37 C0.34 36.67 -0.32 36.34 -1 36 C-1.02468447 31.19450253 -1.04285255 26.38904182 -1.05493164 21.58349609 C-1.05996621 19.94807289 -1.06679427 18.3126542 -1.07543945 16.67724609 C-1.08754335 14.32909025 -1.093237 11.98099381 -1.09765625 9.6328125 C-1.10281754 8.89942657 -1.10797882 8.16604065 -1.11329651 7.41043091 C-1.11387171 2.22774341 -1.11387171 2.22774341 0 0 Z " fill="#C51C46" transform="translate(447,28)"/>
<path d="M0 0 C6.93 0.495 6.93 0.495 14 1 C13.67 1.99 13.34 2.98 13 4 C9.93737964 5.2014361 6.8227868 5.16489052 3.5625 5.1875 C2.63566406 5.20167969 1.70882812 5.21585937 0.75390625 5.23046875 C-2.17833373 4.98507562 -4.33861389 4.22201577 -7 3 C-7 2.67 -7 2.34 -7 2 C-4.36 2 -1.72 2 1 2 C0.67 1.34 0.34 0.68 0 0 Z " fill="#BA123D" transform="translate(672,83)"/>
<path d="M0 0 C4.95 0 9.9 0 15 0 C15 0.33 15 0.66 15 1 C12.69 1.33 10.38 1.66 8 2 C8.99 2.99 9.98 3.98 11 5 C6.05 5.33 1.1 5.66 -4 6 C-3.34 4.68 -2.68 3.36 -2 2 C-1.34 2 -0.68 2 0 2 C0 1.34 0 0.68 0 0 Z " fill="#C9123D" transform="translate(383,21)"/>
<path d="M0 0 C2.31 0 4.62 0 7 0 C6.67 0.99 6.34 1.98 6 3 C6.66 3.66 7.32 4.32 8 5 C0.06603268 5.24923458 -7.2441657 4.70994772 -15 3 C-15 2.67 -15 2.34 -15 2 C-10.05 2 -5.1 2 0 2 C0 1.34 0 0.68 0 0 Z " fill="#BA113C" transform="translate(634,192)"/>
<path d="M0 0 C4.95 0 9.9 0 15 0 C15.33 0.99 15.66 1.98 16 3 C11.71 3 7.42 3 3 3 C2.67 7.62 2.34 12.24 2 17 C1.67 17 1.34 17 1 17 C0.67 11.39 0.34 5.78 0 0 Z " fill="#820B24" transform="translate(119,160)"/>
<path d="M0 0 C0.99 0 1.98 0 3 0 C3 7.26 3 14.52 3 22 C1.35 21.67 -0.3 21.34 -2 21 C-1.67257812 20.52046875 -1.34515625 20.0409375 -1.0078125 19.546875 C0.47674371 15.79520582 0.21108873 12.24319259 0.125 8.25 C0.11597656 7.45722656 0.10695313 6.66445313 0.09765625 5.84765625 C0.07417012 3.89830719 0.03830137 1.94911425 0 0 Z " fill="#A21236" transform="translate(597,43)"/>
<path d="M0 0 C1.20217503 2.40435006 1.03897118 3.68381369 0.87890625 6.3515625 C0.83056641 7.20234375 0.78222656 8.053125 0.73242188 8.9296875 C0.64831055 10.26386719 0.64831055 10.26386719 0.5625 11.625 C0.51029297 12.5221875 0.45808594 13.419375 0.40429688 14.34375 C0.2744565 16.56284012 0.13948661 18.78149871 0 21 C1.32 21.33 2.64 21.66 4 22 C2.125 22.625 2.125 22.625 0 23 C-3.57947971 19.42052029 -2.85080936 13.86734459 -3 9 C-2.84689978 5.28094056 -2.73816622 2.73816622 0 0 Z " fill="#560717" transform="translate(121,24)"/>
<path d="M0 0 C4.95 0 9.9 0 15 0 C14.67 0.99 14.34 1.98 14 3 C14.66 3.33 15.32 3.66 16 4 C9.64647324 6.03358813 4.57293456 7.60671734 -2 6 C-2 5.67 -2 5.34 -2 5 C3.445 4.505 3.445 4.505 9 4 C9 3.34 9 2.68 9 2 C6.03 1.67 3.06 1.34 0 1 C0 0.67 0 0.34 0 0 Z " fill="#9E0E2E" transform="translate(676,83)"/>
<path d="M0 0 C0.99 0 1.98 0 3 0 C3 6.6 3 13.2 3 20 C1.35 19.67 -0.3 19.34 -2 19 C-1.67 17.68 -1.34 16.36 -1 15 C-0.34 15 0.32 15 1 15 C0.67 10.05 0.34 5.1 0 0 Z " fill="#B2183D" transform="translate(756,43)"/>
<path d="M0 0 C0 0.33 0 0.66 0 1 C-1.0725 1.28875 -2.145 1.5775 -3.25 1.875 C-6.81899259 2.7982687 -6.81899259 2.7982687 -9.125 4.1875 C-11.76665786 5.33221841 -13.31628542 4.91811288 -16 4 C-16.66 3.01 -17.32 2.02 -18 1 C-15.93939936 0.63494484 -13.87640368 0.28339285 -11.8125 -0.0625 C-10.66394531 -0.25972656 -9.51539063 -0.45695312 -8.33203125 -0.66015625 C-5.21351634 -0.97822284 -3.00194217 -0.80843264 0 0 Z " fill="#9C0A30" transform="translate(683,21)"/>
<path d="M0 0 C5.28 0 10.56 0 16 0 C15.67 5.61 15.34 11.22 15 17 C14.67 17 14.34 17 14 17 C13.67 12.05 13.34 7.1 13 2 C9.04 1.67 5.08 1.34 1 1 C1 6.28 1 11.56 1 17 C0.67 17 0.34 17 0 17 C0 11.39 0 5.78 0 0 Z " fill="#C51442" transform="translate(144,160)"/>
<path d="M0 0 C1.39456452 0.00667256 2.78911118 0.01863093 4.18359375 0.03515625 C4.89451172 0.03966797 5.60542969 0.04417969 6.33789062 0.04882812 C8.09899388 0.06064761 9.86005411 0.07858362 11.62109375 0.09765625 C11.62109375 1.08765625 11.62109375 2.07765625 11.62109375 3.09765625 C6.67109375 2.76765625 1.72109375 2.43765625 -3.37890625 2.09765625 C-3.37890625 7.04765625 -3.37890625 11.99765625 -3.37890625 17.09765625 C-3.70890625 17.09765625 -4.03890625 17.09765625 -4.37890625 17.09765625 C-4.40575304 14.45175611 -4.42566982 11.80612529 -4.44140625 9.16015625 C-4.44978516 8.40541016 -4.45816406 7.65066406 -4.46679688 6.87304688 C-4.47543066 4.94771312 -4.43114958 3.02230044 -4.37890625 1.09765625 C-3.37890625 0.09765625 -3.37890625 0.09765625 0 0 Z " fill="#BE1642" transform="translate(97.37890625,159.90234375)"/>
<path d="M0 0 C0.66 0.33 1.32 0.66 2 1 C2.4140625 3.94140625 2.4140625 3.94140625 2.625 7.5625 C2.69976563 8.76003906 2.77453125 9.95757812 2.8515625 11.19140625 C2.90054688 12.11824219 2.94953125 13.04507813 3 14 C1.35 14 -0.3 14 -2 14 C-2.33 12.35 -2.66 10.7 -3 9 C-2.34 9 -1.68 9 -1 9 C-1.020625 7.700625 -1.04125 6.40125 -1.0625 5.0625 C-1.08399454 3.70834367 -1.07148199 2.35243917 -1 1 C-0.67 0.67 -0.34 0.34 0 0 Z " fill="#941030" transform="translate(548,24)"/>
<path d="M0 0 C0.66 0 1.32 0 2 0 C3.15241103 3.551693 2.95688275 6.59652098 2.66015625 10.296875 C2.56669922 11.50214844 2.47324219 12.70742188 2.37695312 13.94921875 C2.27318359 15.20347656 2.16941406 16.45773438 2.0625 17.75 C1.96259766 19.01972656 1.86269531 20.28945313 1.75976562 21.59765625 C1.51229543 24.73227868 1.25881873 27.86629754 1 31 C0.67 31 0.34 31 0 31 C0 20.77 0 10.54 0 0 Z " fill="#BC0E3C" transform="translate(496,31)"/>
<path d="M0 0 C0.66 0.33 1.32 0.66 2 1 C2 5.62 2 10.24 2 15 C1.01 15 0.02 15 -1 15 C-2.13129791 9.97200929 -1.85122426 6.02222315 -1 1 C-0.67 0.67 -0.34 0.34 0 0 Z " fill="#A81338" transform="translate(608,24)"/>
<path d="M0 0 C4.62 0 9.24 0 14 0 C11 2 11 2 7 2 C7 2.99 7 3.98 7 5 C4.69 5 2.38 5 0 5 C0 3.35 0 1.7 0 0 Z " fill="#C00F38" transform="translate(429,22)"/>
<path d="M0 0 C4.29 0 8.58 0 13 0 C10.9375 2.5 10.9375 2.5 8 5 C4.1875 5.3125 4.1875 5.3125 1 5 C0 3 0 3 0 0 Z " fill="#8B0B29" transform="translate(277,192)"/>
<path d="M0 0 C1.95979427 0.28168297 3.91782378 0.57566717 5.875 0.875 C7.51082031 1.11863281 7.51082031 1.11863281 9.1796875 1.3671875 C12 2 12 2 14 4 C13.39671875 4.03738281 12.7934375 4.07476563 12.171875 4.11328125 C7.5526711 4.49324802 4.53065899 4.75179373 1 8 C0.34 8 -0.32 8 -1 8 C0 6 1 4 2 2 C1.34 2 0.68 2 0 2 C0 1.34 0 0.68 0 0 Z " fill="#C2133D" transform="translate(522,22)"/>
<path d="M0 0 C1.31484375 0.06574219 1.31484375 0.06574219 2.65625 0.1328125 C7.17047635 0.37755971 11.55245522 0.76182519 16 1.625 C16 1.955 16 2.285 16 2.625 C9.84765625 3.50390625 9.84765625 3.50390625 8 3.625 C7.67 3.295 7.34 2.965 7 2.625 C5.29436222 2.46759395 3.58272756 2.37406608 1.87109375 2.30859375 C0.83662109 2.26669922 -0.19785156 2.22480469 -1.26367188 2.18164062 C-2.35228516 2.14232422 -3.44089844 2.10300781 -4.5625 2.0625 C-5.65498047 2.01931641 -6.74746094 1.97613281 -7.87304688 1.93164062 C-10.58189564 1.82517932 -13.29083992 1.72316484 -16 1.625 C-16 1.295 -16 0.965 -16 0.625 C-10.57344412 -0.57098436 -5.49807091 -0.32341594 0 0 Z " fill="#980D2C" transform="translate(637,98.375)"/>
<path d="M0 0 C-3.41016497 2.86453858 -6.90694544 4.34703566 -11 6 C-11 5.34 -11 4.68 -11 4 C-12.32 3.67 -13.64 3.34 -15 3 C-3 -1 -3 -1 0 0 Z " fill="#940F2A" transform="translate(439,191)"/>
<path d="M0 0 C4.18423892 3.50897269 8.19588166 7.08060535 12 11 C11.67 11.99 11.34 12.98 11 14 C6.90261949 10.65073672 2.98901176 7.4237374 0 3 C0 2.01 0 1.02 0 0 Z " fill="#BB1239" transform="translate(556,166)"/>
<path d="M0 0 C0.33 0.99 0.66 1.98 1 3 C0.319375 4.0828125 0.319375 4.0828125 -0.375 5.1875 C-2.50728728 8.87799721 -2.64177132 11.77290158 -3 16 C-3.66 16 -4.32 16 -5 16 C-6.04698647 11.72480525 -6.36279192 9.00830796 -4.1875 5.1875 C-2 2 -2 2 0 0 Z " fill="#861130" transform="translate(202,181)"/>
<path d="M0 0 C2.31 0 4.62 0 7 0 C7.66 1.32 8.32 2.64 9 4 C4.545 4.495 4.545 4.495 0 5 C-0.33 4.01 -0.66 3.02 -1 2 C-0.67 1.34 -0.34 0.68 0 0 Z " fill="#B5123A" transform="translate(322,22)"/>
<path d="M0 0 C1.32 0.33 2.64 0.66 4 1 C3.175 1.845625 2.35 2.69125 1.5 3.5625 C-0.84014589 6.32453135 -1.00003886 7.00048191 -1.3125 10.875 C-1.209375 11.90625 -1.10625 12.9375 -1 14 C-1.66 14 -2.32 14 -3 14 C-4.07511878 9.60993163 -4.3257941 6.95377757 -2.0625 3.0625 C-1.381875 2.051875 -0.70125 1.04125 0 0 Z " fill="#8B0C2B" transform="translate(200,127)"/>
<path d="M0 0 C0.99 0.66 1.98 1.32 3 2 C3.40843923 4.71203652 3.13336867 7.2437142 3 10 C-0.75 11.125 -0.75 11.125 -3 10 C-3 9.01 -3 8.02 -3 7 C-2.34 7 -1.68 7 -1 7 C-0.67 4.69 -0.34 2.38 0 0 Z " fill="#830E2B" transform="translate(760,113)"/>
<path d="M0 0 C1.32 0.66 2.64 1.32 4 2 C3.42655063 4.86724686 3.1385485 5.8614515 1 8 C0.35232207 10.57061311 0.35232207 10.57061311 0 13 C-0.33 13 -0.66 13 -1 13 C-1.22151549 11.20991533 -1.42682213 9.41781838 -1.625 7.625 C-1.74101562 6.62726563 -1.85703125 5.62953125 -1.9765625 4.6015625 C-1.98429687 3.74304688 -1.99203125 2.88453125 -2 2 C-1.34 1.34 -0.68 0.68 0 0 Z " fill="#8E0D2D" transform="translate(512,68)"/>
<path d="M0 0 C0.66 0 1.32 0 2 0 C2 3.96 2 7.92 2 12 C1.01 12 0.02 12 -1 12 C-1 10.68 -1 9.36 -1 8 C-1.66 8 -2.32 8 -3 8 C-3 7.34 -3 6.68 -3 6 C-2.34 6 -1.68 6 -1 6 C-0.67 4.02 -0.34 2.04 0 0 Z " fill="#C81C48" transform="translate(765,24)"/>
<path d="M0 0 C1.27875 0.103125 2.5575 0.20625 3.875 0.3125 C4.95394531 0.39951172 4.95394531 0.39951172 6.0546875 0.48828125 C8 1 8 1 10 4 C6.37 4 2.74 4 -1 4 C-0.67 2.68 -0.34 1.36 0 0 Z " fill="#BD1147" transform="translate(558,82)"/>
<path d="M0 0 C6.27 0 12.54 0 19 0 C19.33 1.65 19.66 3.3 20 5 C18.02 5 16.04 5 14 5 C15.32 4.67 16.64 4.34 18 4 C17.67 3.34 17.34 2.68 17 2 C11.39 1.67 5.78 1.34 0 1 C0 0.67 0 0.34 0 0 Z " fill="#B40E29" transform="translate(331,22)"/>
<path d="M0 0 C3.73487777 0.4979837 5.81237635 0.87491756 9 3 C9.33 2.01 9.66 1.02 10 0 C10.33 1.65 10.66 3.3 11 5 C9.234375 5.6484375 9.234375 5.6484375 7 6 C5.078125 5.0390625 5.078125 5.0390625 3.25 3.625 C2.63640625 3.16351563 2.0228125 2.70203125 1.390625 2.2265625 C0.93171875 1.82179687 0.4728125 1.41703125 0 1 C0 0.67 0 0.34 0 0 Z " fill="#970B2A" transform="translate(147,41)"/>
<path d="M0 0 C0.99 0 1.98 0 3 0 C3 0.99 3 1.98 3 3 C-4.59 3 -12.18 3 -20 3 C-20 2.67 -20 2.34 -20 2 C-13.4 2 -6.8 2 0 2 C0 1.34 0 0.68 0 0 Z " fill="#C00D3B" transform="translate(602,80)"/>
<path d="M0 0 C1.98 0.495 1.98 0.495 4 1 C4.33 2.65 4.66 4.3 5 6 C3.68 5.67 2.36 5.34 1 5 C0.67 6.65 0.34 8.3 0 10 C-0.33 10 -0.66 10 -1 10 C-0.67 6.7 -0.34 3.4 0 0 Z " fill="#BA103D" transform="translate(513,72)"/>
<path d="M0 0 C0 0.66 0 1.32 0 2 C-3 3 -3 3 -5.1875 2.0625 C-5.785625 1.711875 -6.38375 1.36125 -7 1 C-4.50935112 0.31292445 -2.62113708 0 0 0 Z M-5 3 C-4.01 3.33 -3.02 3.66 -2 4 C-2 4.99 -2 5.98 -2 7 C-3.98 7.66 -5.96 8.32 -8 9 C-8.33 8.34 -8.66 7.68 -9 7 C-8.01 7 -7.02 7 -6 7 C-5.67 5.68 -5.34 4.36 -5 3 Z " fill="#960A2A" transform="translate(383,21)"/>
<path d="M0 0 C0 1.32 0 2.64 0 4 C-6.52307692 4.36923077 -6.52307692 4.36923077 -8.9375 2.5 C-9.4634375 1.7575 -9.4634375 1.7575 -10 1 C-2.25 0 -2.25 0 0 0 Z " fill="#C0113F" transform="translate(537,83)"/>
<path d="M0 0 C-0.66 1.98 -1.32 3.96 -2 6 C-2.598125 5.690625 -3.19625 5.38125 -3.8125 5.0625 C-6.08956772 3.89790296 -6.08956772 3.89790296 -9 3 C-6.38997624 -0.48003168 -4.1689578 -0.27793052 0 0 Z " fill="#9C0F32" transform="translate(361,173)"/>
<path d="M0 0 C2.17240606 3.25860909 2.23564158 3.82050803 1.8125 7.5 C1.73644531 8.2734375 1.66039062 9.046875 1.58203125 9.84375 C0.9062105 12.34746175 -0.03996044 13.35166485 -2 15 C-2.33 14.01 -2.66 13.02 -3 12 C-2.34 12 -1.68 12 -1 12 C-0.67 8.04 -0.34 4.08 0 0 Z " fill="#7E0523" transform="translate(220,158)"/>
<path d="M0 0 C0.33 0.66 0.66 1.32 1 2 C-2.12621626 5.39417765 -4.56541027 7.6062718 -9 9 C-7.55536047 5.62917442 -5.75336875 3.41962708 -3 1 C-2.01 0.67 -1.02 0.34 0 0 Z " fill="#B4123C" transform="translate(663,180)"/>
<path d="M0 0 C0.66 0 1.32 0 2 0 C1.67 3.3 1.34 6.6 1 10 C0.01 9.67 -0.98 9.34 -2 9 C-1.125 2.25 -1.125 2.25 0 0 Z " fill="#84102D" transform="translate(198,157)"/>
<path d="M0 0 C3.63 0 7.26 0 11 0 C11 0.33 11 0.66 11 1 C9.329375 1.12375 9.329375 1.12375 7.625 1.25 C3.94246056 1.57873787 3.94246056 1.57873787 2.5625 4.0625 C2.376875 4.701875 2.19125 5.34125 2 6 C1.34 6 0.68 6 0 6 C0 4.02 0 2.04 0 0 Z " fill="#931231" transform="translate(276,100)"/>
<path d="M0 0 C-0.33 0.99 -0.66 1.98 -1 3 C-5.29 3 -9.58 3 -14 3 C-14 2.67 -14 2.34 -14 2 C-12.22978678 1.663389 -10.45880326 1.33082707 -8.6875 1 C-7.70136719 0.814375 -6.71523438 0.62875 -5.69921875 0.4375 C-3 0 -3 0 0 0 Z " fill="#BA0F3D" transform="translate(434,197)"/>
<path d="M0 0 C0.66 0 1.32 0 2 0 C1.95875 0.763125 1.9175 1.52625 1.875 2.3125 C1.77919176 5.22718416 1.77919176 5.22718416 4 8 C4 8.99 4 9.98 4 11 C3.01 10.67 2.02 10.34 1 10 C-0.60725635 6.78548731 -0.05748185 3.56387464 0 0 Z " fill="#B6143D" transform="translate(57,189)"/>
<path d="M0 0 C0.99 0.33 1.98 0.66 3 1 C-2.14285714 6.57142857 -2.14285714 6.57142857 -6 7 C-6 6.01 -6 5.02 -6 4 C-3.5625 2.375 -3.5625 2.375 -1 1 C-0.67 0.67 -0.34 0.34 0 0 Z " fill="#990D30" transform="translate(490,78)"/>
<path d="M0 0 C6.15234375 0.5859375 6.15234375 0.5859375 8 1 C8.33 1.66 8.66 2.32 9 3 C4.71 3 0.42 3 -4 3 C-2.68 2.67 -1.36 2.34 0 2 C0 1.34 0 0.68 0 0 Z " fill="#B9123D" transform="translate(711,195)"/>
<path d="M0 0 C2.97 0 5.94 0 9 0 C9 0.66 9 1.32 9 2 C6.29120665 3.35439668 3.99066732 3.06501451 1 3 C0.67 2.01 0.34 1.02 0 0 Z " fill="#8F0925" transform="translate(528,87)"/>
<path d="M0 0 C0.66 0 1.32 0 2 0 C2.33 1.32 2.66 2.64 3 4 C3.61875 4.103125 4.2375 4.20625 4.875 4.3125 C7 5 7 5 9 8 C2.18181818 6.03030303 2.18181818 6.03030303 0 3 C0 2.01 0 1.02 0 0 Z " fill="#B6133D" transform="translate(58,168)"/>
<path d="M0 0 C0.66 0.33 1.32 0.66 2 1 C2.484375 3.21484375 2.484375 3.21484375 2.75 5.9375 C2.84796875 6.83339844 2.9459375 7.72929688 3.046875 8.65234375 C3 11 3 11 1 13 C0.83052421 11.58366664 0.66454493 10.16691467 0.5 8.75 C0.4071875 7.96109375 0.314375 7.1721875 0.21875 6.359375 C0 4 0 4 0 0 Z " fill="#850A28" transform="translate(559,119)"/>
<path d="M0 0 C0.66 0.33 1.32 0.66 2 1 C2 1.66 2 2.32 2 3 C-0.8125 5.6875 -0.8125 5.6875 -4 8 C-4.99 7.67 -5.98 7.34 -7 7 C-4.69 4.69 -2.38 2.38 0 0 Z " fill="#BB0D39" transform="translate(713,103)"/>
<path d="M0 0 C0.66 0 1.32 0 2 0 C2.33 1.65 2.66 3.3 3 5 C0.36 4.67 -2.28 4.34 -5 4 C-5 3.34 -5 2.68 -5 2 C-3.35 2 -1.7 2 0 2 C0 1.34 0 0.68 0 0 Z " fill="#800826" transform="translate(88,51)"/>
<path d="M0 0 C0.66 0.33 1.32 0.66 2 1 C2.29296875 7.0546875 2.29296875 7.0546875 2 9 C1.01 9.66 0.02 10.32 -1 11 C-0.67 8.03 -0.34 5.06 0 2 C-0.66 1.67 -1.32 1.34 -2 1 C-1.34 0.67 -0.68 0.34 0 0 Z " fill="#B70F3B" transform="translate(73,103)"/>
<path d="M0 0 C0 0.99 0 1.98 0 3 C-1.8125 4.75 -1.8125 4.75 -4 6 C-4.99 5.67 -5.98 5.34 -7 5 C-6.67 4.01 -6.34 3.02 -6 2 C-2.9375 0.8125 -2.9375 0.8125 0 0 Z " fill="#A3092E" transform="translate(69,28)"/>
<path d="M0 0 C0.33 0 0.66 0 1 0 C1 2.31 1 4.62 1 7 C-1.31 6.34 -3.62 5.68 -6 5 C-6 4.34 -6 3.68 -6 3 C-4.35 3 -2.7 3 -1 3 C-0.67 2.01 -0.34 1.02 0 0 Z " fill="#BC163E" transform="translate(116,33)"/>
<path d="M0 0 C2.97 0.33 5.94 0.66 9 1 C8.67 1.99 8.34 2.98 8 4 C5.69 3.67 3.38 3.34 1 3 C0.67 2.01 0.34 1.02 0 0 Z " fill="#950C28" transform="translate(537,21)"/>
<path d="M0 0 C0.33 0 0.66 0 1 0 C1.25 2.25 1.25 2.25 1 5 C-1 7.3125 -1 7.3125 -3 9 C-3.33 7.35 -3.66 5.7 -4 4 C-2.68 4 -1.36 4 0 4 C0 2.68 0 1.36 0 0 Z " fill="#B7133B" transform="translate(159,173)"/>
<path d="M0 0 C0.99 0 1.98 0 3 0 C3 2 3 2 1.5625 3.5 C1.046875 3.995 0.53125 4.49 0 5 C-0.33 5.66 -0.66 6.32 -1 7 C-1.66 7 -2.32 7 -3 7 C-2.25 2.25 -2.25 2.25 0 0 Z " fill="#BC1341" transform="translate(61,154)"/>
<path d="M0 0 C1.32 0.33 2.64 0.66 4 1 C1.69 2.65 -0.62 4.3 -3 6 C-3.33 5.01 -3.66 4.02 -4 3 C-2.25 1.4375 -2.25 1.4375 0 0 Z " fill="#BB0D3C" transform="translate(203,153)"/>
<path d="M0 0 C3.53790403 3.69172595 3.59115883 7.09390595 4 12 C0.46209597 8.30827405 0.40884117 4.90609405 0 0 Z " fill="#9F0B2D" transform="translate(550,60)"/>
<path d="M0 0 C0 0.99 0 1.98 0 3 C-2.64 3 -5.28 3 -8 3 C-5.53387212 -0.1151089 -3.89156016 -0.31553191 0 0 Z " fill="#920C2F" transform="translate(169,29)"/>
<path d="M0 0 C0.763125 0.061875 1.52625 0.12375 2.3125 0.1875 C2.6425 1.1775 2.9725 2.1675 3.3125 3.1875 C0.3425 3.1875 -2.6275 3.1875 -5.6875 3.1875 C-2.6875 0.1875 -2.6875 0.1875 0 0 Z " fill="#B8103E" transform="translate(388.6875,21.8125)"/>
<path d="M0 0 C0.66 0 1.32 0 2 0 C1.67 1.65 1.34 3.3 1 5 C-0.32 5.33 -1.64 5.66 -3 6 C-1.125 1.125 -1.125 1.125 0 0 Z " fill="#A20B2F" transform="translate(99,20)"/>
<path d="M0 0 C1 3 1 3 -0.25 5.6875 C-0.8275 6.450625 -1.405 7.21375 -2 8 C-2.99 8 -3.98 8 -5 8 C-3.8141763 4.62496331 -2.72426311 2.35277269 0 0 Z " fill="#930C2E" transform="translate(202,181)"/>
<path d="M0 0 C1.98 0 3.96 0 6 0 C5.67 0.66 5.34 1.32 5 2 C4.34 2 3.68 2 3 2 C3.33 3.32 3.66 4.64 4 6 C3.34 6 2.68 6 2 6 C0 3 0 3 0 0 Z " fill="#B4143E" transform="translate(177,177)"/>
<path d="M0 0 C2.0625 0.4375 2.0625 0.4375 4 1 C3.01 1.33 2.02 1.66 1 2 C0.67 4.31 0.34 6.62 0 9 C-0.33 9 -0.66 9 -1 9 C-1.09765625 2.84765625 -1.09765625 2.84765625 -1 1 C-0.67 0.67 -0.34 0.34 0 0 Z " fill="#B8153F" transform="translate(72,173)"/>
<path d="M0 0 C0.33 1.32 0.66 2.64 1 4 C-0.65 4.33 -2.3 4.66 -4 5 C-4 4.34 -4 3.68 -4 3 C-4.66 2.67 -5.32 2.34 -6 2 C-4.02 1.34 -2.04 0.68 0 0 Z " fill="#960B2F" transform="translate(480,78)"/>
<path d="M0 0 C0.66 0.33 1.32 0.66 2 1 C2 5.62 2 10.24 2 15 C1.67 15 1.34 15 1 15 C0.93941406 14.24074219 0.87882813 13.48148438 0.81640625 12.69921875 C0.73261719 11.70535156 0.64882813 10.71148437 0.5625 9.6875 C0.48128906 8.70136719 0.40007813 7.71523438 0.31640625 6.69921875 C0.08187441 3.90624401 0.08187441 3.90624401 -1 1 C-0.67 0.67 -0.34 0.34 0 0 Z " fill="#BC143E" transform="translate(755,43)"/>
<path d="M0 0 C0.66 0 1.32 0 2 0 C2 0.66 2 1.32 2 2 C5.3 2 8.6 2 12 2 C12 2.33 12 2.66 12 3 C7.71 3 3.42 3 -1 3 C-0.67 2.01 -0.34 1.02 0 0 Z " fill="#BC1948" transform="translate(726,193)"/>
<path d="M0 0 C0.66 0 1.32 0 2 0 C0.71480435 2.86697492 -0.57129254 4.97607712 -3 7 C-3.66 7 -4.32 7 -5 7 C-4.1875 5.0625 -4.1875 5.0625 -3 3 C-2.01 2.67 -1.02 2.34 0 2 C0 1.34 0 0.68 0 0 Z " fill="#C51843" transform="translate(676,179)"/>
<path d="M0 0 C0.66 0.66 1.32 1.32 2 2 C0.37660195 3.70884005 -1.29319053 5.37446717 -3 7 C-3.66 7 -4.32 7 -5 7 C-3.70700306 4.11562221 -2.34058637 2.12780579 0 0 Z " fill="#A20F31" transform="translate(392,110)"/>
<path d="M0 0 C0.66 0 1.32 0 2 0 C1.5206753 4.31392226 0.2542015 6.16569547 -3 9 C-3 5.30581799 -1.71820705 3.22163822 0 0 Z " fill="#BB113F" transform="translate(710,68)"/>
<path d="M0 0 C0.66 0 1.32 0 2 0 C1.8125 1.875 1.8125 1.875 1 4 C-1.5625 5.25 -1.5625 5.25 -4 6 C-3.34 4.68 -2.68 3.36 -2 2 C-1.34 2 -0.68 2 0 2 C0 1.34 0 0.68 0 0 Z " fill="#9B0E2C" transform="translate(203,68)"/>
<path d="M0 0 C1.2077558 3.62326739 0.54311128 4.64146369 -1 8 C-1.99 8 -2.98 8 -4 8 C-2.87548273 5.0280615 -1.77706209 2.66559313 0 0 Z " fill="#880B26" transform="translate(650,32)"/>
<path d="M0 0 C3.3 0 6.6 0 10 0 C10 0.99 10 1.98 10 3 C8.68 3 7.36 3 6 3 C6 2.34 6 1.68 6 1 C4.02 1 2.04 1 0 1 C0 0.67 0 0.34 0 0 Z " fill="#BD1239" transform="translate(145,16)"/>
<path d="M0 0 C0 3 0 3 -1.875 5.1875 C-4 7 -4 7 -6 7 C-6 6.34 -6 5.68 -6 5 C-5.34 5 -4.68 5 -4 5 C-3.71125 4.360625 -3.4225 3.72125 -3.125 3.0625 C-2 1 -2 1 0 0 Z " fill="#C61440" transform="translate(461,180)"/>
<path d="M0 0 C3.36720387 1.39332574 4.9859524 2.9789286 7 6 C3.75728494 5.4409112 2.06942576 4.5867822 0 2 C0 1.34 0 0.68 0 0 Z " fill="#B3143C" transform="translate(372,181)"/>
<path d="M0 0 C1.65 0 3.3 0 5 0 C4.01 0.66 3.02 1.32 2 2 C1.27617533 4.05925139 1.27617533 4.05925139 1 6 C0.34 5.67 -0.32 5.34 -1 5 C-0.67 3.35 -0.34 1.7 0 0 Z " fill="#940E3E" transform="translate(703,172)"/>
<path d="M0 0 C2.4375 0.75 2.4375 0.75 5 2 C5.8125 4.125 5.8125 4.125 6 6 C1.125 3.375 1.125 3.375 0 0 Z " fill="#B8103B" transform="translate(753,151)"/>
<path d="M0 0 C0.66 0.99 1.32 1.98 2 3 C0.68 4.32 -0.64 5.64 -2 7 C-2.99 6.67 -3.98 6.34 -5 6 C-4.360625 5.38125 -3.72125 4.7625 -3.0625 4.125 C-0.96116416 2.17402388 -0.96116416 2.17402388 0 0 Z " fill="#970D32" transform="translate(541,140)"/>
<path d="M0 0 C0.99 0.495 0.99 0.495 2 1 C2.75 3.375 2.75 3.375 3 6 C2.34 6.99 1.68 7.98 1 9 C-0.4783226 6.04335481 -0.06032783 3.25770263 0 0 Z " fill="#BC0F37" transform="translate(688,132)"/>
<path d="M0 0 C4.29 0.33 8.58 0.66 13 1 C13 1.33 13 1.66 13 2 C4.57142857 3.42857143 4.57142857 3.42857143 0 1 C0 0.67 0 0.34 0 0 Z " fill="#800822" transform="translate(640,99)"/>
<path d="M0 0 C2.5 2.3125 2.5 2.3125 5 5 C5 5.99 5 6.98 5 8 C2.5 5.6875 2.5 5.6875 0 3 C0 2.01 0 1.02 0 0 Z " fill="#A91139" transform="translate(658,70)"/>
<path d="M0 0 C0.66 0.33 1.32 0.66 2 1 C1.34 3.31 0.68 5.62 0 8 C-1.125 6.25 -1.125 6.25 -2 4 C-1.125 1.75 -1.125 1.75 0 0 Z " fill="#8B0D2A" transform="translate(424,63)"/>
<path d="M0 0 C1.98 0.495 1.98 0.495 4 1 C3.67 2.32 3.34 3.64 3 5 C1.68 4.34 0.36 3.68 -1 3 C-0.67 2.01 -0.34 1.02 0 0 Z " fill="#780A25" transform="translate(196,34)"/>
<path d="M0 0 C0.99 0.33 1.98 0.66 3 1 C4.1875 4.0625 4.1875 4.0625 5 7 C2 6 2 6 0 3 C0 2.01 0 1.02 0 0 Z " fill="#BC1338" transform="translate(698,34)"/>
<path d="M0 0 C0 0.66 0 1.32 0 2 C-2.31 3.32 -4.62 4.64 -7 6 C-6.6875 4.125 -6.6875 4.125 -6 2 C-3 0 -3 0 0 0 Z " fill="#880C28" transform="translate(180,20)"/>
<path d="" fill="#000000" transform="translate(0,0)"/>
<path d="" fill="#000000" transform="translate(0,0)"/>
<path d="" fill="#000000" transform="translate(0,0)"/>
<path d="" fill="#000000" transform="translate(0,0)"/>
<path d="" fill="#000000" transform="translate(0,0)"/>
<path d="" fill="#000000" transform="translate(0,0)"/>
<path d="" fill="#000000" transform="translate(0,0)"/>
<path d="" fill="#000000" transform="translate(0,0)"/>
<path d="" fill="#000000" transform="translate(0,0)"/>
<path d="" fill="#000000" transform="translate(0,0)"/>
<path d="" fill="#000000" transform="translate(0,0)"/>
<path d="" fill="#000000" transform="translate(0,0)"/>
<path d="" fill="#000000" transform="translate(0,0)"/>
<path d="" fill="#000000" transform="translate(0,0)"/>
<path d="" fill="#000000" transform="translate(0,0)"/>
<path d="" fill="#000000" transform="translate(0,0)"/>
<path d="" fill="#000000" transform="translate(0,0)"/>
<path d="" fill="#000000" transform="translate(0,0)"/>
<path d="" fill="#000000" transform="translate(0,0)"/>
<path d="" fill="#000000" transform="translate(0,0)"/>
<path d="" fill="#000000" transform="translate(0,0)"/>
<path d="" fill="#000000" transform="translate(0,0)"/>
<path d="" fill="#000000" transform="translate(0,0)"/>
<path d="" fill="#000000" transform="translate(0,0)"/>
<path d="" fill="#000000" transform="translate(0,0)"/>
<path d="" fill="#000000" transform="translate(0,0)"/>
<path d="" fill="#000000" transform="translate(0,0)"/>
<path d="" fill="#000000" transform="translate(0,0)"/>
<path d="" fill="#000000" transform="translate(0,0)"/>
<path d="" fill="#000000" transform="translate(0,0)"/>
<path d="" fill="#000000" transform="translate(0,0)"/>
<path d="" fill="#000000" transform="translate(0,0)"/>
<path d="" fill="#000000" transform="translate(0,0)"/>
<path d="" fill="#000000" transform="translate(0,0)"/>
<path d="" fill="#000000" transform="translate(0,0)"/>
<path d="" fill="#000000" transform="translate(0,0)"/>
<path d="" fill="#000000" transform="translate(0,0)"/>
<path d="" fill="#000000" transform="translate(0,0)"/>
<path d="" fill="#000000" transform="translate(0,0)"/>
<path d="" fill="#000000" transform="translate(0,0)"/>
<path d="" fill="#000000" transform="translate(0,0)"/>
<path d="" fill="#000000" transform="translate(0,0)"/>
<path d="" fill="#000000" transform="translate(0,0)"/>
<path d="" fill="#000000" transform="translate(0,0)"/>
<path d="" fill="#000000" transform="translate(0,0)"/>
<path d="" fill="#000000" transform="translate(0,0)"/>
<path d="" fill="#000000" transform="translate(0,0)"/>
<path d="" fill="#000000" transform="translate(0,0)"/>
<path d="" fill="#000000" transform="translate(0,0)"/>
<path d="" fill="#000000" transform="translate(0,0)"/>
<path d="" fill="#000000" transform="translate(0,0)"/>
<path d="" fill="#000000" transform="translate(0,0)"/>
<path d="" fill="#000000" transform="translate(0,0)"/>
<path d="" fill="#000000" transform="translate(0,0)"/>
</svg>
