<?xml version="1.0" encoding="UTF-8"?>
<svg version="1.1" xmlns="http://www.w3.org/2000/svg" width="824" height="220">
<path d="M0 0 C0.65789654 -0.00297112 1.31579308 -0.00594224 1.99362588 -0.0090034 C4.19101508 -0.017652 6.38834955 -0.01919544 8.58575439 -0.02069092 C10.16480118 -0.02532218 11.74384685 -0.03034725 13.32289124 -0.03573608 C17.61078952 -0.04884102 21.89867215 -0.05530248 26.18658733 -0.05974674 C28.87209722 -0.06268334 31.5576029 -0.06678946 34.24311066 -0.07125092 C42.66383269 -0.08492697 51.08454502 -0.0945905 59.5052774 -0.09845281 C69.18970569 -0.10292011 78.8739919 -0.12040554 88.55837703 -0.1494534 C96.0644168 -0.17117615 103.57041695 -0.18116286 111.07648778 -0.18249393 C115.54887821 -0.18353532 120.02113511 -0.18929849 124.49349213 -0.20731354 C128.71246908 -0.22397612 132.93121481 -0.2258631 137.15021324 -0.21717453 C138.68468794 -0.2164135 140.21917601 -0.2206207 141.75361824 -0.23063278 C165.31475194 -0.37513675 191.35225616 4.30128908 209.23077393 20.91094971 C210.41315481 22.10769149 211.58555331 23.3144011 212.74639893 24.53204346 C214.43350128 26.31573805 214.43350128 26.31573805 217.01641846 28.28887939 C224.14175827 34.00361894 228.85972578 42.30942905 233.32501221 50.14044189 C234.00563721 51.19231689 234.68626221 52.24419189 235.38751221 53.32794189 C247.44706974 74.62138658 247.20353869 101.82514221 241.63751221 124.95294189 C239.43337106 132.55681917 236.16159403 139.23790915 232.32501221 146.14044189 C231.75911377 147.16266846 231.19321533 148.18489502 230.61016846 149.23809814 C227.71053894 154.2787744 227.71053894 154.2787744 226.32501221 156.14044189 C225.66501221 156.14044189 225.00501221 156.14044189 224.32501221 156.14044189 C224.05817627 156.72180908 223.79134033 157.30317627 223.51641846 157.90216064 C219.70904002 165.05503883 213.03492611 170.76738192 206.32501221 175.14044189 C205.66501221 175.14044189 205.00501221 175.14044189 204.32501221 175.14044189 C204.32501221 175.80044189 204.32501221 176.46044189 204.32501221 177.14044189 C198.67636786 180.17553438 193.01157074 183.1769856 187.32501221 186.14044189 C186.01790283 186.82493408 186.01790283 186.82493408 184.68438721 187.52325439 C171.27310674 194.02414225 155.51326213 194.30039816 140.89173889 194.26742554 C139.26357137 194.26976552 139.26357137 194.26976552 137.60251158 194.27215278 C133.99933678 194.27611121 130.39620483 194.27299307 126.79302979 194.26983643 C124.19459 194.27119292 121.59615041 194.27297425 118.99771118 194.27514648 C112.68766031 194.27957767 106.37762139 194.27863861 100.06757007 194.27573384 C94.92321129 194.27346517 89.77885583 194.27317362 84.63449669 194.27425766 C83.89907825 194.27441089 83.16365981 194.27456413 82.40595597 194.274722 C80.91117051 194.27504178 79.41638505 194.275366 77.92159959 194.27569459 C63.9184886 194.27854272 49.91538417 194.27527501 35.91227426 194.26989423 C23.96969076 194.2654464 12.02711701 194.26618664 0.08453369 194.27081299 C-13.83972801 194.27620462 -27.76398394 194.27824761 -41.68824655 194.27520072 C-43.18361143 194.27488225 -44.67897632 194.27456788 -46.1743412 194.27425766 C-46.90970351 194.27410338 -47.64506582 194.27394911 -48.40271183 194.27379016 C-53.51346795 194.27293719 -58.62422027 194.27438633 -63.73497581 194.27673721 C-116.27987781 194.2983223 -116.27987781 194.2983223 -134.22725165 193.86802649 C-136.16143167 193.82238633 -138.0958545 193.78739431 -140.03026867 193.75308418 C-150.94527956 193.41620904 -160.71655456 191.37078077 -170.11248779 185.70294189 C-171.11312256 185.12963135 -171.11312256 185.12963135 -172.13397217 184.54473877 C-188.49815079 175.0111075 -198.4347435 158.64762103 -203.35858154 140.64044189 C-204.5893621 130.91575605 -204.58586644 121.19133248 -200.67498779 112.14044189 C-200.36947998 111.17235596 -200.06397217 110.20427002 -199.74920654 109.20684814 C-194.8167333 94.26593828 -183.62120805 81.3148241 -169.73748779 73.82794189 C-164.55682283 71.49344472 -159.1000438 69.80645909 -153.67498779 68.14044189 C-152.69166977 67.79784332 -151.70835175 67.45524475 -150.69523621 67.1022644 C-145.63847067 65.67408325 -140.54222169 65.83232876 -135.32366943 65.82159424 C-133.63964523 65.8065258 -133.63964523 65.8065258 -131.92160034 65.79115295 C-128.22611991 65.76036478 -124.5307118 65.74329769 -120.83514404 65.72637939 C-118.26681396 65.70766427 -115.69849001 65.6880906 -113.13017273 65.66769409 C-107.07076008 65.62164043 -101.01135097 65.5842192 -94.95185608 65.55102122 C-88.04971217 65.51272184 -81.14766134 65.46333232 -74.24559605 65.41303706 C-60.05546358 65.30988087 -45.86526806 65.22056774 -31.67498779 65.14044189 C-32.08708496 64.53498535 -32.49918213 63.92952881 -32.92376709 63.3057251 C-33.73454712 62.10435913 -33.73454712 62.10435913 -34.56170654 60.87872314 C-35.09755371 60.0876416 -35.63340088 59.29656006 -36.18548584 58.48150635 C-41.03987394 50.85181818 -42.62074666 41.95322138 -41.16717529 33.01934814 C-40.44029645 30.01619081 -39.60824959 27.08567067 -38.67498779 24.14044189 C-38.38752686 23.23165283 -38.10006592 22.32286377 -37.80389404 21.38653564 C-37.12009477 19.29587663 -36.40164133 17.21659487 -35.67498779 15.14044189 C-37.32498779 13.49044189 -38.97498779 11.84044189 -40.67498779 10.14044189 C-39.51119131 6.82809806 -38.56259993 4.25062 -35.67498779 2.14044189 C-34.35498779 2.14044189 -33.03498779 2.14044189 -31.67498779 2.14044189 C-32.67498779 5.14044189 -32.67498779 5.14044189 -33.67498779 6.14044189 C-32.71592529 6.57356689 -32.71592529 6.57356689 -31.73748779 7.01544189 C-29.67498779 8.14044189 -29.67498779 8.14044189 -28.67498779 10.14044189 C-27.53030029 9.02669189 -27.53030029 9.02669189 -26.36248779 7.89044189 C-19.14423769 1.84086086 -9.15689066 0.02317535 0 0 Z M-31.67498779 10.14044189 C-31.34498779 11.13044189 -31.01498779 12.12044189 -30.67498779 13.14044189 C-30.67498779 12.15044189 -30.67498779 11.16044189 -30.67498779 10.14044189 C-31.00498779 10.14044189 -31.33498779 10.14044189 -31.67498779 10.14044189 Z M-20.67498779 17.14044189 C-21.00498779 18.13044189 -21.33498779 19.12044189 -21.67498779 20.14044189 C-22.31049561 20.45239502 -22.94600342 20.76434814 -23.60076904 21.08575439 C-26.14820782 22.38106225 -26.67836608 23.45387248 -27.86248779 26.01544189 C-28.18604248 26.69348877 -28.50959717 27.37153564 -28.84295654 28.07012939 C-31.50490881 34.69376649 -31.81250705 42.51193131 -29.61248779 49.32794189 C-26.53927429 56.32165674 -21.47381319 61.3132768 -14.56951904 64.44903564 C-10.29764408 66.00804981 -6.55155155 66.26959053 -1.99049377 66.28088379 C-0.98421315 66.28534047 -0.98421315 66.28534047 0.04239637 66.28988719 C2.28920221 66.29855518 4.53595465 66.30008084 6.78277588 66.30157471 C8.39435947 66.3062043 10.00594197 66.31122915 11.61752319 66.31661987 C15.99584975 66.32973394 20.37416098 66.33618711 24.75250411 66.34063053 C27.4897067 66.34356339 30.22690512 66.34766864 32.96410561 66.3521347 C41.53324876 66.36580818 50.10238236 66.37547508 58.67153567 66.3793366 C68.5535844 66.3838145 78.43549462 66.40135059 88.31750125 66.43033719 C95.96182353 66.45197924 103.60610691 66.46204225 111.25045949 66.46337771 C115.81315234 66.46442411 120.37571496 66.47029636 124.93837547 66.48819733 C129.23364545 66.50472126 133.52868791 66.50681262 137.82397842 66.49805832 C139.39567615 66.4972902 140.96738633 66.50160079 142.53905296 66.51151657 C153.85079178 66.57866593 163.00304896 66.14163933 171.59844971 58.04278564 C177.2697002 51.79414539 178.70183022 45.40204429 178.60235596 37.16778564 C178.13989286 32.11977297 176.84067533 27.55428719 174.32501221 23.14044189 C171.30471197 20.87108944 171.30471197 20.87108944 168.32501221 20.14044189 C168.32501221 19.15044189 168.32501221 18.16044189 168.32501221 17.14044189 C163.57162587 14.09827464 161.05693835 12.88568962 155.32501221 13.14044189 C154.73307729 12.81825809 154.14114237 12.4960743 153.53127003 12.16412735 C150.64459095 10.82473204 148.39185352 10.88867341 145.21238708 10.88647461 C143.95802856 10.88083496 142.70367004 10.87519531 141.41130066 10.86938477 C140.02340641 10.87327351 138.63551272 10.87736986 137.24761963 10.88165283 C135.78369981 10.87894212 134.31978135 10.87538074 132.85586548 10.87103271 C128.87791538 10.8619071 124.90006893 10.86545601 120.92211699 10.87179089 C116.74776289 10.8768605 112.57341757 10.87215578 108.39906311 10.86901855 C101.37704889 10.86537728 94.35507669 10.8701776 87.33306885 10.87969971 C79.2478073 10.89053798 71.16264699 10.88709319 63.07738799 10.8760469 C56.11746145 10.86692272 49.15756512 10.86571505 42.19763452 10.87092423 C38.04950166 10.87402191 33.90141607 10.87451551 29.75328636 10.86785126 C25.84050102 10.86200516 21.92784362 10.86620511 18.01507187 10.87763977 C16.5910329 10.88025005 15.16698288 10.87958482 13.74294853 10.87511444 C-4.49652649 10.30717535 -4.49652649 10.30717535 -20.67498779 17.14044189 Z M-33.67498779 12.14044189 C-33.34498779 13.13044189 -33.01498779 14.12044189 -32.67498779 15.14044189 C-32.67498779 14.15044189 -32.67498779 13.16044189 -32.67498779 12.14044189 C-33.00498779 12.14044189 -33.33498779 12.14044189 -33.67498779 12.14044189 Z M-146.67498779 100.14044189 C-150.56611257 107.21360265 -152.86758869 114.56826537 -155.23748779 122.26544189 C-156.00500039 124.74864627 -156.77698637 127.23047335 -157.55389404 129.71075439 C-158.05771606 131.34681641 -158.05771606 131.34681641 -158.57171631 133.01593018 C-159.70254951 136.21849784 -161.11891562 139.12527208 -162.67498779 142.14044189 C-164.08266142 145.84484618 -164.67498779 148.13145699 -164.67498779 152.14044189 C-160.69300375 152.54206866 -160.69300375 152.54206866 -157.14373779 151.07012939 C-155.03106034 148.29443083 -154.12015264 145.36709177 -152.98748779 142.07794189 C-152.76254639 141.44050049 -152.53760498 140.80305908 -152.30584717 140.14630127 C-151.07866713 136.72327784 -151.07866713 136.72327784 -150.67498779 133.14044189 C-147.56975426 133.22132364 -144.46648446 133.33416079 -141.36248779 133.45294189 C-140.04087646 133.48677979 -140.04087646 133.48677979 -138.69256592 133.52130127 C-137.84500732 133.55675049 -136.99744873 133.59219971 -136.12420654 133.62872314 C-134.95377808 133.66799927 -134.95377808 133.66799927 -133.75970459 133.70806885 C-131.16628471 134.24594759 -130.21873462 135.00681569 -128.67498779 137.14044189 C-128.92498779 140.32794189 -128.92498779 140.32794189 -129.67498779 144.14044189 C-129.87390552 145.61811642 -130.06160179 147.09734931 -130.23748779 148.57794189 C-130.38186279 149.75356689 -130.52623779 150.92919189 -130.67498779 152.14044189 C-128.36498779 152.14044189 -126.05498779 152.14044189 -123.67498779 152.14044189 C-120.83490502 146.55274416 -117.96485849 140.57033997 -118.67498779 134.14044189 C-119.96061821 132.33872511 -119.96061821 132.33872511 -121.67498779 131.14044189 C-122.33498779 131.14044189 -122.99498779 131.14044189 -123.67498779 131.14044189 C-123.34498779 130.48044189 -123.01498779 129.82044189 -122.67498779 129.14044189 C-121.64373779 128.87231689 -120.61248779 128.60419189 -119.54998779 128.32794189 C-114.30077891 126.22392015 -112.45103218 121.26232937 -110.05780029 116.44903564 C-107.9570084 111.42256464 -106.90379853 107.45400967 -108.67498779 102.14044189 C-113.56405559 100.28443903 -117.94438336 99.90201364 -123.13983154 99.94512939 C-123.8180043 99.94795929 -124.49617706 99.95078918 -125.19490051 99.95370483 C-127.33428545 99.96478773 -129.4732321 99.9898683 -131.61248779 100.01544189 C-133.07407023 100.02548713 -134.53565932 100.03461027 -135.99725342 100.04278564 C-139.55663759 100.06468764 -143.11576982 100.09913323 -146.67498779 100.14044189 Z M-29.67498779 100.14044189 C-32.25747942 103.75862027 -33.79114003 107.68958757 -35.36248779 111.82794189 C-35.79947998 112.96618408 -36.23647217 114.10442627 -36.68670654 115.27716064 C-37.78374408 117.95069434 -37.78374408 117.95069434 -37.67498779 120.14044189 C-38.33498779 119.50106689 -38.99498779 118.86169189 -39.67498779 118.20294189 C-44.17892326 115.10648626 -47.9489937 114.8160191 -53.20233154 115.44122314 C-58.21994417 116.55037962 -61.15141314 118.04718653 -64.17498779 122.26544189 C-66.46197906 126.18416289 -67.60058227 129.91594691 -68.25311279 134.39044189 C-68.39233154 134.96794189 -68.53155029 135.54544189 -68.67498779 136.14044189 C-69.66498779 136.63544189 -69.66498779 136.63544189 -70.67498779 137.14044189 C-71.97429018 141.42813976 -71.75015553 145.70554535 -71.67498779 150.14044189 C-66.85740618 152.94789039 -62.10820123 152.76847463 -56.67498779 152.14044189 C-53.49976698 151.09115915 -50.59869652 149.75750548 -47.67498779 148.14044189 C-48.00498779 149.46044189 -48.33498779 150.78044189 -48.67498779 152.14044189 C-45.80133989 152.55790798 -45.80133989 152.55790798 -42.67498779 152.14044189 C-39.07939022 147.66486913 -37.86375252 141.79930463 -36.23748779 136.39044189 C-34.34861334 130.12532123 -32.32954463 124.12478457 -29.58294678 118.18145752 C-28.29094453 115.27714486 -27.34366149 112.30581435 -26.42498779 109.26544189 C-26.08983154 108.17489502 -25.75467529 107.08434814 -25.40936279 105.96075439 C-24.54899511 103.14230233 -24.54899511 103.14230233 -24.67498779 100.14044189 C-27.04804357 99.7226331 -27.04804357 99.7226331 -29.67498779 100.14044189 Z M-8.67498779 100.14044189 C-7.67498779 103.14044189 -7.67498779 103.14044189 -7.67498779 103.14044189 Z M54.70001221 106.07794189 C49.08427369 113.10414497 46.92935869 122.67409672 44.32501221 131.14044189 C43.77780518 132.89034424 43.77780518 132.89034424 43.21954346 134.67559814 C41.21547914 141.3089973 41.21547914 141.3089973 41.32501221 148.14044189 C44.28731102 151.2085371 47.41603583 152.00402739 51.57989502 152.30157471 C54.24506277 152.3472876 56.90948563 152.37569486 59.57501221 152.39044189 C60.49153564 152.41106689 61.40805908 152.43169189 62.35235596 152.45294189 C69.62088182 152.49441708 75.35140617 151.58540686 81.13751221 146.82794189 C84.1399608 143.13921934 86.32501221 139.97874713 86.32501221 135.14044189 C83.50099232 134.76925653 83.50099232 134.76925653 80.32501221 135.14044189 C77.99729951 137.03334898 77.99729951 137.03334898 76.13751221 139.57794189 C72.58671433 144.05320785 72.58671433 144.05320785 69.32501221 145.14044189 C66.99325306 145.23573013 64.65871247 145.27030377 62.32501221 145.26544189 C61.08751221 145.26802002 59.85001221 145.27059814 58.57501221 145.27325439 C55.32501221 145.14044189 55.32501221 145.14044189 52.32501221 144.14044189 C50.68612198 139.11179735 52.04433959 134.94250483 53.38751221 130.01544189 C53.7287915 128.75099243 53.7287915 128.75099243 54.07696533 127.46099854 C58.66415629 111.27374642 58.66415629 111.27374642 64.49688721 107.87481689 C68.20594638 106.91169103 71.77366619 106.88799084 75.57501221 106.95294189 C76.30719971 106.95358643 77.03938721 106.95423096 77.79376221 106.95489502 C83.18438721 106.99981689 83.18438721 106.99981689 84.32501221 108.14044189 C84.77961079 110.7950731 85.02744458 113.46233327 85.32501221 116.14044189 C89.49221628 116.52665059 89.49221628 116.52665059 93.13751221 114.82794189 C95.75499652 111.10835892 95.40769802 107.52278977 95.32501221 103.14044189 C89.76664035 99.60924095 84.87719664 99.68839797 78.51251221 99.76544189 C77.5656958 99.75384033 76.61887939 99.74223877 75.64337158 99.73028564 C67.84765154 99.76247719 60.66976915 100.71539751 54.70001221 106.07794189 Z M-15.67498779 101.14044189 C-14.67498779 103.14044189 -14.67498779 103.14044189 -14.67498779 103.14044189 Z M-16.67498779 103.14044189 C-16.67498779 103.80044189 -16.67498779 104.46044189 -16.67498779 105.14044189 C-15.68498779 104.81044189 -14.69498779 104.48044189 -13.67498779 104.14044189 C-14.66498779 103.81044189 -15.65498779 103.48044189 -16.67498779 103.14044189 Z M120.32501221 110.14044189 C119.52079141 112.73899922 119.52079141 112.73899922 119.32501221 115.14044189 C117.34501221 115.47044189 115.36501221 115.80044189 113.32501221 116.14044189 C113.65501221 117.79044189 113.98501221 119.44044189 114.32501221 121.14044189 C114.98501221 121.14044189 115.64501221 121.14044189 116.32501221 121.14044189 C115.55801343 123.80826372 114.78652227 126.47465364 114.01251221 129.14044189 C113.79917236 129.88423096 113.58583252 130.62802002 113.36602783 131.39434814 C112.26701866 135.1670662 111.07787622 138.81257145 109.59454346 142.45294189 C108.17756125 146.43187259 108.17756125 146.43187259 109.32501221 150.14044189 C113.80634604 153.12799778 118.07280294 152.60697051 123.32501221 152.14044189 C127.5474536 150.83532364 129.44955852 149.32371039 131.70001221 145.64044189 C133.53556786 142.33007695 133.53556786 142.33007695 133.32501221 139.14044189 C131.67501221 139.14044189 130.02501221 139.14044189 128.32501221 139.14044189 C127.45876221 140.84200439 127.45876221 140.84200439 126.57501221 142.57794189 C124.6234518 145.97765666 124.6234518 145.97765666 122.26251221 147.26544189 C120.32501221 147.14044189 120.32501221 147.14044189 118.59063721 146.08184814 C117.32501221 144.14044189 117.32501221 144.14044189 117.90704346 140.84747314 C118.29983525 139.54393699 118.71081328 138.24577596 119.13751221 136.95294189 C119.55006749 135.67102722 119.95244625 134.38579254 120.34454346 133.09747314 C120.53121582 132.53004395 120.71788818 131.96261475 120.91021729 131.37799072 C121.53273946 128.01988848 121.32501221 124.55575806 121.32501221 121.14044189 C127.59501221 120.81044189 133.86501221 120.48044189 140.32501221 120.14044189 C140.32501221 118.82044189 140.32501221 117.50044189 140.32501221 116.14044189 C138.22112651 116.08641915 136.11684507 116.04763934 134.01251221 116.01544189 C132.84075439 115.99223877 131.66899658 115.96903564 130.46173096 115.94512939 C127.1610756 115.88723571 127.1610756 115.88723571 124.32501221 118.14044189 C124.65501221 115.17044189 124.98501221 112.20044189 125.32501221 109.14044189 C125.98501221 110.46044189 126.64501221 111.78044189 127.32501221 113.14044189 C127.98501221 111.16044189 128.64501221 109.18044189 129.32501221 107.14044189 C125.28369824 106.80366573 123.18671029 107.17654031 120.32501221 110.14044189 Z M-104.67498779 122.14044189 C-104.67498779 123.13044189 -104.67498779 124.12044189 -104.67498779 125.14044189 C-103.39623779 125.03731689 -102.11748779 124.93419189 -100.79998779 124.82794189 C-100.08069092 124.76993408 -99.36139404 124.71192627 -98.62030029 124.65216064 C-96.27979563 124.26651154 -96.27979563 124.26651154 -94.67498779 121.14044189 C-91.12144851 119.9559288 -88.40485301 119.87402295 -84.67498779 120.14044189 C-82.67498779 121.32794189 -82.67498779 121.32794189 -81.67498779 123.14044189 C-81.92498779 125.51544189 -81.92498779 125.51544189 -82.67498779 128.14044189 C-82.86061279 129.06856689 -83.04623779 129.99669189 -83.23748779 130.95294189 C-83.38186279 131.67481689 -83.52623779 132.39669189 -83.67498779 133.14044189 C-83.01498779 133.14044189 -82.35498779 133.14044189 -81.67498779 133.14044189 C-81.67498779 133.80044189 -81.67498779 134.46044189 -81.67498779 135.14044189 C-84.59016071 134.06643082 -86.45308955 133.36234014 -88.67498779 131.14044189 C-96.31102285 129.39889004 -101.98472001 130.86346816 -108.61248779 134.95294189 C-112.05737051 138.60660538 -112.57810238 141.97781693 -112.98748779 146.89044189 C-112.88436279 147.96294189 -112.78123779 149.03544189 -112.67498779 150.14044189 C-107.99838624 153.25817626 -103.15512628 152.61727614 -97.67498779 152.14044189 C-94.79256173 151.3814469 -92.3945065 150.39560438 -89.67498779 149.14044189 C-89.67498779 150.13044189 -89.67498779 151.12044189 -89.67498779 152.14044189 C-86.76460237 152.11519005 -86.76460237 152.11519005 -83.67498779 151.14044189 C-81.23707477 147.00093983 -79.68389699 142.60497967 -78.11248779 138.07794189 C-75.78482241 131.39950009 -75.78482241 131.39950009 -74.54217529 128.46856689 C-73.17979957 124.81101765 -73.35627595 122.02872641 -73.67498779 118.14044189 C-77.92304222 115.30840561 -81.55610048 115.81018269 -86.54998779 115.82794189 C-87.44846436 115.81182861 -88.34694092 115.79571533 -89.27264404 115.77911377 C-95.73383391 115.77434184 -100.47177238 116.83111716 -104.67498779 122.14044189 Z M-20.67498779 116.14044189 C-20.91443115 116.85877197 -21.15387451 117.57710205 -21.40057373 118.31719971 C-25.15871175 129.59161377 -28.91684977 140.86602783 -32.67498779 152.14044189 C-29.20998779 151.64544189 -29.20998779 151.64544189 -25.67498779 151.14044189 C-25.11811279 149.62450439 -25.11811279 149.62450439 -24.54998779 148.07794189 C-23.26636456 144.62438414 -21.87993555 141.22193144 -20.46893311 137.81866455 C-17.54069745 130.70697783 -15.27684639 123.68603895 -13.67498779 116.14044189 C-15.98498779 116.14044189 -18.29498779 116.14044189 -20.67498779 116.14044189 Z M-6.79998779 122.64044189 C-8.9868631 126.72260914 -10.37084577 130.82507682 -11.74530029 135.23809814 C-12.67498779 138.14044189 -12.67498779 138.14044189 -13.79998779 140.78106689 C-15.0744054 144.21744295 -14.59871761 146.64346472 -13.67498779 150.14044189 C-10.0859127 152.9167239 -5.69266429 152.47165484 -1.36248779 152.45294189 C-0.6283667 152.46905518 0.10575439 152.48516846 0.86212158 152.50177002 C6.74911856 152.50699362 11.7510801 151.64256903 16.14532471 147.37091064 C21.37842641 139.17656277 26.4927363 129.07801226 25.32501221 119.14044189 C24.02794762 116.99863116 24.02794762 116.99863116 21.32501221 116.14044189 C18.02374858 115.69471779 14.77727806 115.67653502 11.45001221 115.70294189 C10.56442627 115.68296143 9.67884033 115.66298096 8.76641846 115.64239502 C1.83983675 115.64755641 -2.1900396 117.21697343 -6.79998779 122.64044189 Z M100.32501221 116.14044189 C97.02561416 123.09341692 94.51692916 130.20308736 92.13751221 137.51544189 C91.78237549 138.59438721 91.42723877 139.67333252 91.06134033 140.78497314 C90.40861772 142.76915082 89.75775638 144.75394254 89.10943604 146.73956299 C88.52059706 148.54181711 87.92458299 150.34172954 87.32501221 152.14044189 C89.63501221 152.14044189 91.94501221 152.14044189 94.32501221 152.14044189 C96.45783294 146.55840068 98.40970383 140.94568218 100.26251221 135.26544189 C102.39362392 128.79224 104.64629162 122.41179951 107.32501221 116.14044189 C105.01501221 116.14044189 102.70501221 116.14044189 100.32501221 116.14044189 Z M146.32501221 116.14044189 C146.32501221 129.01044189 146.32501221 141.88044189 146.32501221 155.14044189 C145.66501221 155.14044189 145.00501221 155.14044189 144.32501221 155.14044189 C143.87061768 156.10143799 143.87061768 156.10143799 143.40704346 157.08184814 C136.70210965 170.92495764 136.70210965 170.92495764 129.32501221 175.14044189 C129.32501221 176.13044189 129.32501221 177.12044189 129.32501221 178.14044189 C141.72298554 173.0372357 151.42266115 160.28570874 158.32501221 149.14044189 C158.32501221 148.48044189 158.32501221 147.82044189 158.32501221 147.14044189 C158.98501221 147.14044189 159.64501221 147.14044189 160.32501221 147.14044189 C164.19078914 142.34506464 167.10937691 136.81075825 170.03204346 131.40997314 C171.85093096 128.21730354 173.90642956 125.20588219 175.99298096 122.18341064 C177.27045342 120.22412004 178.32380871 118.25198481 179.32501221 116.14044189 C174.00330727 115.84481822 174.00330727 115.84481822 169.32501221 118.14044189 C168.16157117 119.91251293 168.16157117 119.91251293 167.13751221 122.01544189 C163.08837716 129.58609741 158.62403632 137.23422998 152.32501221 143.14044189 C152.39719971 142.28063721 152.46938721 141.42083252 152.54376221 140.53497314 C153.1838689 132.38250322 153.44724562 124.31649895 153.32501221 116.14044189 C151.01501221 116.14044189 148.70501221 116.14044189 146.32501221 116.14044189 Z " fill="#025B9E" transform="translate(393.67498779296875,12.85955810546875)"/>
<path d="M0 0 C0.65789654 -0.00297112 1.31579308 -0.00594224 1.99362588 -0.0090034 C4.19101508 -0.017652 6.38834955 -0.01919544 8.58575439 -0.02069092 C10.16480118 -0.02532218 11.74384685 -0.03034725 13.32289124 -0.03573608 C17.61078952 -0.04884102 21.89867215 -0.05530248 26.18658733 -0.05974674 C28.87209722 -0.06268334 31.5576029 -0.06678946 34.24311066 -0.07125092 C42.66383269 -0.08492697 51.08454502 -0.0945905 59.5052774 -0.09845281 C69.18970569 -0.10292011 78.8739919 -0.12040554 88.55837703 -0.1494534 C96.0644168 -0.17117615 103.57041695 -0.18116286 111.07648778 -0.18249393 C115.54887821 -0.18353532 120.02113511 -0.18929849 124.49349213 -0.20731354 C128.71246908 -0.22397612 132.93121481 -0.2258631 137.15021324 -0.21717453 C138.68468794 -0.2164135 140.21917601 -0.2206207 141.75361824 -0.23063278 C165.31475194 -0.37513675 191.35225616 4.30128908 209.23077393 20.91094971 C210.41315481 22.10769149 211.58555331 23.3144011 212.74639893 24.53204346 C214.43350128 26.31573805 214.43350128 26.31573805 217.01641846 28.28887939 C224.14175827 34.00361894 228.85972578 42.30942905 233.32501221 50.14044189 C234.00563721 51.19231689 234.68626221 52.24419189 235.38751221 53.32794189 C247.44706974 74.62138658 247.20353869 101.82514221 241.63751221 124.95294189 C239.43337106 132.55681917 236.16159403 139.23790915 232.32501221 146.14044189 C231.75911377 147.16266846 231.19321533 148.18489502 230.61016846 149.23809814 C227.71053894 154.2787744 227.71053894 154.2787744 226.32501221 156.14044189 C225.66501221 156.14044189 225.00501221 156.14044189 224.32501221 156.14044189 C224.05817627 156.72180908 223.79134033 157.30317627 223.51641846 157.90216064 C219.70904002 165.05503883 213.03492611 170.76738192 206.32501221 175.14044189 C205.66501221 175.14044189 205.00501221 175.14044189 204.32501221 175.14044189 C204.32501221 175.80044189 204.32501221 176.46044189 204.32501221 177.14044189 C198.67636786 180.17553438 193.01157074 183.1769856 187.32501221 186.14044189 C186.01790283 186.82493408 186.01790283 186.82493408 184.68438721 187.52325439 C171.27310674 194.02414225 155.51326213 194.30039816 140.89173889 194.26742554 C139.26357137 194.26976552 139.26357137 194.26976552 137.60251158 194.27215278 C133.99933678 194.27611121 130.39620483 194.27299307 126.79302979 194.26983643 C124.19459 194.27119292 121.59615041 194.27297425 118.99771118 194.27514648 C112.68766031 194.27957767 106.37762139 194.27863861 100.06757007 194.27573384 C94.92321129 194.27346517 89.77885583 194.27317362 84.63449669 194.27425766 C83.89907825 194.27441089 83.16365981 194.27456413 82.40595597 194.274722 C80.91117051 194.27504178 79.41638505 194.275366 77.92159959 194.27569459 C63.9184886 194.27854272 49.91538417 194.27527501 35.91227426 194.26989423 C23.96969076 194.2654464 12.02711701 194.26618664 0.08453369 194.27081299 C-13.83972801 194.27620462 -27.76398394 194.27824761 -41.68824655 194.27520072 C-43.18361143 194.27488225 -44.67897632 194.27456788 -46.1743412 194.27425766 C-46.90970351 194.27410338 -47.64506582 194.27394911 -48.40271183 194.27379016 C-53.51346795 194.27293719 -58.62422027 194.27438633 -63.73497581 194.27673721 C-116.27987781 194.2983223 -116.27987781 194.2983223 -134.22725165 193.86802649 C-136.16143167 193.82238633 -138.0958545 193.78739431 -140.03026867 193.75308418 C-150.94527956 193.41620904 -160.71655456 191.37078077 -170.11248779 185.70294189 C-171.11312256 185.12963135 -171.11312256 185.12963135 -172.13397217 184.54473877 C-188.49815079 175.0111075 -198.4347435 158.64762103 -203.35858154 140.64044189 C-204.5893621 130.91575605 -204.58586644 121.19133248 -200.67498779 112.14044189 C-200.36947998 111.17235596 -200.06397217 110.20427002 -199.74920654 109.20684814 C-194.8167333 94.26593828 -183.62120805 81.3148241 -169.73748779 73.82794189 C-164.55682283 71.49344472 -159.1000438 69.80645909 -153.67498779 68.14044189 C-152.69166977 67.79784332 -151.70835175 67.45524475 -150.69523621 67.1022644 C-145.63847067 65.67408325 -140.54222169 65.83232876 -135.32366943 65.82159424 C-133.63964523 65.8065258 -133.63964523 65.8065258 -131.92160034 65.79115295 C-128.22611991 65.76036478 -124.5307118 65.74329769 -120.83514404 65.72637939 C-118.26681396 65.70766427 -115.69849001 65.6880906 -113.13017273 65.66769409 C-107.07076008 65.62164043 -101.01135097 65.5842192 -94.95185608 65.55102122 C-88.04971217 65.51272184 -81.14766134 65.46333232 -74.24559605 65.41303706 C-60.05546358 65.30988087 -45.86526806 65.22056774 -31.67498779 65.14044189 C-32.08708496 64.53498535 -32.49918213 63.92952881 -32.92376709 63.3057251 C-33.73454712 62.10435913 -33.73454712 62.10435913 -34.56170654 60.87872314 C-35.09755371 60.0876416 -35.63340088 59.29656006 -36.18548584 58.48150635 C-41.03987394 50.85181818 -42.62074666 41.95322138 -41.16717529 33.01934814 C-40.44029645 30.01619081 -39.60824959 27.08567067 -38.67498779 24.14044189 C-38.38752686 23.23165283 -38.10006592 22.32286377 -37.80389404 21.38653564 C-37.12009477 19.29587663 -36.40164133 17.21659487 -35.67498779 15.14044189 C-37.32498779 13.49044189 -38.97498779 11.84044189 -40.67498779 10.14044189 C-39.51119131 6.82809806 -38.56259993 4.25062 -35.67498779 2.14044189 C-34.35498779 2.14044189 -33.03498779 2.14044189 -31.67498779 2.14044189 C-32.67498779 5.14044189 -32.67498779 5.14044189 -33.67498779 6.14044189 C-32.71592529 6.57356689 -32.71592529 6.57356689 -31.73748779 7.01544189 C-29.67498779 8.14044189 -29.67498779 8.14044189 -28.67498779 10.14044189 C-27.53030029 9.02669189 -27.53030029 9.02669189 -26.36248779 7.89044189 C-19.14423769 1.84086086 -9.15689066 0.02317535 0 0 Z M-31.67498779 10.14044189 C-31.34498779 11.13044189 -31.01498779 12.12044189 -30.67498779 13.14044189 C-30.67498779 12.15044189 -30.67498779 11.16044189 -30.67498779 10.14044189 C-31.00498779 10.14044189 -31.33498779 10.14044189 -31.67498779 10.14044189 Z M-20.67498779 17.14044189 C-21.00498779 18.13044189 -21.33498779 19.12044189 -21.67498779 20.14044189 C-22.31049561 20.45239502 -22.94600342 20.76434814 -23.60076904 21.08575439 C-26.14820782 22.38106225 -26.67836608 23.45387248 -27.86248779 26.01544189 C-28.18604248 26.69348877 -28.50959717 27.37153564 -28.84295654 28.07012939 C-31.50490881 34.69376649 -31.81250705 42.51193131 -29.61248779 49.32794189 C-26.53927429 56.32165674 -21.47381319 61.3132768 -14.56951904 64.44903564 C-10.29764408 66.00804981 -6.55155155 66.26959053 -1.99049377 66.28088379 C-0.98421315 66.28534047 -0.98421315 66.28534047 0.04239637 66.28988719 C2.28920221 66.29855518 4.53595465 66.30008084 6.78277588 66.30157471 C8.39435947 66.3062043 10.00594197 66.31122915 11.61752319 66.31661987 C15.99584975 66.32973394 20.37416098 66.33618711 24.75250411 66.34063053 C27.4897067 66.34356339 30.22690512 66.34766864 32.96410561 66.3521347 C41.53324876 66.36580818 50.10238236 66.37547508 58.67153567 66.3793366 C68.5535844 66.3838145 78.43549462 66.40135059 88.31750125 66.43033719 C95.96182353 66.45197924 103.60610691 66.46204225 111.25045949 66.46337771 C115.81315234 66.46442411 120.37571496 66.47029636 124.93837547 66.48819733 C129.23364545 66.50472126 133.52868791 66.50681262 137.82397842 66.49805832 C139.39567615 66.4972902 140.96738633 66.50160079 142.53905296 66.51151657 C153.85079178 66.57866593 163.00304896 66.14163933 171.59844971 58.04278564 C177.2697002 51.79414539 178.70183022 45.40204429 178.60235596 37.16778564 C178.13989286 32.11977297 176.84067533 27.55428719 174.32501221 23.14044189 C171.30471197 20.87108944 171.30471197 20.87108944 168.32501221 20.14044189 C168.32501221 19.15044189 168.32501221 18.16044189 168.32501221 17.14044189 C163.57162587 14.09827464 161.05693835 12.88568962 155.32501221 13.14044189 C154.73307729 12.81825809 154.14114237 12.4960743 153.53127003 12.16412735 C150.64459095 10.82473204 148.39185352 10.88867341 145.21238708 10.88647461 C143.95802856 10.88083496 142.70367004 10.87519531 141.41130066 10.86938477 C140.02340641 10.87327351 138.63551272 10.87736986 137.24761963 10.88165283 C135.78369981 10.87894212 134.31978135 10.87538074 132.85586548 10.87103271 C128.87791538 10.8619071 124.90006893 10.86545601 120.92211699 10.87179089 C116.74776289 10.8768605 112.57341757 10.87215578 108.39906311 10.86901855 C101.37704889 10.86537728 94.35507669 10.8701776 87.33306885 10.87969971 C79.2478073 10.89053798 71.16264699 10.88709319 63.07738799 10.8760469 C56.11746145 10.86692272 49.15756512 10.86571505 42.19763452 10.87092423 C38.04950166 10.87402191 33.90141607 10.87451551 29.75328636 10.86785126 C25.84050102 10.86200516 21.92784362 10.86620511 18.01507187 10.87763977 C16.5910329 10.88025005 15.16698288 10.87958482 13.74294853 10.87511444 C-4.49652649 10.30717535 -4.49652649 10.30717535 -20.67498779 17.14044189 Z M-33.67498779 12.14044189 C-33.34498779 13.13044189 -33.01498779 14.12044189 -32.67498779 15.14044189 C-32.67498779 14.15044189 -32.67498779 13.16044189 -32.67498779 12.14044189 C-33.00498779 12.14044189 -33.33498779 12.14044189 -33.67498779 12.14044189 Z M-174.67498779 89.14044189 C-175.83321045 90.17878174 -175.83321045 90.17878174 -177.01483154 91.23809814 C-182.39460834 96.31352817 -186.36076125 101.53213609 -189.67498779 108.14044189 C-190.08877686 108.92419189 -190.50256592 109.70794189 -190.92889404 110.51544189 C-196.37221859 122.65386596 -194.97253435 137.77638961 -190.54998779 149.99981689 C-190.11686279 151.05942627 -190.11686279 151.05942627 -189.67498779 152.14044189 C-189.01498779 152.14044189 -188.35498779 152.14044189 -187.67498779 152.14044189 C-187.41975342 153.02860596 -187.16451904 153.91677002 -186.90155029 154.83184814 C-183.11497507 165.04595391 -172.97986806 174.13828694 -163.32523537 178.93274689 C-149.32761724 185.31134098 -135.26738077 184.72001047 -120.1753459 184.66334057 C-116.57331349 184.65421221 -112.97135602 184.66829812 -109.36933899 184.67926025 C-102.32994321 184.6969689 -95.29071883 184.69323955 -88.25131656 184.68160969 C-82.52475241 184.67254387 -76.798236 184.67136492 -71.07166672 184.67570496 C-69.84501792 184.67662435 -69.84501792 184.67662435 -68.59358834 184.67756233 C-66.93183251 184.67884135 -65.27007669 184.6801382 -63.60832088 184.68145269 C-48.05577976 184.69283644 -32.50333322 184.67978025 -16.95080762 184.65825123 C-3.63551302 184.64038897 9.67964201 184.64348143 22.99493408 184.66192627 C38.49204382 184.68338368 53.98907078 184.69173097 69.4861933 184.67947721 C71.14214872 184.67820315 72.79810415 184.67694566 74.4540596 184.67570496 C75.26861913 184.67508785 76.08317866 184.67447075 76.92242181 184.67383495 C82.63432021 184.67039612 88.34616568 184.6761787 94.05805588 184.68562317 C101.03030496 184.69689915 108.00237417 184.69368677 114.97460292 184.67250019 C118.52505009 184.66206335 122.07519853 184.65773997 125.62564278 184.6710968 C146.61330147 184.74334027 165.69670236 184.3972646 182.32501221 170.14044189 C183.09329346 169.49204346 183.86157471 168.84364502 184.65313721 168.17559814 C191.27350054 162.12944999 194.82777404 155.2248434 198.32501221 147.14044189 C198.68723877 146.38118408 199.04946533 145.62192627 199.42266846 144.83966064 C203.91316995 134.08334312 202.25225533 121.27149942 198.01593018 110.75738525 C191.74861763 96.50717688 180.34511885 85.1035827 165.90313721 79.14044189 C157.7760746 76.30415159 150.06628332 75.99641595 141.52285767 76.01345825 C140.32563351 76.01189826 139.12840936 76.01033827 137.89490569 76.00873101 C134.57954641 76.00543555 131.26424388 76.00661761 127.94888806 76.00971723 C124.36999648 76.01198099 120.79110984 76.00848674 117.21221924 76.0057373 C110.20253162 76.00129028 103.19285471 76.00225158 96.18316667 76.00514995 C90.48261055 76.00740924 84.78205744 76.00771421 79.08150101 76.00662613 C77.86398312 76.00639628 77.86398312 76.00639628 76.62186892 76.00616179 C74.97282889 76.00584205 73.32378887 76.00551784 71.67474885 76.0051892 C56.20871631 76.00233725 40.7426897 76.00561639 25.27665813 76.01098956 C12.02145157 76.01545228 -1.23374623 76.01468551 -14.48895264 76.0100708 C-29.89072291 76.00471127 -45.29248797 76.00261724 -60.69425905 76.00568306 C-62.33903336 76.0060016 -63.98380768 76.00631597 -65.628582 76.00662613 C-66.84236692 76.00685754 -66.84236692 76.00685754 -68.08067275 76.00709363 C-73.7677889 76.00795503 -79.45490173 76.00650393 -85.14201736 76.00414658 C-92.08267213 76.00133284 -99.02331559 76.00211972 -105.96396907 76.00742732 C-109.50161919 76.01004393 -113.03925052 76.01110427 -116.57690048 76.00777817 C-120.42158793 76.00421829 -124.26624504 76.00848746 -128.1109314 76.01345825 C-129.21582338 76.01122753 -130.32071536 76.00899681 -131.45908892 76.00669849 C-147.99506522 76.04799046 -162.00369166 77.54258889 -174.67498779 89.14044189 Z " fill="#DD6615" transform="translate(393.67498779296875,12.85955810546875)"/>
<path d="M0 0 C0.87527344 -0.02835938 1.75054688 -0.05671875 2.65234375 -0.0859375 C5.0625 0.375 5.0625 0.375 6.8671875 1.8515625 C8.6410457 5.59637425 8.38208834 9.04042214 8.25 13.125 C8.22969727 14.31416016 8.22969727 14.31416016 8.20898438 15.52734375 C8.17375223 17.47685564 8.11994821 19.42601626 8.0625 21.375 C8.48660156 20.82972656 8.91070313 20.28445312 9.34765625 19.72265625 C10.5824731 18.13503458 11.81962235 16.54922536 13.05859375 14.96484375 C14.35997187 13.28294572 15.64492976 11.58816572 16.91015625 9.87890625 C22.82297904 1.96482036 22.82297904 1.96482036 27.0625 0.375 C30.8125 0.125 30.8125 0.125 34.0625 0.375 C34.5575 0.87 34.5575 0.87 35.0625 1.375 C34.67842737 12.32106991 30.71790103 28.39533151 23.64453125 37.125 C22.0625 38.375 22.0625 38.375 18.875 38.0625 C17.946875 37.835625 17.01875 37.60875 16.0625 37.375 C16.5077885 32.10184667 17.14623163 27.35729776 19.0625 22.375 C18.4025 22.375 17.7425 22.375 17.0625 22.375 C16.80339844 22.92929687 16.54429687 23.48359375 16.27734375 24.0546875 C14.90054888 26.68432142 13.31730346 29.06162727 11.625 31.5 C11.02816406 32.36882812 10.43132813 33.23765625 9.81640625 34.1328125 C8.0625 36.375 8.0625 36.375 5.0625 38.375 C2.375 38 2.375 38 0.0625 37.375 C-1.50827907 32.34850697 -2.38604729 27.61380078 -2.9375 22.375 C-3.33582031 23.27863281 -3.73414063 24.18226562 -4.14453125 25.11328125 C-4.93923828 26.88251953 -4.93923828 26.88251953 -5.75 28.6875 C-6.27207031 29.85925781 -6.79414062 31.03101563 -7.33203125 32.23828125 C-9.61192252 36.69266735 -9.61192252 36.69266735 -11.9375 38.375 C-14.625 38.0625 -14.625 38.0625 -16.9375 37.375 C-18.23842141 33.47223578 -17.33284931 32.12430783 -15.875 28.3125 C-13.39268931 21.67682589 -11.13653394 14.99502188 -8.99389648 8.24194336 C-7.09963781 2.4199869 -6.30698127 0.09261353 0 0 Z M21.0625 17.375 C20.4025 19.025 19.7425 20.675 19.0625 22.375 C20.0525 21.385 21.0425 20.395 22.0625 19.375 C21.7325 18.715 21.4025 18.055 21.0625 17.375 Z " fill="#08629F" transform="translate(521.9375,32.625)"/>
<path d="M0 0 C3.4375 1.9375 3.4375 1.9375 5 5 C5.30242157 11.14923856 3.30393566 16.46642929 1.25 22.1875 C0.89071411 23.20324097 0.89071411 23.20324097 0.52416992 24.23950195 C-1.42310801 29.35055813 -3.9028398 34.3803274 -8.95703125 37.0234375 C-16.47551422 38.44799217 -23.22530444 39.14777279 -30 35 C-31.1663677 31.77533637 -31.28655487 29.96386637 -30.3125 26.6875 C-29 25 -29 25 -27.0625 24.1875 C-25 24 -25 24 -22 25 C-21.3125 27.0625 -21.3125 27.0625 -21 29 C-15.68989705 29.50675587 -15.68989705 29.50675587 -11 27.625 C-9.82530086 26.03412093 -9.82530086 26.03412093 -10 24 C-10.81984375 24.04640625 -11.6396875 24.0928125 -12.484375 24.140625 C-14.10085938 24.19476563 -14.10085938 24.19476563 -15.75 24.25 C-17.35101563 24.31960937 -17.35101563 24.31960937 -18.984375 24.390625 C-22 24 -22 24 -24.36328125 22.19921875 C-26.73347436 19.01444853 -26.47617217 16.87740198 -26 13 C-20.48473684 1.09864266 -12.59812501 -1.39649027 0 0 Z M-17 14 C-16.34 15.32 -15.68 16.64 -15 18 C-10.93646317 17.80388768 -10.93646317 17.80388768 -7 17 C-4.57950968 14.12566775 -4 12.75818619 -4 9 C-10.38501231 8.45889726 -12.7797731 8.72471638 -17 14 Z " fill="#09629F" transform="translate(408,33)"/>
<path d="M0 0 C0.94101562 0.00322266 1.88203125 0.00644531 2.8515625 0.00976562 C3.83640625 0.01814453 4.82125 0.02652344 5.8359375 0.03515625 C6.82851563 0.03966797 7.82109375 0.04417969 8.84375 0.04882812 C11.2995391 0.0606348 13.75520854 0.07710225 16.2109375 0.09765625 C17.4186933 3.72092364 16.75404878 4.73911994 15.2109375 8.09765625 C13.76460938 8.11892578 13.76460938 8.11892578 12.2890625 8.140625 C11.02578125 8.18832031 9.7625 8.23601563 8.4609375 8.28515625 C6.58148438 8.33736328 6.58148438 8.33736328 4.6640625 8.390625 C0.53242416 8.85299319 0.53242416 8.85299319 -2.7890625 14.09765625 C1.5009375 14.42765625 5.7909375 14.75765625 10.2109375 15.09765625 C10.5409375 16.74765625 10.8709375 18.39765625 11.2109375 20.09765625 C9.6953125 22.36328125 9.6953125 22.36328125 7.2109375 24.09765625 C3.9765625 24.70703125 3.9765625 24.70703125 0.4609375 24.84765625 C-0.70953125 24.904375 -1.88 24.96109375 -3.0859375 25.01953125 C-3.97796875 25.0453125 -4.87 25.07109375 -5.7890625 25.09765625 C-6.09199219 25.95230469 -6.39492188 26.80695312 -6.70703125 27.6875 C-7.12597656 28.79222656 -7.54492188 29.89695312 -7.9765625 31.03515625 C-8.38261719 32.13730469 -8.78867187 33.23945312 -9.20703125 34.375 C-10.7890625 37.09765625 -10.7890625 37.09765625 -13.27734375 38.1015625 C-15.7890625 38.09765625 -15.7890625 38.09765625 -18.7890625 36.09765625 C-17.53228247 29.9332323 -15.91994299 23.99622161 -13.9140625 18.03515625 C-13.67042969 17.28427734 -13.42679687 16.53339844 -13.17578125 15.75976562 C-7.90210424 -0.04760304 -7.90210424 -0.04760304 0 0 Z " fill="#0A5E95" transform="translate(496.7890625,32.90234375)"/>
<path d="M0 0 C0.92425781 -0.01224609 1.84851563 -0.02449219 2.80078125 -0.03710938 C4.13302734 -0.04000977 4.13302734 -0.04000977 5.4921875 -0.04296875 C6.30800293 -0.04707764 7.12381836 -0.05118652 7.96435547 -0.05541992 C10.125 0.1875 10.125 0.1875 13.125 2.1875 C12.96706146 9.19422787 11.95245807 14.84381086 7.125 20.1875 C4.18368109 21.16793964 2.29998335 21.30371202 -0.76171875 21.28515625 C-1.69951172 21.28193359 -2.63730469 21.27871094 -3.60351562 21.27539062 C-4.57998047 21.26701172 -5.55644531 21.25863281 -6.5625 21.25 C-7.55056641 21.24548828 -8.53863281 21.24097656 -9.55664062 21.23632812 C-11.99615474 21.22454303 -14.43554689 21.20809011 -16.875 21.1875 C-16.36971396 15.89922219 -15.52712592 11.66110131 -13.375 6.75 C-12.9315625 5.72003906 -12.488125 4.69007812 -12.03125 3.62890625 C-9.59580036 -1.51351275 -5.17911287 0.00358168 0 0 Z " fill="#055899" transform="translate(262.875,118.8125)"/>
<path d="M0 0 C2.25 1.234375 2.25 1.234375 4 3 C5.12538362 10.66667591 1.45013022 19.27943188 -2.6875 25.5625 C-7.10934588 28.31121501 -11.97681612 28.37934698 -17 27.4375 C-19 26 -19 26 -19.73046875 23.3203125 C-20.03607606 19.55558481 -19.45261311 17.02737287 -18.3125 13.4375 C-17.97863281 12.34308594 -17.64476562 11.24867188 -17.30078125 10.12109375 C-15.67925217 6.23039784 -13.63998166 3.22998625 -10.25 0.6875 C-6.87563773 -0.34355514 -3.48224937 -0.63251795 0 0 Z " fill="#045799" transform="translate(407,133)"/>
<path d="M0 0 C2.21875 1.1953125 2.21875 1.1953125 4 3 C5.08223888 11.3738233 1.69022693 18.48775928 -3.25 24.9375 C-7.07290619 27.80467964 -9.21569737 28 -14 28 C-17 26.5625 -17 26.5625 -19 25 C-18.68011574 17.4827198 -17.67926534 9.132098 -12.4765625 3.2890625 C-8.55257125 -0.13664414 -5.16715772 -0.46135337 0 0 Z " fill="#045B9F" transform="translate(349,133)"/>
<path d="M0 0 C0.33 0.33 0.66 0.66 1 1 C0.78042946 7.69690152 -0.95279424 12.70629085 -3.671875 18.79296875 C-5.49051846 23.18445781 -6.70233478 27.69320825 -7.91015625 32.28515625 C-9.139355 35.3471388 -10.11946103 36.44176559 -13 38 C-15.75 37.6875 -15.75 37.6875 -18 37 C-19.17791932 33.46624203 -18.75415072 32.55148893 -17.56640625 29.11328125 C-17.24736328 28.17548828 -16.92832031 27.23769531 -16.59960938 26.27148438 C-16.25736328 25.29501953 -15.91511719 24.31855469 -15.5625 23.3125 C-15.05493164 21.83040039 -15.05493164 21.83040039 -14.53710938 20.31835938 C-13.69940026 17.87602435 -12.85342917 15.43687729 -12 13 C-12.94230469 13.66386719 -13.88460938 14.32773437 -14.85546875 15.01171875 C-18 17 -18 17 -20.3125 16.8125 C-22 16 -22 16 -23 15 C-23.35546875 12.62890625 -23.35546875 12.62890625 -23 10 C-20.98828125 8.33984375 -20.98828125 8.33984375 -18.3125 6.9375 C-15.29046517 5.297209 -12.93850021 3.94435733 -10.375 1.625 C-6.82598408 -0.80327405 -4.23936846 -0.3532807 0 0 Z " fill="#0A629F" transform="translate(439,33)"/>
<path d="M0 0 C1.12451172 1.55175781 1.12451172 1.55175781 2 4 C1.47008484 6.53085983 0.85205752 8.74874888 0.0078125 11.171875 C-0.21697784 11.8542926 -0.44176819 12.53671021 -0.67337036 13.23980713 C-1.39337044 15.41478724 -2.13381286 17.58215971 -2.875 19.75 C-3.36724924 21.22480591 -3.85815107 22.70006228 -4.34765625 24.17578125 C-5.54954125 27.78926391 -6.76980371 31.39606248 -8 35 C-8.66 35 -9.32 35 -10 35 C-10 35.66 -10 36.32 -10 37 C-12.31 37 -14.62 37 -17 37 C-18.10698411 33.02331824 -17.91084961 30.97681966 -16.1875 27.25 C-14.1390959 22.52945629 -12.97682596 18.04693415 -12 13 C-12.7425 13.680625 -13.485 14.36125 -14.25 15.0625 C-17 17 -17 17 -19.3125 16.75 C-19.869375 16.5025 -20.42625 16.255 -21 16 C-21.33 14.35 -21.66 12.7 -22 11 C-20.06324055 9.54067427 -18.12562712 8.08250736 -16.1875 6.625 C-15.64029297 6.2125 -15.09308594 5.8 -14.52929688 5.375 C-9.2510939 1.40835049 -6.71398801 -0.25335804 0 0 Z " fill="#0B639F" transform="translate(469,33)"/>
<path d="M0 0 C51.81 0 103.62 0 157 0 C157 0.66 157 1.32 157 2 C140.57672308 2.90396679 124.19670236 3.19716482 107.75 3.1875 C106.47992096 3.1882251 105.20984192 3.1889502 103.90127563 3.18969727 C69.25405362 3.18755837 34.62689459 2.09600109 0 1 C0 0.67 0 0.34 0 0 Z " fill="#A14B1D" transform="translate(390,79)"/>
<path d="M0 0 C1.32085602 -0.002062 1.32085602 -0.002062 2.668396 -0.00416565 C3.6264917 -0.00057037 4.5845874 0.0030249 5.57171631 0.00672913 C7.09414948 0.00651009 7.09414948 0.00651009 8.64733887 0.00628662 C12.0020359 0.00698327 15.35667741 0.01476416 18.71136475 0.02259827 C21.03735321 0.02446332 23.36334206 0.02588681 25.68933105 0.02688599 C31.81151412 0.03070425 37.93367347 0.04052868 44.05584717 0.05158997 C50.3029956 0.06181891 56.55014786 0.06638679 62.79730225 0.07142639 C75.05512517 0.08215153 87.31293048 0.09921971 99.57073975 0.12025452 C99.57073975 0.78025452 99.57073975 1.44025452 99.57073975 2.12025452 C90.38337713 2.29468968 81.19587462 2.46084503 72.00823975 2.62025452 C71.3239603 2.63213177 70.63968086 2.64400902 69.93466568 2.65624619 C43.81191207 3.10670561 17.69752736 3.24415042 -8.42926025 3.12025452 C-8.42926025 2.46025452 -8.42926025 1.80025452 -8.42926025 1.12025452 C-5.54671653 0.29642059 -2.99413312 -0.0036161 0 0 Z " fill="#A04B12" transform="translate(251.42926025390625,78.87974548339844)"/>
<path d="M0 0 C3 2.5 3 2.5 5 5 C3.54826919 10.44399054 3.54826919 10.44399054 1.33984375 12.68359375 C-1.79359089 14.44647768 -4.11477468 14.33001624 -7.6875 14.25 C-8.84636719 14.23453125 -10.00523437 14.2190625 -11.19921875 14.203125 C-14 14 -14 14 -15 13 C-15.375 9.75 -15.375 9.75 -15 6 C-10.67989611 0.77040055 -6.83222648 -1.22797187 0 0 Z " fill="#075B99" transform="translate(303,147)"/>
<path d="M0 0 C0 1.32 0 2.64 0 4 C-3.3 4 -6.6 4 -10 4 C-10 4.66 -10 5.32 -10 6 C-20 11 -20 11 -22.2578125 12.00390625 C-24.76598617 13.43795173 -25.05016826 15.35404016 -26 18 C-26.66 18.33 -27.32 18.66 -28 19 C-28.12058704 16.1059111 -28.08490295 14.635472 -27 12 C-19.85093973 4.3928446 -10.51745825 -0.29215162 0 0 Z " fill="#0E68A8" transform="translate(537,169)"/>
<path d="M0 0 C-1 3 -1 3 -2 4 C-0.68 4.66 0.64 5.32 2 6 C1.02391783 8.92824652 -0.10786631 10.61426621 -2 13 C-1.34 13.33 -0.68 13.66 0 14 C-0.99 14.66 -1.98 15.32 -3 16 C-3.433125 15.236875 -3.86625 14.47375 -4.3125 13.6875 C-5.73686785 11.41906232 -7.03260097 9.7800277 -9 8 C-7.07834179 2.53066508 -6.10288444 0 0 0 Z " fill="#DB6A02" transform="translate(362,15)"/>
<path d="M0 0 C2.05078125 0.03255208 4.1015625 0.06510417 6.15234375 0.09765625 C4.27734375 6.97265625 4.27734375 6.97265625 3.15234375 8.09765625 C0.81936942 8.13858562 -1.5147085 8.14007348 -3.84765625 8.09765625 C-2.83612374 0.14990083 -2.83612374 0.14990083 0 0 Z " fill="#1C6898" transform="translate(438.84765625,61.90234375)"/>
<path d="M0 0 C1.32644531 -0.05607422 1.32644531 -0.05607422 2.6796875 -0.11328125 C5.125 0.3125 5.125 0.3125 6.96484375 2.16015625 C8.125 4.3125 8.125 4.3125 7.8125 7.0625 C7.585625 7.805 7.35875 8.5475 7.125 9.3125 C6.465 9.3125 5.805 9.3125 5.125 9.3125 C5.125 7.3325 5.125 5.3525 5.125 3.3125 C1.825 3.3125 -1.475 3.3125 -4.875 3.3125 C-5.205 4.6325 -5.535 5.9525 -5.875 7.3125 C-6.535 7.3125 -7.195 7.3125 -7.875 7.3125 C-5.59035231 0.15393724 -5.59035231 0.15393724 0 0 Z " fill="#0F5276" transform="translate(521.875,32.6875)"/>
<path d="M0 0 C1.32 0 2.64 0 4 0 C4 0.66 4 1.32 4 2 C5.65 2 7.3 2 9 2 C9 2.66 9 3.32 9 4 C10.32 3.67 11.64 3.34 13 3 C12.67 4.32 12.34 5.64 12 7 C4.72727273 7.36363636 4.72727273 7.36363636 1.5 5.75 C0 4 0 4 0 0 Z " fill="#185B90" transform="translate(510,187)"/>
<path d="M0 0 C0.33 0 0.66 0 1 0 C1 3.3 1 6.6 1 10 C6.28 10.33 11.56 10.66 17 11 C13.25464166 13.49690556 10.33089588 13.49880519 6 13 C3.13809388 12.3488206 1.58585722 11.58317789 -1 10 C-2.20998129 6.65475762 -2.3700356 4.93742351 -1.0625 1.625 C-0.5365625 0.820625 -0.5365625 0.820625 0 0 Z " fill="#185373" transform="translate(379,58)"/>
<path d="M0 0 C6.29345794 -0.36308411 6.29345794 -0.36308411 9.25 1.15625 C11 3 11 3 11.171875 5.69921875 C11.03265625 6.68535156 10.8934375 7.67148438 10.75 8.6875 C10.62109375 9.68136719 10.4921875 10.67523438 10.359375 11.69921875 C10.24078125 12.45847656 10.1221875 13.21773437 10 14 C9.34 13.34 8.68 12.68 8 12 C8.03307407 8.94616121 8.56695842 6.03129104 9 3 C5.7 3 2.4 3 -1 3 C-0.67 2.01 -0.34 1.02 0 0 Z " fill="#08487B" transform="translate(342,133)"/>
<path d="M0 0 C6.27 0 12.54 0 19 0 C16 3 16 3 12.20703125 3.29296875 C10.74190067 3.2730801 9.27691633 3.23737968 7.8125 3.1875 C7.06291016 3.17396484 6.31332031 3.16042969 5.54101562 3.14648438 C3.69370233 3.11118539 1.84675934 3.05737917 0 3 C0 2.01 0 1.02 0 0 Z " fill="#043D63" transform="translate(243,146)"/>
<path d="M0 0 C2.64680904 0.11339204 5.29177518 0.24012873 7.9375 0.375 C9.06961914 0.42140625 9.06961914 0.42140625 10.22460938 0.46875 C12.15507395 0.5726315 14.07942081 0.77895614 16 1 C16.33 1.66 16.66 2.32 17 3 C14.72923158 3.02699725 12.45837179 3.04639453 10.1875 3.0625 C8.29064453 3.07990234 8.29064453 3.07990234 6.35546875 3.09765625 C3 3 3 3 0 2 C0 1.34 0 0.68 0 0 Z " fill="#053760" transform="translate(446,156)"/>
<path d="M0 0 C0.66 0 1.32 0 2 0 C1.51622419 6.4100295 1.51622419 6.4100295 -0.75 9 C-3.5806311 10.25805827 -5.08518324 9.89063845 -8 9 C-7.67 8.01 -7.34 7.02 -7 6 C-5.35 6 -3.7 6 -2 6 C-1.34 4.02 -0.68 2.04 0 0 Z " fill="#145580" transform="translate(429,61)"/>
<path d="M0 0 C0.33 0 0.66 0 1 0 C0.47606294 5.86809507 -0.76108858 10.54873741 -3 16 C-3.66 16 -4.32 16 -5 16 C-3.90301833 10.30860098 -2.45946923 5.25432063 0 0 Z " fill="#085184" transform="translate(362,134)"/>
<path d="M0 0 C0.66 0 1.32 0 2 0 C2 4.29 2 8.58 2 13 C1.34 11.68 0.68 10.36 0 9 C-0.66 8.67 -1.32 8.34 -2 8 C-2.20086443 4.28400809 -2.1519437 3.22791555 0 0 Z " fill="#1573AF" transform="translate(520,43)"/>
<path d="M0 0 C0.66 0.33 1.32 0.66 2 1 C0.90344712 2.31886772 -0.20253423 3.62990057 -1.3125 4.9375 C-1.92738281 5.66839844 -2.54226562 6.39929688 -3.17578125 7.15234375 C-5 9 -5 9 -8 10 C-6.5682479 4.98886765 -4.01554307 3.05530451 0 0 Z " fill="#E06C1D" transform="translate(214,94)"/>
<path d="M0 0 C0.99 0.33 1.98 0.66 3 1 C3.90238747 3.70716242 4.11851302 5.23776768 4.09765625 8.01171875 C4.09443359 8.76904297 4.09121094 9.52636719 4.08789062 10.30664062 C4.07951172 11.09232422 4.07113281 11.87800781 4.0625 12.6875 C4.05798828 13.48478516 4.05347656 14.28207031 4.04882812 15.10351562 C4.0370585 17.06904257 4.01912348 19.03453085 4 21 C3.67 21 3.34 21 3 21 C2.86722656 19.90300781 2.73445312 18.80601563 2.59765625 17.67578125 C2.41937015 16.22134199 2.2409792 14.76691558 2.0625 13.3125 C1.97548828 12.59126953 1.88847656 11.87003906 1.79882812 11.12695312 C1.33686195 7.37989416 0.80832321 3.69207089 0 0 Z " fill="#E87521" transform="translate(569,38)"/>
<path d="M0 0 C-1.24877829 3.74633486 -3.06047445 5.41041797 -6 8 C-6.99 8 -7.98 8 -9 8 C-7.07834179 2.53066508 -6.10288444 0 0 0 Z " fill="#C0731D" transform="translate(362,15)"/>
<path d="M0 0 C-0.33 3.3 -0.66 6.6 -1 10 C-2.32 9.67 -3.64 9.34 -5 9 C-4.4140625 2.84765625 -4.4140625 2.84765625 -4 1 C-2 0 -2 0 0 0 Z " fill="#00479E" transform="translate(317,134)"/>
<path d="M0 0 C2.31 0 4.62 0 7 0 C7.66 1.32 8.32 2.64 9 4 C8.01 4.33 7.02 4.66 6 5 C6 4.34 6 3.68 6 3 C3.69 3 1.38 3 -1 3 C-0.67 2.01 -0.34 1.02 0 0 Z " fill="#125B82" transform="translate(462,33)"/>
<path d="M0 0 C0.66 0.33 1.32 0.66 2 1 C1.57405412 2.44096586 1.13373367 3.87768712 0.6875 5.3125 C0.44386719 6.11300781 0.20023437 6.91351563 -0.05078125 7.73828125 C-1.04182023 10.09964573 -2.08074943 11.33879993 -4 13 C-3.40895235 8.15340923 -2.02055843 4.39251833 0 0 Z " fill="#0C5A8E" transform="translate(407,53)"/>
<path d="M0 0 C0.99 0.495 0.99 0.495 2 1 C2.33333333 3 2.66666667 5 3 7 C3.66 7.33 4.32 7.66 5 8 C3.625 9.5 3.625 9.5 2 11 C1.34 11 0.68 11 0 11 C0 7.37 0 3.74 0 0 Z " fill="#0F6EAA" transform="translate(527,48)"/>
<path d="M0 0 C2 2 2 2 2.125 5.625 C2.08375 6.73875 2.0425 7.8525 2 9 C1.01 9.33 0.02 9.66 -1 10 C-2.15837626 5.94568308 -1.83691257 3.78187881 0 0 Z " fill="#0036A6" transform="translate(519,121)"/>
<path d="M0 0 C0 0.99 0 1.98 0 3 C-3.3 3 -6.6 3 -10 3 C-10 2.34 -10 1.68 -10 1 C-6.78548731 -0.60725635 -3.56387464 -0.05748185 0 0 Z " fill="#114366" transform="translate(439,33)"/>
<path d="M0 0 C1.79158489 -0.02696365 3.58328473 -0.04637917 5.375 -0.0625 C6.37273438 -0.07410156 7.37046875 -0.08570312 8.3984375 -0.09765625 C11 0 11 0 13 1 C13 1.66 13 2.32 13 3 C11.58430936 3.08167446 10.16723195 3.13949698 8.75 3.1875 C7.96109375 3.22230469 7.1721875 3.25710937 6.359375 3.29296875 C3.48287032 2.93578688 2.15423231 1.88248282 0 0 Z " fill="#8C3E12" transform="translate(545,24)"/>
<path d="M0 0 C0.66 0 1.32 0 2 0 C1.66275164 3.11954738 1.3790035 4.6209965 -0.875 6.875 C-1.57625 7.24625 -2.2775 7.6175 -3 8 C-3.99 7.67 -4.98 7.34 -6 7 C-4.36587557 5.29159719 -3.13093906 4.06546953 -1 3 C-0.67 2.01 -0.34 1.02 0 0 Z " fill="#0A4E84" transform="translate(519,153)"/>
<path d="M0 0 C0.33 0.99 0.66 1.98 1 3 C0.67 3.33 0.34 3.66 0 4 C-0.36760731 6.32817964 -0.70241581 8.6618385 -1 11 C-1.66 11 -2.32 11 -3 11 C-3.33 8.69 -3.66 6.38 -4 4 C-3.34 4 -2.68 4 -2 4 C-1.34 2.68 -0.68 1.36 0 0 Z " fill="#1476B4" transform="translate(547,42)"/>
<path d="M0 0 C-2.24497221 2.24497221 -2.96027349 2.37003419 -6 2.75 C-7.051875 2.89695313 -7.051875 2.89695313 -8.125 3.046875 C-10 3 -10 3 -12 1 C-10.56496445 0.63597631 -9.12683494 0.28413409 -7.6875 -0.0625 C-6.88699219 -0.25972656 -6.08648437 -0.45695313 -5.26171875 -0.66015625 C-3 -1 -3 -1 0 0 Z " fill="#0C4B7A" transform="translate(345,158)"/>
<path d="M0 0 C0 0.66 0 1.32 0 2 C-1.98 2.33 -3.96 2.66 -6 3 C-6.33 3.99 -6.66 4.98 -7 6 C-7.66 5.01 -8.32 4.02 -9 3 C-8.34 3 -7.68 3 -7 3 C-7 2.34 -7 1.68 -7 1 C-3.375 -1.125 -3.375 -1.125 0 0 Z " fill="#CF3400" transform="translate(363,20)"/>
<path d="M0 0 C-0.309375 0.721875 -0.61875 1.44375 -0.9375 2.1875 C-1.92560539 4.80307309 -2.5287754 7.25118982 -3 10 C-3.33 10 -3.66 10 -4 10 C-4 8.02 -4 6.04 -4 4 C-4.66 3.67 -5.32 3.34 -6 3 C-2.25 0 -2.25 0 0 0 Z " fill="#0D73B1" transform="translate(404,48)"/>
<path d="M0 0 C0.99 0.33 1.98 0.66 3 1 C2.01 1.495 2.01 1.495 1 2 C1.33 2.99 1.66 3.98 2 5 C0.1875 5.625 0.1875 5.625 -2 6 C-2.99 5.34 -3.98 4.68 -5 4 C-2.6875 1.9375 -2.6875 1.9375 0 0 Z " fill="#004071" transform="translate(503,112)"/>
<path d="M0 0 C0.66 0 1.32 0 2 0 C0.63016497 3.16115776 0.0109362 3.9927092 -3 6 C-5.1875 5.625 -5.1875 5.625 -7 5 C-6.401875 4.731875 -5.80375 4.46375 -5.1875 4.1875 C-2.95672092 3.1106021 -2.95672092 3.1106021 -1.375 1.375 C-0.694375 0.694375 -0.694375 0.694375 0 0 Z " fill="#114F77" transform="translate(530,65)"/>
<path d="M0 0 C0.33 0 0.66 0 1 0 C1.0825 1.258125 1.165 2.51625 1.25 3.8125 C1.66557143 7.33811212 1.66557143 7.33811212 4.0625 10 C4.701875 10.33 5.34125 10.66 6 11 C4.35 11.33 2.7 11.66 1 12 C-1.27678571 3.96428571 -1.27678571 3.96428571 0 0 Z " fill="#1374AA" transform="translate(521,58)"/>
<path d="M0 0 C0.99 0.33 1.98 0.66 3 1 C-1.455 3.97 -1.455 3.97 -6 7 C-6.66 6.67 -7.32 6.34 -8 6 C-6.7391988 4.96680187 -5.46596742 3.94875621 -4.1875 2.9375 C-3.47980469 2.36902344 -2.77210938 1.80054688 -2.04296875 1.21484375 C-1.36878906 0.81394531 -0.69460938 0.41304687 0 0 Z " fill="#525E6D" transform="translate(570,185)"/>
<path d="M0 0 C0.309375 0.639375 0.61875 1.27875 0.9375 1.9375 C1.8345163 3.93610821 1.8345163 3.93610821 3 5 C5.32817964 5.36760731 7.6618385 5.70241581 10 6 C10 6.33 10 6.66 10 7 C3.9453125 7.9765625 3.9453125 7.9765625 2 8 C0 6 0 6 -0.125 2.875 C-0.08375 1.92625 -0.0425 0.9775 0 0 Z " fill="#0D5E92" transform="translate(330,152)"/>
<path d="M0 0 C0.66 0 1.32 0 2 0 C1.44271087 3.34373475 0.64826111 6.03312999 -1 9 C-1.66 9 -2.32 9 -3 9 C-2.01 6.03 -1.02 3.06 0 0 Z " fill="#055085" transform="translate(527,152)"/>
<path d="M0 0 C0.99 0.33 1.98 0.66 3 1 C2.67 2.32 2.34 3.64 2 5 C0.68 5.33 -0.64 5.66 -2 6 C-2 4.35 -2 2.7 -2 1 C-1.34 0.67 -0.68 0.34 0 0 Z " fill="#014AA8" transform="translate(382,112)"/>
<path d="M0 0 C0.66 0 1.32 0 2 0 C2 0.99 2 1.98 2 3 C2.99 3.33 3.98 3.66 5 4 C5 4.33 5 4.66 5 5 C3.02 5 1.04 5 -1 5 C-0.67 3.35 -0.34 1.7 0 0 Z " fill="#21648D" transform="translate(436,65)"/>
<path d="M0 0 C0.66 0 1.32 0 2 0 C2 1.32 2 2.64 2 4 C2.99 4.33 3.98 4.66 5 5 C5 5.66 5 6.32 5 7 C1.125 6.125 1.125 6.125 0 5 C-0.04063832 3.33382885 -0.042721 1.66611905 0 0 Z " fill="#0F5694" transform="translate(416,43)"/>
<path d="M0 0 C1.98 0.66 3.96 1.32 6 2 C6 3.65 6 5.3 6 7 C5.34 7 4.68 7 4 7 C3.67 6.01 3.34 5.02 3 4 C2.01 3.67 1.02 3.34 0 3 C0 2.01 0 1.02 0 0 Z " fill="#084F82" transform="translate(504,132)"/>
<path d="M0 0 C6.625 -0.25 6.625 -0.25 10 2 C7.25 2.6875 7.25 2.6875 4 3 C1.625 1.5625 1.625 1.5625 0 0 Z " fill="#E1731E" transform="translate(550,14)"/>
<path d="M0 0 C1.0326802 2.78823655 1.04509293 3.8677274 0.0625 6.75 C-0.288125 7.4925 -0.63875 8.235 -1 9 C-1.33 9 -1.66 9 -2 9 C-2.25 3.375 -2.25 3.375 0 0 Z " fill="#0C5EA5" transform="translate(356,153)"/>
<path d="M0 0 C1.41687119 4.25061356 0.19320039 6.71851625 -1 11 C-1.33 11 -1.66 11 -2 11 C-2.05399736 9.54207116 -2.09279177 8.08357288 -2.125 6.625 C-2.15980469 5.40683594 -2.15980469 5.40683594 -2.1953125 4.1640625 C-2 2 -2 2 0 0 Z " fill="#084E87" transform="translate(264,154)"/>
<path d="M0 0 C0.88672454 2.4828287 1.14518218 3.62029277 0.1875 6.125 C-1 8 -1 8 -3 10 C-2.49287967 6.28111761 -1.88391785 3.26545761 0 0 Z " fill="#023E6A" transform="translate(316,147)"/>
<path d="M0 0 C0.99 0 1.98 0 3 0 C3.33 1.98 3.66 3.96 4 6 C2.35 5.01 0.7 4.02 -1 3 C-0.67 2.01 -0.34 1.02 0 0 Z " fill="#085597" transform="translate(271,141)"/>
<path d="M0 0 C1.98 0 3.96 0 6 0 C5.67 0.99 5.34 1.98 5 3 C2.525 2.01 2.525 2.01 0 1 C0 0.67 0 0.34 0 0 Z " fill="#003373" transform="translate(396,43)"/>
<path d="M0 0 C1 3 1 3 0 6 C-0.66 5.67 -1.32 5.34 -2 5 C-1.34 3.35 -0.68 1.7 0 0 Z " fill="#001A75" transform="translate(488,157)"/>
<path d="M0 0 C0.66 0.99 1.32 1.98 2 3 C1.34 3.66 0.68 4.32 0 5 C-0.33 4.01 -0.66 3.02 -1 2 C-0.67 1.34 -0.34 0.68 0 0 Z " fill="#00003F" transform="translate(328,141)"/>
<path d="M0 0 C0.33 1.32 0.66 2.64 1 4 C0.01 3.67 -0.98 3.34 -2 3 C-1.34 2.01 -0.68 1.02 0 0 Z " fill="#0049B6" transform="translate(293,132)"/>
<path d="M0 0 C0 3 0 3 0 3 Z " fill="#002020" transform="translate(284,152)"/>
<path d="M0 0 C0 3 0 3 0 3 Z " fill="#00007F" transform="translate(312,148)"/>
<path d="" fill="#002AD4" transform="translate(0,0)"/>
<path d="M0 0 C0.99 0.495 0.99 0.495 2 1 C1.01 1.495 1.01 1.495 0 2 C0 1.34 0 0.68 0 0 Z " fill="#000055" transform="translate(275,137)"/>
<path d="M0 0 C2 1 2 1 2 1 Z " fill="#004040" transform="translate(524,188)"/>
<path d="" fill="#00007F" transform="translate(0,0)"/>
<path d="" fill="#0000FF" transform="translate(0,0)"/>
<path d="" fill="#008080" transform="translate(0,0)"/>
<path d="M0 0 C2 1 2 1 2 1 Z " fill="#0000FF" transform="translate(517,132)"/>
<path d="M0 0 C2 1 2 1 2 1 Z " fill="#404040" transform="translate(558,30)"/>
<path d="M0 0 C2 1 2 1 2 1 Z " fill="#000000" transform="translate(364,20)"/>
<path d="" fill="#008080" transform="translate(0,0)"/>
<path d="" fill="#005555" transform="translate(0,0)"/>
<path d="" fill="#008080" transform="translate(0,0)"/>
<path d="" fill="#000000" transform="translate(0,0)"/>
<path d="" fill="#000000" transform="translate(0,0)"/>
<path d="" fill="#000000" transform="translate(0,0)"/>
<path d="" fill="#000000" transform="translate(0,0)"/>
<path d="" fill="#000000" transform="translate(0,0)"/>
<path d="" fill="#0000FF" transform="translate(0,0)"/>
<path d="" fill="#000000" transform="translate(0,0)"/>
<path d="" fill="#000000" transform="translate(0,0)"/>
<path d="" fill="#000000" transform="translate(0,0)"/>
<path d="" fill="#000000" transform="translate(0,0)"/>
<path d="" fill="#0000FF" transform="translate(0,0)"/>
<path d="" fill="#0000FF" transform="translate(0,0)"/>
<path d="" fill="#000000" transform="translate(0,0)"/>
<path d="" fill="#000000" transform="translate(0,0)"/>
<path d="" fill="#000000" transform="translate(0,0)"/>
<path d="" fill="#000000" transform="translate(0,0)"/>
<path d="" fill="#000000" transform="translate(0,0)"/>
<path d="" fill="#000000" transform="translate(0,0)"/>
<path d="" fill="#000000" transform="translate(0,0)"/>
<path d="" fill="#000000" transform="translate(0,0)"/>
<path d="" fill="#000000" transform="translate(0,0)"/>
<path d="" fill="#000000" transform="translate(0,0)"/>
<path d="" fill="#000000" transform="translate(0,0)"/>
<path d="" fill="#000000" transform="translate(0,0)"/>
<path d="" fill="#000000" transform="translate(0,0)"/>
<path d="" fill="#000000" transform="translate(0,0)"/>
<path d="" fill="#000000" transform="translate(0,0)"/>
<path d="" fill="#000000" transform="translate(0,0)"/>
<path d="" fill="#000000" transform="translate(0,0)"/>
<path d="" fill="#000000" transform="translate(0,0)"/>
<path d="" fill="#000000" transform="translate(0,0)"/>
<path d="" fill="#000000" transform="translate(0,0)"/>
<path d="" fill="#000000" transform="translate(0,0)"/>
<path d="" fill="#000000" transform="translate(0,0)"/>
<path d="" fill="#000000" transform="translate(0,0)"/>
<path d="" fill="#000000" transform="translate(0,0)"/>
<path d="" fill="#000000" transform="translate(0,0)"/>
<path d="" fill="#000000" transform="translate(0,0)"/>
<path d="" fill="#000000" transform="translate(0,0)"/>
<path d="" fill="#000000" transform="translate(0,0)"/>
<path d="" fill="#000000" transform="translate(0,0)"/>
<path d="" fill="#000000" transform="translate(0,0)"/>
<path d="" fill="#FF0000" transform="translate(0,0)"/>
<path d="" fill="#000000" transform="translate(0,0)"/>
<path d="" fill="#000000" transform="translate(0,0)"/>
<path d="" fill="#000000" transform="translate(0,0)"/>
</svg>
