<?xml version="1.0" encoding="UTF-8"?>
<svg version="1.1" xmlns="http://www.w3.org/2000/svg" width="823" height="220">
<path d="M0 0 C60.62969925 0 60.62969925 0 70.3515625 8.18359375 C79.57208017 18.34364284 79.74575265 33.00256092 79.15673828 45.96679688 C78.5955761 53.24617167 76.89894921 60.43903063 72 66 C69.42196983 68.1376373 66.76300987 70.10881363 64 72 C65.051875 72.495 66.10375 72.99 67.1875 73.5 C72.50087889 76.60215455 74.92208298 80.78837896 76.85620117 86.55102539 C79.53154836 96.98304879 79.48999046 107.28930481 79.5625 118 C79.58637903 120.78588684 79.61452619 123.5714702 79.65428162 126.35717773 C79.6784354 128.07663334 79.69345869 129.79624961 79.69789124 131.51586914 C79.754778 135.86344648 80.19819469 138.9810367 82 143 C82 144.32 82 145.64 82 147 C72.76 147 63.52 147 54 147 C51.7505608 141.37640199 51.7505608 141.37640199 51.71289062 137.77978516 C51.69947632 136.98190582 51.68606201 136.18402649 51.67224121 135.36196899 C51.66696411 134.51290985 51.66168701 133.66385071 51.65625 132.7890625 C51.6416272 131.90270111 51.62700439 131.01633972 51.61193848 130.1031189 C51.56556944 127.27712479 51.53130588 124.45119866 51.5 121.625 C51.45867843 117.90860128 51.40492485 114.19268159 51.34375 110.4765625 C51.3384729 109.63155182 51.3331958 108.78654114 51.32775879 107.91592407 C51.24414685 102.90341341 50.59788642 98.75637525 49 94 C48.7525 93.236875 48.505 92.47375 48.25 91.6875 C46.70462011 89.26365803 46.70462011 89.26365803 41 88 C36.71 87.67 32.42 87.34 28 87 C28 106.8 28 126.6 28 147 C18.76 147 9.52 147 0 147 C0 98.49 0 49.98 0 0 Z M28 24 C28 36.21 28 48.42 28 61 C41.828093 62.28623939 41.828093 62.28623939 48 58 C51.39717674 53.03833397 51.51826496 48.43325831 51.5 42.625 C51.54253906 41.40683594 51.54253906 41.40683594 51.5859375 40.1640625 C51.60507224 34.1940226 50.25554604 29.37879255 46 25 C40.42351844 23.43408354 40.42351844 23.43408354 28 24 Z " fill="#F40E01" transform="translate(629,37)"/>
<path d="M0 0 C60.85714286 0 60.85714286 0 70 8 C76.40482385 15.05084355 78.51901147 23.68631306 79 33 C79.05285156 33.97839844 79.10570312 34.95679688 79.16015625 35.96484375 C79.43671547 45.88490277 79.07267167 58.35386847 72 66 C69.41730457 68.13159124 66.76291981 70.10887528 64 72 C64.86625 72.495 65.7325 72.99 66.625 73.5 C71.78325732 76.95921047 75.14889737 81.73039299 77.3125 87.5 C78.66920958 94.40688514 79.15408019 101.1191424 79.24609375 108.13671875 C79.27899898 109.86524007 79.31221112 111.59375557 79.34570312 113.32226562 C79.3932325 116.0146937 79.43778395 118.70709277 79.47680664 121.3996582 C79.51655708 124.0205692 79.56804818 126.64104778 79.62109375 129.26171875 C79.6295079 130.06389328 79.63792206 130.86606781 79.64659119 131.69255066 C79.74080357 135.96449076 80.24833116 139.04593284 82 143 C82 144.32 82 145.64 82 147 C72.76 147 63.52 147 54 147 C52.07466444 142.18666109 51.69087256 138.658247 51.65625 133.62109375 C51.6416272 132.81317886 51.62700439 132.00526398 51.61193848 131.17286682 C51.56561192 128.5944616 51.53136723 126.01612782 51.5 123.4375 C51.92006098 107.46722816 51.92006098 107.46722816 49 92 C43.24883015 86.49410063 35.72862384 87.59450953 28 87 C28 106.8 28 126.6 28 147 C18.76 147 9.52 147 0 147 C0 98.49 0 49.98 0 0 Z M28 24 C28 36.21 28 48.42 28 61 C41.828093 62.28623939 41.828093 62.28623939 48 58 C51.95216865 53.47580695 51.51584448 48.32901179 51.5 42.625 C51.54253906 41.24441406 51.54253906 41.24441406 51.5859375 39.8359375 C51.60467065 33.27933393 50.52313511 29.82207794 46 25 C40.42351844 23.43408354 40.42351844 23.43408354 28 24 Z " fill="#F80E00" transform="translate(291,37)"/>
<path d="M0 0 C1.25103516 0.58394531 1.25103516 0.58394531 2.52734375 1.1796875 C10.56613063 5.26556715 15.50331839 11.90420593 18.90234375 20.203125 C21.77963531 30.53617205 21.16286118 41.83194732 21.16796875 52.453125 C21.17119085 54.04197213 21.1745556 55.63081898 21.17805481 57.21966553 C21.18401256 60.53788947 21.1858982 63.8560875 21.18530273 67.17431641 C21.18520134 71.38769008 21.19884513 75.60089439 21.21607494 79.81422806 C21.22729469 83.09343196 21.2292189 86.37259621 21.22869301 89.65181732 C21.22985848 91.20326063 21.23419774 92.75470546 21.24202538 94.30612946 C21.31789146 110.89515374 21.01010463 126.05040833 8.8125 138.5625 C5.55793702 141.65016231 2.40269447 143.97452733 -1.8125 145.5625 C-2.45832031 145.81128906 -3.10414063 146.06007812 -3.76953125 146.31640625 C-16.08471552 150.0907622 -31.06311714 149.1566897 -42.6875 143.75 C-43.450625 143.1725 -44.21375 142.595 -45 142 C-45.61359375 141.53980469 -46.2271875 141.07960937 -46.859375 140.60546875 C-54.6612577 134.34343132 -59.1591052 126.84434113 -61 117 C-61.26121584 113.9816946 -61.27410935 110.98530293 -61.25878906 107.95703125 C-61.2622937 107.09089203 -61.26579834 106.22475281 -61.26940918 105.33236694 C-61.27815347 102.4923278 -61.27240327 99.65254132 -61.265625 96.8125 C-61.26697375 94.82527621 -61.26891603 92.83805274 -61.27142334 90.85083008 C-61.27436472 86.69511764 -61.27010873 82.53949144 -61.26074219 78.38378906 C-61.2493483 73.07118362 -61.25591305 67.75878029 -61.26788712 62.44618225 C-61.27513236 58.34540295 -61.27280555 54.24467115 -61.26763153 50.14389038 C-61.2663024 48.18557715 -61.26791679 46.22725952 -61.27259064 44.26895142 C-61.27769977 41.52684185 -61.2698843 38.78505448 -61.25878906 36.04296875 C-61.26283752 35.24273285 -61.26688599 34.44249695 -61.27105713 33.61801147 C-61.23246957 28.44045619 -60.42679341 23.98134041 -59 19 C-58.34 19 -57.68 19 -57 19 C-56.95875 18.34 -56.9175 17.68 -56.875 17 C-54.49180211 8.82903582 -48.17188507 3.9870019 -41 0 C-40.319375 -0.41507813 -39.63875 -0.83015625 -38.9375 -1.2578125 C-27.97362229 -6.85722148 -10.52143624 -6.16172509 0 0 Z M-30 24 C-32.65670077 29.1476549 -33.43641604 33.40816667 -33.38818359 39.2109375 C-33.39344055 40.00050842 -33.39869751 40.79007935 -33.40411377 41.60357666 C-33.41723743 44.19425679 -33.40860306 46.78431443 -33.3984375 49.375 C-33.40046043 51.18668739 -33.4033737 52.99837398 -33.40713501 54.81005859 C-33.41154802 58.59936304 -33.40516034 62.38845474 -33.39111328 66.17773438 C-33.374022 71.02311134 -33.38386868 75.8679897 -33.40183067 80.71334839 C-33.4126962 84.45210494 -33.40920948 88.19074422 -33.4014473 91.92950439 C-33.39945294 93.71559712 -33.40187758 95.50170067 -33.40888596 97.28778076 C-33.41654619 99.78849293 -33.40483293 102.28840926 -33.38818359 104.7890625 C-33.39425629 105.51965881 -33.40032898 106.25025513 -33.40658569 107.00299072 C-33.34386488 112.11488607 -32.31120187 115.5344856 -30 120 C-26.43241534 123.25279778 -22.87379642 123.51839537 -18.21875 123.35546875 C-14.73276986 122.79697545 -12.61799384 121.29872629 -10 119 C-7.3869763 115.27241131 -7.71128478 111.21311057 -7.7253418 106.83837891 C-7.72023087 106.01837906 -7.71511993 105.19837921 -7.70985413 104.35353088 C-7.69596125 101.64446704 -7.69691482 98.93565773 -7.69921875 96.2265625 C-7.69533132 94.34093125 -7.69099656 92.45530087 -7.68623352 90.56967163 C-7.67877172 86.61705691 -7.67906206 82.6645315 -7.68432617 78.71191406 C-7.69011721 73.65227069 -7.67319843 68.59299382 -7.6499815 63.53341103 C-7.63523228 59.638579 -7.63437414 55.74383496 -7.63749123 51.84897995 C-7.6369785 49.9839035 -7.63174982 48.11882207 -7.62167931 46.25377274 C-7.60931077 43.64241149 -7.61610921 41.03176046 -7.62768555 38.42041016 C-7.62004181 37.65345322 -7.61239807 36.88649628 -7.60452271 36.09629822 C-7.65114003 31.32664014 -8.42132656 28.02664302 -11 24 C-16.61917474 20.25388351 -24.44826929 19.66694189 -30 24 Z " fill="#F30E01" transform="translate(173,38)"/>
<path d="M0 0 C0.85722656 0.4125 1.71445312 0.825 2.59765625 1.25 C9.47498942 4.81527434 12.73270701 9.0659644 16 16 C16.40089844 16.84175781 16.80179688 17.68351562 17.21484375 18.55078125 C21.87582044 29.21629019 21.14933301 40.58569214 21.1328125 52.00390625 C21.13348737 53.65339675 21.13445893 55.30288716 21.13571167 56.95237732 C21.13717959 60.39591425 21.13506304 63.8394251 21.13037109 67.28295898 C21.12466986 71.67962751 21.12796108 76.07623504 21.13394356 80.47290134 C21.13756983 83.87453159 21.13640118 87.27614755 21.13381577 90.67777824 C21.13315244 92.2983698 21.13395395 93.91896269 21.13629532 95.53955269 C21.13885644 97.80968758 21.13493314 100.07972576 21.12939453 102.34985352 C21.12859894 103.63730972 21.12780334 104.92476593 21.12698364 106.25123596 C20.88681614 113.34137204 19.82759308 119.49526795 17 126 C16.58427734 127.00740234 16.58427734 127.00740234 16.16015625 128.03515625 C12.84537569 135.41872324 7.15627563 141.21932608 0 145 C-15.01180365 150.56347995 -30.46085094 148.92908561 -45 143 C-45 142.34 -45 141.68 -45 141 C-45.59296875 140.7421875 -46.1859375 140.484375 -46.796875 140.21875 C-49.17660965 138.90230105 -50.50978792 137.57419218 -52.25 135.5 C-52.77078125 134.8915625 -53.2915625 134.283125 -53.828125 133.65625 C-55 132 -55 132 -55 130 C-55.66 130 -56.32 130 -57 130 C-61.53468665 118.78661336 -61.57314465 108.34535417 -61.49609375 96.4296875 C-61.49624909 94.45679674 -61.49774383 92.48390568 -61.50050354 90.51101685 C-61.50188016 86.39766777 -61.48945157 82.28467052 -61.46655273 78.17138672 C-61.43813302 72.92525016 -61.44092569 67.67969543 -61.45364285 62.43351555 C-61.46062897 58.36690383 -61.45277797 54.30042432 -61.44038582 50.2338295 C-61.43590244 48.30032993 -61.43550696 46.36681602 -61.43945122 44.43331528 C-61.46702826 19.03297229 -61.46702826 19.03297229 -54.125 10.5625 C-53.46757813 9.78003906 -52.81015625 8.99757813 -52.1328125 8.19140625 C-48.45199422 4.40946659 -44.67172083 1.63204869 -39.9375 -0.6875 C-38.68259766 -1.31205078 -38.68259766 -1.31205078 -37.40234375 -1.94921875 C-26.67262581 -6.64237993 -9.99002574 -5.86570319 0 0 Z M-30.875 24.8125 C-33.31377047 29.55455369 -33.14855534 34.57729264 -33.14526367 39.80029297 C-33.14862228 40.5700647 -33.1519809 41.33983643 -33.15544128 42.13293457 C-33.16491466 44.66936878 -33.16689256 47.20573672 -33.16796875 49.7421875 C-33.17118378 51.51189196 -33.17454803 53.28159615 -33.17805481 55.05130005 C-33.18403699 58.75832739 -33.18589564 62.46533145 -33.18530273 66.17236328 C-33.18520115 70.91231296 -33.19885368 75.65211273 -33.21607494 80.3920269 C-33.22721686 84.04668864 -33.22922127 87.70131438 -33.22869301 91.35599136 C-33.2298698 93.10301353 -33.23427466 94.85003672 -33.24202538 96.59704208 C-33.25186985 99.04510627 -33.24892978 101.49284812 -33.24291992 103.94091797 C-33.24853943 104.6559549 -33.25415894 105.37099182 -33.25994873 106.10769653 C-33.22470794 111.78328324 -32.67486628 116.95875672 -29 121.4375 C-24.6443625 123.7060612 -20.81318368 123.77010939 -16 123 C-11.91254257 120.95627129 -9.55882404 119.29030945 -8 115 C-7.80420568 112.24549428 -7.71649205 109.59253995 -7.7253418 106.83837891 C-7.72023087 106.01837906 -7.71511993 105.19837921 -7.70985413 104.35353088 C-7.69596125 101.64446704 -7.69691482 98.93565773 -7.69921875 96.2265625 C-7.69533132 94.34093125 -7.69099656 92.45530087 -7.68623352 90.56967163 C-7.67877172 86.61705691 -7.67906206 82.6645315 -7.68432617 78.71191406 C-7.69011721 73.65227069 -7.67319843 68.59299382 -7.6499815 63.53341103 C-7.63523228 59.638579 -7.63437414 55.74383496 -7.63749123 51.84897995 C-7.6369785 49.9839035 -7.63174982 48.11882207 -7.62167931 46.25377274 C-7.60931077 43.64241149 -7.61610921 41.03176046 -7.62768555 38.42041016 C-7.62004181 37.65345322 -7.61239807 36.88649628 -7.60452271 36.09629822 C-7.65114003 31.32664014 -8.42132656 28.02664302 -11 24 C-16.93163503 20.04557665 -25.46900809 19.58670782 -30.875 24.8125 Z " fill="#F30E00" transform="translate(600,38)"/>
<path d="M0 0 C9.24 0 18.48 0 28 0 C28.01981934 3.38644775 28.03963867 6.77289551 28.06005859 10.26196289 C28.12698111 21.45385023 28.20452182 32.64564721 28.28752708 43.83742619 C28.33759146 50.62263307 28.38403491 57.40782825 28.421875 64.19311523 C28.45840653 70.74191777 28.5051335 77.29060172 28.55806351 83.83929253 C28.57658847 86.3370887 28.59170342 88.83491258 28.60334396 91.33275032 C28.62023854 94.83272659 28.64928221 98.33240786 28.68115234 101.83227539 C28.68331253 102.86374191 28.68547272 103.89520844 28.68769836 104.95793152 C28.62941409 114.12437889 28.62941409 114.12437889 32.81640625 121.9140625 C36.75789691 123.87423138 40.710641 123.50749304 45 123 C48.34360678 121.67648898 49.55398885 120.92731577 51.10759544 117.69716358 C52.0113267 114.9657667 52.25969025 112.89723708 52.2784729 110.03288269 C52.28963638 109.05838165 52.30079987 108.08388062 52.31230164 107.07984924 C52.31446182 106.02249069 52.31662201 104.96513214 52.31884766 103.87573242 C52.33391609 102.1921463 52.33391609 102.1921463 52.34928894 100.47454834 C52.38015611 96.76819364 52.39716618 93.0619113 52.4140625 89.35546875 C52.43277127 86.78428015 52.45234446 84.21309771 52.4727478 81.641922 C52.51885755 75.56827642 52.55625476 69.49463457 52.58942068 63.42090636 C52.62767615 56.50429856 52.67707729 49.58778433 52.72740483 42.67125547 C52.83065305 28.44757425 52.91993651 14.22382967 53 0 C57.31248609 -0.02886537 61.62494762 -0.04675255 65.9375 -0.0625 C67.16919922 -0.07087891 68.40089844 -0.07925781 69.66992188 -0.08789062 C70.83974609 -0.09111328 72.00957031 -0.09433594 73.21484375 -0.09765625 C74.84087524 -0.10551147 74.84087524 -0.10551147 76.49975586 -0.11352539 C79 0 79 0 80 1 C80.10194132 2.39326483 80.13517822 3.79163457 80.14044189 5.18861389 C80.14615204 6.09242294 80.15186218 6.99623199 80.15774536 7.9274292 C80.15942215 9.42720306 80.15942215 9.42720306 80.16113281 10.95727539 C80.16858017 12.52828255 80.16858017 12.52828255 80.17617798 14.13102722 C80.19086003 17.61991014 80.19761612 21.10874741 80.203125 24.59765625 C80.20887714 27.02412416 80.21463486 29.45059205 80.22039795 31.87705994 C80.23092891 36.98257662 80.23675599 42.08807749 80.24023438 47.19360352 C80.24568465 53.69951306 80.26962891 60.20520964 80.29820633 66.71105289 C80.31695355 71.73433511 80.32204498 76.75756765 80.32357025 81.78088188 C80.3265766 84.17637721 80.33453598 86.5718721 80.34775543 88.96733284 C80.54261178 127.03476815 80.54261178 127.03476815 68.875 139.75 C59.49925586 148.70870115 47.83363159 149.4664993 35.4296875 149.296875 C28.62001602 149.00735318 22.09618386 147.04809193 16 144 C16 143.34 16 142.68 16 142 C15.1646875 141.6596875 15.1646875 141.6596875 14.3125 141.3125 C7.93305184 137.69173213 3.5290216 131.15936895 1.46176338 124.18383121 C-0.0926623 117.82458956 -0.27124532 111.76332406 -0.22705078 105.23803711 C-0.22734283 104.09555511 -0.22763489 102.95307312 -0.22793579 101.77597046 C-0.22655035 98.02634905 -0.21102605 94.27693014 -0.1953125 90.52734375 C-0.19157958 87.91703907 -0.18873393 85.30673298 -0.18673706 82.69642639 C-0.18054324 76.54493814 -0.16416112 70.39352175 -0.14403808 64.24206501 C-0.12161341 57.23353547 -0.1106692 50.22500234 -0.10064721 43.2164458 C-0.0797928 28.81092167 -0.04314308 14.40547514 0 0 Z " fill="#F30E00" transform="translate(201,37)"/>
<path d="M0 0 C1.3003418 -0.00193359 1.3003418 -0.00193359 2.62695312 -0.00390625 C3.97370117 0.00189453 3.97370117 0.00189453 5.34765625 0.0078125 C6.24162109 0.00394531 7.13558594 0.00007813 8.05664062 -0.00390625 C12.29729722 0.0023902 16.27854922 0.04600147 20.41015625 1.1328125 C20.41015625 1.7928125 20.41015625 2.4528125 20.41015625 3.1328125 C21.07015625 3.1946875 21.73015625 3.2565625 22.41015625 3.3203125 C30.11968568 5.40831005 35.42687879 10.2978705 39.41015625 17.1328125 C39.41015625 17.7928125 39.41015625 18.4528125 39.41015625 19.1328125 C40.07015625 19.1328125 40.73015625 19.1328125 41.41015625 19.1328125 C44.69665606 28.36631197 44.65867474 36.44059153 44.41015625 46.1328125 C35.50015625 46.1328125 26.59015625 46.1328125 17.41015625 46.1328125 C17.08015625 41.8428125 16.75015625 37.5528125 16.41015625 33.1328125 C15.0218742 28.19982282 15.0218742 28.19982282 12.22265625 26.8203125 C7.45628721 25.65520007 3.75957254 25.67452018 -0.90234375 27.2578125 C-3.72424811 28.93668095 -3.72424811 28.93668095 -5.02734375 31.6953125 C-6.10611502 38.28780362 -5.69313988 43.93719557 -2.21484375 49.7578125 C3.51042788 57.52391062 12.31879479 62.29034375 20.609375 66.90625 C21.20363281 67.31101562 21.79789062 67.71578125 22.41015625 68.1328125 C22.41015625 68.7928125 22.41015625 69.4528125 22.41015625 70.1328125 C22.99410156 70.40609375 23.57804687 70.679375 24.1796875 70.9609375 C30.82566604 74.45269505 35.22192704 79.84724606 39.28515625 86.0078125 C39.66631592 86.57209961 40.04747559 87.13638672 40.44018555 87.71777344 C45.09068048 95.07418177 45.7794794 102.96947915 45.72265625 111.5078125 C45.72064209 112.33273193 45.71862793 113.15765137 45.71655273 114.00756836 C45.60058052 121.08603982 44.60734389 127.73843722 41.41015625 134.1328125 C40.75015625 134.1328125 40.09015625 134.1328125 39.41015625 134.1328125 C39.15234375 134.87402344 38.89453125 135.61523438 38.62890625 136.37890625 C35.84074489 142.67907855 30.56937228 146.96929257 24.28515625 149.5703125 C12.19687557 153.98947085 -2.55758438 153.51680606 -14.58984375 149.1328125 C-22.89822859 144.81884345 -28.78627733 138.19397713 -31.8984375 129.4296875 C-32.98763234 125.81134534 -33.71676573 122.63544322 -33.72265625 118.83984375 C-33.72394531 118.04513672 -33.72523438 117.25042969 -33.7265625 116.43164062 C-33.72269531 115.61115234 -33.71882813 114.79066406 -33.71484375 113.9453125 C-33.71871094 113.11322266 -33.72257812 112.28113281 -33.7265625 111.42382812 C-33.71651467 105.25948342 -33.71651467 105.25948342 -32.58984375 104.1328125 C-30.905993 104.03346474 -29.21802778 104.002012 -27.53125 104 C-26.50580078 103.99871094 -25.48035156 103.99742187 -24.42382812 103.99609375 C-22.80444336 104.00189453 -22.80444336 104.00189453 -21.15234375 104.0078125 C-20.07662109 104.00394531 -19.00089844 104.00007813 -17.89257812 103.99609375 C-16.86583984 103.99738281 -15.83910156 103.99867188 -14.78125 104 C-13.83451416 104.00112793 -12.88777832 104.00225586 -11.91235352 104.00341797 C-9.58984375 104.1328125 -9.58984375 104.1328125 -7.58984375 105.1328125 C-7.35889841 108.23732358 -7.27212112 111.29859514 -7.28710938 114.41015625 C-7.16502868 118.41912859 -6.75351397 119.94877778 -4.046875 122.9921875 C-3.23605469 123.69859375 -2.42523438 124.405 -1.58984375 125.1328125 C-1.58984375 125.7928125 -1.58984375 126.4528125 -1.58984375 127.1328125 C5.68282416 127.53238771 5.68282416 127.53238771 12.41015625 125.1328125 C16.28629202 120.97980989 16.76303233 116.9302398 16.59765625 111.328125 C15.83060496 102.34723282 11.54701405 97.48569068 4.8671875 91.828125 C0.9548437 88.68170161 -3.23029747 86.038516 -7.49926758 83.40844727 C-20.8126466 75.1225499 -29.39197182 65.03089595 -33.17578125 49.76953125 C-35.11313849 37.43258656 -33.62129759 25.77867322 -27.77734375 14.6953125 C-20.72862336 6.43824005 -11.15136995 0.01602044 0 0 Z " fill="#F50E00" transform="translate(409.58984375,33.8671875)"/>
<path d="M0 0 C9.9 0 19.8 0 30 0 C31.91282301 4.4632537 33.54077688 8.43930837 34.90234375 13.01953125 C35.23556641 14.12490234 35.56878906 15.23027344 35.91210938 16.36914062 C36.5921795 18.65288088 37.27187101 20.93673393 37.95117188 23.22070312 C39.98688267 29.97110444 42.2743913 36.49914702 45 43 C45.66911192 44.66568648 46.33640278 46.33210883 47 48 C47.33209473 46.89712646 47.33209473 46.89712646 47.67089844 45.77197266 C48.6926636 42.38823942 49.72128512 39.00662658 50.75 35.625 C51.27207031 33.89056641 51.27207031 33.89056641 51.8046875 32.12109375 C53.37621491 26.96997614 54.97617955 21.88530068 57.015625 16.8984375 C59.25925234 11.36003459 61.11035002 5.66894994 63 0 C72.24 0 81.48 0 91 0 C87.69343066 11.02189781 87.69343066 11.02189781 85.75 15.3125 C82.93723279 21.85579533 80.75189343 28.57190931 78.58691406 35.35083008 C76.98507579 40.30099404 75.15660689 45.00598422 72.98852539 49.73364258 C71.24410347 53.73301741 69.89226917 57.86769423 68.5 62 C66.53460759 67.83335648 64.43224934 73.49835211 61.84960938 79.08984375 C60.14585 82.92036483 59.85279905 85.96395395 59.79467773 90.1237793 C59.77473251 91.38486008 59.75478729 92.64594086 59.73423767 93.94523621 C59.71725467 95.32156247 59.70037581 96.69789002 59.68359375 98.07421875 C59.66301803 99.48241275 59.6420214 100.89060065 59.62062073 102.29878235 C59.56546378 106.00260481 59.51602646 109.70648241 59.46777344 113.41040039 C59.41751179 117.19096773 59.36190226 120.97145611 59.30664062 124.75195312 C59.19863139 132.16790821 59.09955908 139.58390734 59 147 C49.76 147 40.52 147 31 147 C31.020625 142.71902344 31.04125 138.43804687 31.0625 134.02734375 C31.05651882 130.54156798 31.04250519 127.05602282 31.02320862 123.57030487 C31.00519745 119.93031356 31.00023094 116.29154659 31.03076172 112.65161133 C31.17422141 94.12992383 29.61580584 78.19664805 22 61 C21.5062085 59.81051758 21.01241699 58.62103516 20.50366211 57.39550781 C19.75484545 55.59886615 18.9919945 53.8080059 18.21484375 52.0234375 C16.31315818 47.29062518 14.76978417 42.44002514 13.22998047 37.57885742 C11.76252372 33.01689232 10.01170839 28.70820169 8.02368164 24.34985352 C6.20312515 20.17077976 4.73760528 15.86889383 3.25 11.5625 C2.93417969 10.66595703 2.61835938 9.76941406 2.29296875 8.84570312 C0 2.25962189 0 2.25962189 0 0 Z " fill="#F30E01" transform="translate(25,37)"/>
<path d="M0 0 C9.9 0 19.8 0 30 0 C33.25 9.875 33.25 9.875 34.24707031 12.92138672 C35.72521525 17.38274426 37.28017234 21.77541229 39.0625 26.125 C40.93539146 30.71804334 42.4049935 35.35403354 43.75 40.125 C43.97042969 40.89070313 44.19085937 41.65640625 44.41796875 42.4453125 C44.94991438 44.29555815 45.47565112 46.14758715 46 48 C46.43828125 46.82566406 46.8765625 45.65132812 47.328125 44.44140625 C48.31959056 41.79498266 49.32914574 39.15916504 50.359375 36.52734375 C53.93639636 27.29340377 56.93041127 17.95447105 59.72753906 8.45483398 C60.00952148 7.50165283 60.29150391 6.54847168 60.58203125 5.56640625 C60.83186768 4.70990479 61.0817041 3.85340332 61.33911133 2.97094727 C62 1 62 1 63 0 C64.99964982 -0.08758003 67.0023611 -0.10696576 69.00390625 -0.09765625 C70.21884766 -0.09443359 71.43378906 -0.09121094 72.68554688 -0.08789062 C73.96494141 -0.07951172 75.24433594 -0.07113281 76.5625 -0.0625 C77.84576172 -0.05798828 79.12902344 -0.05347656 80.45117188 -0.04882812 C83.63416022 -0.03699545 86.81705762 -0.02051068 90 0 C88.83202799 5.62559762 87.45261765 11.05206968 85.625 16.5 C85.22539063 17.7065625 84.82578125 18.913125 84.4140625 20.15625 C83.43235971 22.94910018 82.28819712 25.6218551 81.0546875 28.3125 C78.81473722 33.25831023 77.14745588 38.33195346 75.5 43.5 C74.93170608 45.28273024 74.35881844 47.06400289 73.78125 48.84375 C73.53439453 49.61912109 73.28753906 50.39449219 73.03320312 51.19335938 C71.2911632 55.92551699 69.16458428 60.5015746 67.034729 65.0708313 C59.87038255 80.80958132 60.0001711 96.59727354 60.11407471 113.51940918 C60.13610202 117.89066228 60.11151721 122.26187684 60.09202385 126.63310719 C60.07744322 130.02050249 60.07264598 133.40688692 60.08621216 136.7943573 C60.08886078 137.99103531 60.0915094 139.18771332 60.09423828 140.4206543 C60.10259201 142.00561958 60.10259201 142.00561958 60.1111145 143.62260437 C60 146 60 146 59 147 C57.00035018 147.08758003 54.9976389 147.10696576 52.99609375 147.09765625 C51.78115234 147.09443359 50.56621094 147.09121094 49.31445312 147.08789062 C48.03505859 147.07951172 46.75566406 147.07113281 45.4375 147.0625 C44.15423828 147.05798828 42.87097656 147.05347656 41.54882812 147.04882812 C38.36583978 147.03699545 35.18294238 147.02051068 32 147 C31.9845388 145.85487442 31.9845388 145.85487442 31.96876526 144.68661499 C31.87061846 137.47749994 31.76808032 130.26846684 31.66066074 123.05948448 C31.6055944 119.35365008 31.55220139 115.64780758 31.50268555 111.94189453 C31.45480054 108.36271274 31.40245077 104.78362109 31.34705925 101.20454788 C31.32674452 99.8418974 31.30801425 98.47922232 31.29092598 97.11652756 C31.26663947 95.20181264 31.23609799 93.2871802 31.20532227 91.37255859 C31.18200584 89.74040909 31.18200584 89.74040909 31.15821838 88.07528687 C30.9991432 84.98334643 30.56939937 82.04087478 30 79 C29.34 79 28.68 79 28 79 C27.69296143 78.0934668 27.38592285 77.18693359 27.06958008 76.25292969 C25.90888131 72.82962579 24.74267409 69.40821827 23.57495117 65.98730469 C23.07414143 64.51774962 22.57474759 63.04771111 22.0769043 61.57714844 C19.33193852 53.47217397 16.46849179 45.49588564 13.10083008 37.62304688 C11.5496465 33.9269022 10.22929365 30.16793572 8.9375 26.375 C7.06797329 20.96672631 5.12567721 15.62931246 2.859375 10.37109375 C1.63744719 6.99968384 0.86973669 3.47894674 0 0 Z " fill="#F40E00" transform="translate(707,37)"/>
<path d="M0 0 C27.06 0 54.12 0 82 0 C82 7.92 82 15.84 82 24 C73.09 24 64.18 24 55 24 C55 64.59 55 105.18 55 147 C45.76 147 36.52 147 27 147 C27 106.41 27 65.82 27 24 C18.09 24 9.18 24 0 24 C0 16.08 0 8.16 0 0 Z " fill="#F10E01" transform="translate(455,37)"/>
<path d="M0 0 C9.24 0 18.48 0 28 0 C27.67 1.65 27.34 3.3 27 5 C26.34 3.68 25.68 2.36 25 1 C16.75 1 8.5 1 0 1 C0 0.67 0 0.34 0 0 Z " fill="#AA0900" transform="translate(88,37)"/>
<path d="M0 0 C3.88862987 1.26117725 5.89375599 2.45264167 8 6 C8 6.66 8 7.32 8 8 C4.63820226 6.55922954 2.40843732 4.75249979 0 2 C0 1.34 0 0.68 0 0 Z " fill="#C91306" transform="translate(695,111)"/>
<path d="M0 0 C0.66 0.33 1.32 0.66 2 1 C0.02 2.98 -1.96 4.96 -4 7 C-4.99 6.67 -5.98 6.34 -7 6 C-4.69 4.02 -2.38 2.04 0 0 Z " fill="#C20E03" transform="translate(127,41)"/>
<path d="" fill="#000000" transform="translate(0,0)"/>
<path d="" fill="#000000" transform="translate(0,0)"/>
<path d="" fill="#000000" transform="translate(0,0)"/>
<path d="" fill="#000000" transform="translate(0,0)"/>
<path d="" fill="#000000" transform="translate(0,0)"/>
<path d="" fill="#000000" transform="translate(0,0)"/>
<path d="" fill="#000000" transform="translate(0,0)"/>
<path d="" fill="#000000" transform="translate(0,0)"/>
<path d="" fill="#000000" transform="translate(0,0)"/>
<path d="" fill="#000000" transform="translate(0,0)"/>
<path d="" fill="#000000" transform="translate(0,0)"/>
<path d="" fill="#000000" transform="translate(0,0)"/>
<path d="" fill="#000000" transform="translate(0,0)"/>
<path d="" fill="#000000" transform="translate(0,0)"/>
<path d="" fill="#000000" transform="translate(0,0)"/>
<path d="" fill="#000000" transform="translate(0,0)"/>
<path d="" fill="#000000" transform="translate(0,0)"/>
<path d="" fill="#000000" transform="translate(0,0)"/>
<path d="" fill="#000000" transform="translate(0,0)"/>
<path d="" fill="#000000" transform="translate(0,0)"/>
<path d="" fill="#000000" transform="translate(0,0)"/>
<path d="" fill="#000000" transform="translate(0,0)"/>
<path d="" fill="#000000" transform="translate(0,0)"/>
<path d="" fill="#000000" transform="translate(0,0)"/>
<path d="" fill="#000000" transform="translate(0,0)"/>
<path d="" fill="#000000" transform="translate(0,0)"/>
<path d="" fill="#000000" transform="translate(0,0)"/>
<path d="" fill="#000000" transform="translate(0,0)"/>
<path d="" fill="#000000" transform="translate(0,0)"/>
<path d="" fill="#000000" transform="translate(0,0)"/>
<path d="" fill="#000000" transform="translate(0,0)"/>
<path d="" fill="#000000" transform="translate(0,0)"/>
<path d="" fill="#000000" transform="translate(0,0)"/>
<path d="" fill="#000000" transform="translate(0,0)"/>
<path d="" fill="#000000" transform="translate(0,0)"/>
<path d="" fill="#000000" transform="translate(0,0)"/>
<path d="" fill="#000000" transform="translate(0,0)"/>
<path d="" fill="#000000" transform="translate(0,0)"/>
<path d="" fill="#000000" transform="translate(0,0)"/>
<path d="" fill="#000000" transform="translate(0,0)"/>
<path d="" fill="#000000" transform="translate(0,0)"/>
<path d="" fill="#000000" transform="translate(0,0)"/>
<path d="" fill="#000000" transform="translate(0,0)"/>
<path d="" fill="#000000" transform="translate(0,0)"/>
<path d="" fill="#000000" transform="translate(0,0)"/>
<path d="" fill="#000000" transform="translate(0,0)"/>
<path d="" fill="#000000" transform="translate(0,0)"/>
<path d="" fill="#000000" transform="translate(0,0)"/>
<path d="" fill="#000000" transform="translate(0,0)"/>
<path d="" fill="#000000" transform="translate(0,0)"/>
<path d="" fill="#000000" transform="translate(0,0)"/>
<path d="" fill="#000000" transform="translate(0,0)"/>
<path d="" fill="#000000" transform="translate(0,0)"/>
<path d="" fill="#000000" transform="translate(0,0)"/>
<path d="" fill="#000000" transform="translate(0,0)"/>
<path d="" fill="#000000" transform="translate(0,0)"/>
<path d="" fill="#000000" transform="translate(0,0)"/>
<path d="" fill="#000000" transform="translate(0,0)"/>
<path d="" fill="#000000" transform="translate(0,0)"/>
<path d="" fill="#000000" transform="translate(0,0)"/>
<path d="" fill="#000000" transform="translate(0,0)"/>
<path d="" fill="#000000" transform="translate(0,0)"/>
<path d="" fill="#000000" transform="translate(0,0)"/>
<path d="" fill="#000000" transform="translate(0,0)"/>
<path d="" fill="#000000" transform="translate(0,0)"/>
<path d="" fill="#000000" transform="translate(0,0)"/>
<path d="" fill="#000000" transform="translate(0,0)"/>
<path d="" fill="#000000" transform="translate(0,0)"/>
<path d="" fill="#000000" transform="translate(0,0)"/>
<path d="" fill="#000000" transform="translate(0,0)"/>
<path d="" fill="#000000" transform="translate(0,0)"/>
<path d="" fill="#000000" transform="translate(0,0)"/>
<path d="" fill="#000000" transform="translate(0,0)"/>
<path d="" fill="#000000" transform="translate(0,0)"/>
<path d="" fill="#000000" transform="translate(0,0)"/>
<path d="" fill="#000000" transform="translate(0,0)"/>
<path d="" fill="#000000" transform="translate(0,0)"/>
<path d="" fill="#000000" transform="translate(0,0)"/>
<path d="" fill="#000000" transform="translate(0,0)"/>
<path d="" fill="#000000" transform="translate(0,0)"/>
<path d="" fill="#000000" transform="translate(0,0)"/>
<path d="" fill="#000000" transform="translate(0,0)"/>
<path d="" fill="#000000" transform="translate(0,0)"/>
<path d="" fill="#000000" transform="translate(0,0)"/>
<path d="" fill="#000000" transform="translate(0,0)"/>
<path d="" fill="#000000" transform="translate(0,0)"/>
<path d="" fill="#000000" transform="translate(0,0)"/>
<path d="" fill="#000000" transform="translate(0,0)"/>
<path d="" fill="#000000" transform="translate(0,0)"/>
<path d="" fill="#000000" transform="translate(0,0)"/>
<path d="" fill="#000000" transform="translate(0,0)"/>
<path d="" fill="#000000" transform="translate(0,0)"/>
<path d="" fill="#000000" transform="translate(0,0)"/>
<path d="" fill="#000000" transform="translate(0,0)"/>
<path d="" fill="#000000" transform="translate(0,0)"/>
<path d="" fill="#000000" transform="translate(0,0)"/>
<path d="" fill="#000000" transform="translate(0,0)"/>
<path d="" fill="#000000" transform="translate(0,0)"/>
<path d="" fill="#000000" transform="translate(0,0)"/>
<path d="" fill="#000000" transform="translate(0,0)"/>
<path d="" fill="#000000" transform="translate(0,0)"/>
<path d="" fill="#000000" transform="translate(0,0)"/>
<path d="" fill="#000000" transform="translate(0,0)"/>
<path d="" fill="#000000" transform="translate(0,0)"/>
<path d="" fill="#000000" transform="translate(0,0)"/>
<path d="" fill="#000000" transform="translate(0,0)"/>
<path d="" fill="#000000" transform="translate(0,0)"/>
<path d="" fill="#000000" transform="translate(0,0)"/>
<path d="" fill="#000000" transform="translate(0,0)"/>
<path d="" fill="#000000" transform="translate(0,0)"/>
<path d="" fill="#000000" transform="translate(0,0)"/>
<path d="" fill="#000000" transform="translate(0,0)"/>
<path d="" fill="#000000" transform="translate(0,0)"/>
<path d="" fill="#000000" transform="translate(0,0)"/>
<path d="" fill="#000000" transform="translate(0,0)"/>
<path d="" fill="#000000" transform="translate(0,0)"/>
<path d="" fill="#000000" transform="translate(0,0)"/>
<path d="" fill="#000000" transform="translate(0,0)"/>
<path d="" fill="#000000" transform="translate(0,0)"/>
<path d="" fill="#000000" transform="translate(0,0)"/>
<path d="" fill="#000000" transform="translate(0,0)"/>
<path d="" fill="#000000" transform="translate(0,0)"/>
<path d="" fill="#000000" transform="translate(0,0)"/>
<path d="" fill="#000000" transform="translate(0,0)"/>
<path d="" fill="#000000" transform="translate(0,0)"/>
<path d="" fill="#000000" transform="translate(0,0)"/>
<path d="" fill="#000000" transform="translate(0,0)"/>
<path d="" fill="#000000" transform="translate(0,0)"/>
<path d="" fill="#000000" transform="translate(0,0)"/>
<path d="" fill="#000000" transform="translate(0,0)"/>
<path d="" fill="#000000" transform="translate(0,0)"/>
<path d="" fill="#000000" transform="translate(0,0)"/>
<path d="" fill="#000000" transform="translate(0,0)"/>
<path d="" fill="#000000" transform="translate(0,0)"/>
<path d="" fill="#000000" transform="translate(0,0)"/>
<path d="" fill="#000000" transform="translate(0,0)"/>
<path d="" fill="#000000" transform="translate(0,0)"/>
<path d="" fill="#000000" transform="translate(0,0)"/>
<path d="" fill="#000000" transform="translate(0,0)"/>
<path d="" fill="#000000" transform="translate(0,0)"/>
<path d="" fill="#000000" transform="translate(0,0)"/>
<path d="" fill="#000000" transform="translate(0,0)"/>
</svg>
